<mxfile host="app.diagrams.net" agent="Mozilla/5.0 (Windows NT 10.0; Win64; x64) AppleWebKit/537.36 (KHTML, like Gecko) Chrome/138.0.0.0 Safari/537.36" version="27.2.0">
  <diagram name="Page-1" id="e6RZ_xYrtDSWLpxySLs4">
    <mxGraphModel dx="1206" dy="1194" grid="1" gridSize="10" guides="1" tooltips="1" connect="1" arrows="1" fold="1" page="1" pageScale="1" pageWidth="1169" pageHeight="827" math="0" shadow="0">
      <root>
        <mxCell id="0" />
        <mxCell id="1" parent="0" />
        <mxCell id="UyLI5zCr4JLoSCVPqPzQ-4" value="" style="shape=image;verticalLabelPosition=bottom;labelBackgroundColor=default;verticalAlign=top;aspect=fixed;imageAspect=0;image=data:image/webp,UklGRgabAABXRUJQVlA4IPqaAAAQmwKdASq8AsQBPp1Cm0olo6MiKdNc+LATiU1TWUeF0Tkm+AeQisbjEpPMlK8tDMe6UWRSqPNTaTZ9Hk2A9vLxf9p/ld0Xu+9b6fv9j0f+F/6Xofct/7/+3/3f9yvmP/uP9L/V/7p8efzP/qPz2+gT+qf2D/cf4z1xP9F/qvgb/bP+H/tP2A+AP8o/lf/a/q/74fMv/j//B/nvcZ/cP8F+uX+x+QD/Afzj/f/n/8Yvsf/4n/T///3BP45/X/+1+f/xXftH/xflE/qf+v/a34Hf51/af/j+3v///+3h1en/5W8Uvynr3/L/vPhLZl7Ueyn/n+Df6r/a+gc+LtEfiLKL/Y88/27z+eh3jI/nPUV/X3q6+HP7hMz9oiS+eychR18yd+CWKj/Ial/kNBgMQgtanqA8202ah1q82hV9MjvULnkXqqH4IrQOUfIt2fXQ+EO9jqguxYTo/ho1u3p3R+2k13gPBbVv5rUzgTuY7KGQnq9p3tPBbT9tUh3rnNbqaTYb9lqxrJVUS/Xkfj0cH2SF/ktMSya////gL8gdU8JspidO28IIXzDfKjb8jMEgj6Z+HIfu4+x/bDS/2tekB/3rxT/SZzbTPgCo5WOqXXVcF/ZF/IQBL131xDR3/6VXrREbGWmkCKK8zHtqGw0vp6mlJSrRgLniFuyHjzjyhnntSTxQYlZO2QSj6zH2bF8EO3HoIoOaG2pBvQkeaZhWYiFQFSmRX3xTByjxdddPgxu5UiNVUo6aXJN//nZ/CUlJUgARruzXvOu/67tF34ZRA3OJzLnalrw8h3zl6h+ApWm8cSIOxyoEBpKbhld1PuiasCCqUtVeYVF0H3P4dZXSQhlm4PMqumDQ+WOat1B9EJvRGKsEbcSbPtip4NIOVAmRDbX2biWmq743/KQ44NTCZ+51dZuwv9cRZh7SWc47aTeeQCik/E0Mb1PSmk5QAvoKPjHCSrWzCp2Hn4TUYpoBCPIp1GG0GJWH6ymDyJPhzB/QlXbP551ktb9uzcEz0m+/+D/kMN38/n1oKHB9k7XLOWJzTzH/y951unYHFwdXvBOGvu6A6Hy6As4vR/+3D+MXYp24KMsOuNAK8Stzqgy+6aAPagrf7+U3Tum1lQmd+zB3T3zwssuQszhNlPtMHdwLIpUqP2loteJRE20GMBu2V7VJztwmCOVwrxBxfyDnffwdyGPyr+Wpe9Ss3MGW9mfqWMc2pEKEzR34m5x//EnUwUMhKXNTgab4SIOOTUVMGgvZNtJdHqF11vi5Hx/4UMQ/xkEC/5c+qG/V+A04xVfJLnjn/01KN+OgraqjVRQukD6upWLx5nfJa3XSw9HKOW/HwKMkaaPunD5/DaFcGhXeeXV23gg5JIGvuF3afhQE/3XyZIwRVBxb7crGd+Il0DLzQEPmLoe0mFVGBI+20KfiNcGb2Cfl/2qC2391ntJTO20YlGd3y5gv0cDlh6ebuWGU1P0wJioumgREvflQBq4lHz1DosbZTpPQmiV5LzOmWLDHyal69wQ7Hx/6S5nQ7P8vs650Jq+c+WWSXpz7Q5WPc3qphNXYhsd0+wZJ1/nNjSP+FchXX+2TB73FkXEkaGTLINL//JQD23BfCe86JKjXPbYBKVcM3en4d3x1nIzUWtzg0V8D0PsgLScSonFBkM6JyXOlpcPihV+dCX8F2yRhD3/J9OxEHLfF8dEoFwH0oncLeIDYP8CLUqHPvcoguTDz+JNyuxXcQafyzseSuSaw1aGiSayWW31DfDMZFh3YLDi01zTDqsGxm8UyfXZVgev4mf8hBnRA6amd4RNMt4+ILCPHfy0/+h0ZcTz7/g0V3gRnEa41oseoBaKKRVv60NA6hSgGyPlCYHX+SEQHPn+aKuzj4timNxHzBvOXppIU06Kxo+RXbyfFPEgMcYJnp5XZNyuVhpbV9VRHEAuzP79GXcftXOBYm7S6bzMBi8xmdLyzw3L8masxLFnRzy4ATG4hnoLmh54Hg6kSFEj3S91XhsDET7yawR5HHHsqL6MAdMpiEtZb2dLAemh3867fHOBu6HA0TBOiY+VXsGKGoDpvvSd7AZ7rIn+wtieVJi4gD2AVxTlItgMkFX3r3SiWZaon69jEQH0WVu0HZ8bmp/ZtRG1Jm5CX1YEn2AVX45x7FKvZXt8XO+LkdauZOghyBVSRoRszNlXxmHbzl7697MDpF4+wkv7/WLF13kqgIdHlnwORLv6ar6miSp4S9GVG5jayvsjnBofxOSK1VAzqNas+ZfF+KbSh0V44LHI8MOKDPLXpFf//xUQ5fsgxTcnuaKd0gZ26fSxKAp5SZWZ5ddGup1jm8UzokXKlKIYb3/LgYBbeDga6Rv7ZqphHwG0ezt10BSB/0B3YVhDVgcsss7ebhGb5SGg/Rtzv3IbkawPxXuD1D7OlescwQzlGXB7vLuFoNEmQUPJ7ba6wVoUwPV4oP6z6o90xLMQ83VJ2MDlR3E4GRkyS87/yNxKwo2oXLQYMVLJ34Wn7tQ8e1yVMIyNnqhBjkUc4Msv4O42mipv/T3ViDEYg3GiGp3//vUVkmXwmp9HRrwyf+ZzheadW7kNcsBYFx8DFNK9hlUrdNDiVyJWP2SlU2KakWAG8+noP7b7wwelB1/3PXAmAGycWdMZDt2kBDJsohcVcFrIXtFggSvGwTSqAi23YV7i2qnoynb6hOtaLIAzpBWRbHZI+NhaAuKWveRN+pd3BW4TQ19C8mTaWtZN/UfKsH+3d7o46YNkTAi74PjnUoE7UkoOhFUO36LjTYFHgF5xt+1H8AQ58Ge8PVJVtvH8Epkck78CgRPT9/2PzIZc8xGAp+2uF+s0+CR9DYkYg0EnzyIShebQH9rpa1FxU0fABhfRFHrL2PIcJB+SlE7LsMGcUoBrmb0yKnfgyhyazUgW55StwSCf9lbo5P2/Pc8LofpugSJ0vHWb4FTEV1cMXG78ZDn+aGQUzmq6NDRlWxy9bd/HkuK4BKU/BgWzqvY9//6ttQDzRzlgAXCOR//AHE2ZSWU36YW8pYrtF2xm/2lPE8/8qgb96vOwrH3napGF4NsK550PvzDQ7pVu7T+tK2wAruT/PdjM68245jJkN2gxPryDBbNcUQ/YGoKbPnOJGxi27o6Ei1JvrKKu/qkDmDYgmqzObT+Ij3csGPmHQpFI9d1svH5nrEAAbJtB+7+moGpLNoElN958zHVI7UwP5A0QOomSSTs3Loxj7FKVhH+T2Yd+aViBj8ylgTCfa19QE+E47wTI6eGKLGgdDhR31G+QyIeHTslbwrQuzBXAjNdYYZELwCKP61obeWM2Trr8R80B4+WQuPT15cmbdjPwEn7gTKoTl6N2fPvRmXYvkL/un0WM/ZbpGgQLVSM//pdpNzWY9FmujR9jMRdpWbqLVl/zu8LyluLbxuEc+4GgQfDoCrnwN97B+6823eFh2OHXng9YspmOJWtWYr/YXw15J8l0uNk6/UY487yRGE+kuABuTFWqz03MbYlj7lgiUn+tiBryJUjiUZOyClzcj64tsbPF+XSS9Xkpj/xJYJPb/t4S5/FmWBmlXa5jo0E6gP4LWv/8O8rst75+KBBESZsBd7KwCr58Yzye6tXhI/Mm2EommO74IbMgnO2fMEUAqpGuksDxrQKMxGZ8HUwBxtOUvkPrY7lrpna8Y1XfjZT648Ka8QhtKr0ByxSXAKXWGcBI/OUFQMfteup2gjol5+PSQs2LCx8krbBEpmLec/Q/SgrS+SP+eAIYlsqeWao6Espca3HngKd5I0xR4Jv53FD2BJQp0fUMN9Pw7i+WxGc1icXzl/6hy/+yT/tkvOtQ96D2gaDmWa7AACFJq7QtMRq/cuHklzwDrCAixVR7tyHVG6IRr4lHN9ZnHQmC3D63RVwnU0ogZCxFG2pEZ8bia6TAXGHUZzy4Sb3Ll5KUGuxX4tgInBEx3KWVohkCgj2FCjlsPe07ZYS8W8tr5c5cbtJCZyJWjdaHjI9r/Uou5F4XBN8IhdqcBMubVYRmjNiGI4TjGOwHlpYDjf9+IKB5DEN/8Y2Wn7xidlEnsMSxAKLD91LeM2+Ar72mCgTLG1WpDvr066A9ZmpIzxtaAG1V5aMCEksWULbm9lM0RQKbphd0fZPbj9nkO7CsWlX0F/2Dq3vsKFZ14kiARGsUmtXB9vRsoJTlw/t4YbP+JAifY9mUtHfOL7NCiU82IzcgPBMFXyk1CivaSw6gzmLhnkNRlWTKKRKolVorEU3NGXv+/3Z81ARTpR/BsODfsK9jrrJoq2NFmQtYYQ3KUbIRN/Cr51/2Guu/UyWoiDgxuLpzt2KetAwrDai2tjUqB8r5azS2SUM8dBiwUhrGUZthZkmFHYN0Mqs7ZqE40O2fjRVDce+PF24ZTmQAonTVch+sACbRIIpNCVw+E0hzYyQSGyC1bGDjOm5Gh/hNwACyU3lfIBpb5yQa+xiuibigWJGbFVCwBf+A6LNlGMOBz7VP0bW5PSYcYXPDv1lexsegL2ABcTWeE4dW7URELSiBM+9zGXl1VK08FfMW9HxtL/TXI9HpxN7lJDm00HO/vEvtM77Lk1Yrg2VlJIVr5cLVzKBMzv6F1BRNeaqfctlqRn/pJNlIn0dguK8dCZXD3QcdUVmJi3WYeenjWTSyMbNJQu7vrUFj1d0D6g9RvHXnXODojLMqDfDRo6NhFf64kgm1dvPYIeUhf827fcuc8DKiXfMLmt6J9XRgyJyjpyew3GDS6BcyTKxW0FZj38y9habhj8d/F5CiljiwXajPsvNGyyYcdeR+dLhxU4qwEfCJ2AsEWCkDBsdmmuwpGv+d7tpXKQKd+r/5Cg0f3S2B6439Cmz0tCveDlo7ncCoy5faiY35P/J7MTbsvW4k/dUzYswCQNlUGZr+SVm2EFph9VpQcL7YCfsToTYoSeoqRsR3sCTmRMqF9sCr/Jh6IzJJtj433Tt10pVZcG1VPOnrtxNDyhTX0CY81D0UbSl9Fr+XkxEkiYjrZqj9PrVS3ftn6PoCcOpUgetLjnB1eK9zUAgYGoDFl4psZsEhvQLdkhmj74jJIAuItNX/cAqPjmrF94RDwVcGwJa1PN8S9C521U48cNqAyW87jt8rWhuAH3AJP4g6dldzs/7nWWWcZ8Extn+v2J4xwJvVFP1+QNOLOFWW2YgYJzRmU+uGH+HtbeFqx24jFLcKx0P3q/FqhJetkx17VOcurPwtmnGovf5a6puOXt7jrta0HD393N7EZSgoYccpNEPTJUWDwGLPaVQAEs4ZSMb3iLXwF3t7OaVu4fBV45fKeg1E6vja9M2GkCpbf17bof45tWkfV+PfISVUt7ZG1YSOCN/sTl4cxvafEJrUoE+s/PrbyuG40gRu2HAqdgY4ogBFKqa1oAi3dIBQxZePrG1YBOE3NFvZB2knxNzXzTLG3XFBlYtiRYxbOVTlzAp96PABIGYuJaxFBoj7aBY0FalLuOPZ+NTen6uarQsvAopXUm47UaUwf58y9hExZw00s3GAHaLvphvujXEqT7KbGz5etX8feFoHWBNZONrJeiZlLg0o4OcGRjC9zDNU96OoTXI93pTplOKle63g+Nl4HdoIPXSFtnVDBq1WV07QDdBrdxE8agGGb4snOtsV185eZO33TpSJiYzcPIrZVC5jdhxZvuv1y5Ona3rQukYQCDz2qT/6VDLz/mmL79h67CjFRWsMS1RUwxvbHmKkLBWjA7xCbCVWVEf2t3C+ECri1DQg4zKpMaEOK9xeGblUyLfQesrSSG77Kf4poZ4LpwC1ygkqbgpGpVFC5pCwMt0HQzEMswhOYX+wg87jUR6I7SU31Jc1t4O+7AClybyUBaDPlRY3VV8GY/sZhzYX+PF4zpWHAxhljNlu33axEnQ1jb8ouBFrmgOBFttOaBbMQSpPBRuM7CNQ5/9DcvyN+R075RNXXAa63VELmgqxBFb69G/j3ZhYICG3vMIw3L3fu73vzMGvB5SAwMqFMJy6pjRiZ97vGTdN19PJiWpal4rY5dPUuhiHecsmDaQqPqBiLubg0lcqUYo2MJO/l7F9rGztK9IsVMioVMDj66w66LoSEgbNQif0Z1hVPXiFpsXODCezIxbbXlEXgPhBcUd6FPv/VuQGPUitzoI3WjI2Y9ih48GD4w4DJ6F3fnJSh5R/KvFWr3wDB0ag3XatJhfhEzrDFoY3m7JReGhE+TNUEM43ryFvdZ7ri2A6P8gT7X/nqWgYsKqqL0jTo1H9RJ9fryxEOJ3SgYwfIBG1Qeh3Seivea3bLi0co7nQsySue6U9SUcLCgndo7lU/TKPL81l2XkXm+fhBCyCsH+ZpVpXE5b9AGn/QloGWRaYg81i8s8IgwLP84CdgBC27ZpKvg+cxxNVF6CMEcQlwTbwtLJ0hLdJmQxa5NDasKCaueEM+bQzFgFISIbhEJGkBWdgZjfcrc6f49Y9m+MMOof/0gcf01j5g5QJ8OUsC8cXoxX9GdKbQeDUfpGkbml53ar2nw19xcL5+4UjodenH26zugFlTqFkIYre4ms0N74Wkw9RXdba6cg2/jHjfOsYjfqwGM05Pmj41F9gsKzpCfGVSgm/Txeb+6x4KtABcwoutreEzLIFC4vtAk3g2I/UI4gqEFk4UlEakDdmEuo1E3kmDc+ZJfjKJtEVaYD6zVKOPWuokaHh2m9oQpA6pxNpM8dL3+MAtD4NnIAYl8xNSxcJssUdSexNHAt8KK7VaM29modAL2P+VvPkqHSVDiV+qsnmDk1DknpUHLpA9mkJNTijegthI1hoJgc19GYK6wcQx2SrR7a8srpmL9PsP0cnrnMJGCSZNFsawIdMVphrwWm/uHrLrZ1fdpLFiLBLrYqo6j8wfZul3ud2zPPzpFHTvVUXzpjnq2FleYXfooNTeVdrOXndQJW+FGfQvOPWgPtonl6G7EGTraQnDDyrkPudGKbznmlMiYTbeD6VOtgnCgN1HDqr1l1Hms8Ylt/YMCs4m7TCuqiHGBVf5hV+zYM8tt7fYi2Ee4VrsLY/A+u2xt7PevO9pIXqu3N6009CIfCV2JuMIEVPoTQ/xHrNVTBK1y3WBv4D20ps1pwoR1xfgYR4U8yJfpPz28nrycfd9sUYgP08J52lToQr6d93M0AD+z38xWPH2GTVIhKDtmsB/Z4husKW4Wqs8sDSeqB847evsuxI4Cc9/Z7zrX7zMLJTfseMTnKec1mLdNePFv+4b6m6+EqRxgXIimDhywT7+E7BiWgHWRJiJC988AFjzA2MY0U7Y+Wo6p2GD7j/+4hSCyJ79AfAE8ur1/AH2EWenpncTK0uutRej4uQegkVaGWJ5sORNpFV42bJqHJxvC/ScYPFickacdL38IpLi1BCkuZtn25a50sqLvoSaW7YBB2hDEYPGdjXfBqsooWCTLFe3/X8DNNjFqXCyeSLxTVggaweUyz0BXU8TGP1CY9yOlGe4/RnDCsEX0Q9dli1kzJgWGXKqubzNFwFBKbfqQJxSWXvjp9B8jjTClLofVTNl16dljku1mB1F8TzVbp1Tkmuq2GHog39sBrQ9Gibwi1QzPNlRxFw7MvGQ5cVZAWDOCmbDuMMQZjqrh7cdewrRppBHmLIXI65c5dNxPvv6YaRfzNEww//n8HaoPYWP9fT1n+J0i9DFMjok27V8g3aJdjrJLpc1QtlypSUTlwtKSFbF6wLOAW+gZE2nL6xaJ1khco7ZUb3KiKE8JvyduNjOofdPusHSn13j9Vv01TlYgX76OUEckUL13CSnn+FdBVGrCX0GH5i2LXmojmUIAf3PArRM+4T3rmbT5gUFqxUVgy+kvYNMsYvBqKKBoKwfFpqJLyTmvicLGNl5lpFIMew1WJOcHdgdTCbHLJfOG2ofnd1UgTItym0qQLDI13DMzfbqMNpAJol7avFJzuj/nr0w+6JiZ7Ph/+UiZW3rhOCq/fMW/xCxijxqNz3pxZ1rRNb8MgknDrhVujh7ajvsJ2ev5qufCghMxxskN6HQ8A88CJwz6aQamh7wSdD71QYOm0l0rfelSuY+nE1uYGHc7dNAauZV7/Yny+UuuJTBixpMqbKNToixGjStVFuCF0kbQEawqR/rtmRFSXbJa9FlSzDXDWbkIWHO7ew3dhc4tK4mwK+PsTXqV2Qs6a0e34WUgx6QRhqWl7hZZeSP25/hg+vJTmMxaAMXz/CXqlAAc6j8IK8IRR4sGBqAiZAFIoKdfaJQKji58Ighy/g6eh+N1cY6QBm98Qpy8pSA3uyY3w2AUfeXZNIkBBg4KS6/1SNqISDJr1yb4D1AOou8FDV50xfeKHOtAwGsTpLbwUaWqHgYGRC1KdTu6Hw+MlH8y0X/mi2dLy3eWYTbGA9V7pStxUTIfsEZnJEurV73KZFmg6XpAMxGZTRTdSd7ryzHs90hX8QGBNp0qMDL22FgDzsQ0jzs9Lr4qTiKalWhvlHUMWxsjO8Xz4xxAsZJf7Lv4XjSpPB76lPEM/nW6vUAsxXHH6ezYBunxmvRsZ1yCKBBGP8zPDdPvUfHwZPvgrXRG0Rj+92bUOQoj2sZY506kTIdxrEo9LBAyGROuMZqQ+9+6RKu/hk3RzMoZywHOSG0NDk9+gd+JafON65i7y3bPUU17pbp4ysTM759ilwSQajAu4leYIcbgbHA3BZEnfcUJcFcqoeMexEwqJi3yxRTQ1MIyC4HtmIhIX9lbbQWXOvOR/ZVA7GVt3lrToweLcfRtjUOtHqDsYohCf9EkNxi7bTKi48RBiT2+L644hTWd7cDjxzTVlaDFsTFxszJTQ9Q0DeCSoEOQVrMEfpnWmUYv6NkyBky0noH1xgOfMINV/5vGoYhenByNG3fi1dmH8lIjn0XCulpvDlHp4rhwLUEYKR+9p7mfBkUbCPUCikwg51gUZbgAm1hofFbqsQ9gQL94G/JBAQfC7ROzab2N3k7oiBKRKL1c5Qjs//si6Jk2q1OW1lDRa/NGreKa61tKENyG3wf7anawERjzZN5nzwj9Xbv34y+hzonBba5S5xpHswVPKcEaky22jD3FaDOIJtulFwX7m5evfX5tStytET99cJCtYRlepEHC7Hd2wfTMD6zncpsVwdK/iSTXEusvermAKnP6neZUBYnz2b7yWPbnTWFGp8B3z7tgaIEYmfzOwhFC+ua5U4fuIYB9XWHCWReqdysKCPqZEpT5hdUotGgLlnkqfq9roFrkEuWVePhDb167ETYVhpp5w2q7XLUgNOfkwBjN2kZaigGwwIcmA5YNsut4rVJSdVfDYgvD5igvgCiqzCVmwE/WEnao+lWc1a6bpzndml5WLowQYHfDK9adJiojCK8XBXdmAznUBaJfroqI9lxyZhvJSzQ0ZwfVXKpTvkw5FVWKz7RYqhtLLZtJqmxgmwTwErS9jfpAaOesGPGjn0dOEuFPjeNjsOnQE1PeWOdLcO6HytiwZ3nE5W8QrUYI7t8IjLPT0SAfy5pM2Yk6egsNaCFb4LFQSqLtkem9evHkhQpS8rfLMySLNodGCpozzabeVw0UFpYmPj+g/fNdwXwUbbK8HWADM9EBqU2MPPHSmmK5++VXffMJL2AdoXO0N/rCd1fDgFDi3y1StjVrtVx0l7jHOwEVJWqUgsH57fT32/nqy9eeSZvP1ykopxmH6wxQk/6m14v3Ws+s0Ci+DPLWt7jxi6H5jiCDyHJs2hNljlaee2WffU+tmN67PnuvV0eoh9Ho1ladbILxPLe83GPSkTRhVoHiBufwQ2+vas/HdF8kB/5Jf/AdrWiFvO5DzMaCX44LX3+csKmldKZG4kLzxvET8tMRnJjPsOwAqL2RprmBVx2YaSnWXiZVwlZnn0fG9f1n7HGf88YHVzH10251WfpoD7gTvy2NYcUZr+LRn0xaCzzfdQ+1b7VllUqnENBw2MRGuepuhwcFIKBTnuBFloMUnSJSoUJIbDimomvNG8hvn0RjwFX3jKUEKeO68gk9CVe/RrEOwk9gxwWkmXhz4Z15KnBMQ4tCiTDQycmDheLwgL3C0ZNXh3zgiPC9XsvYGk2Za49lC7inZdDxaEZ+0HwXwHTSgjhPP2gq8DouqYFK/EmQW/x2hhduwEYLHieao5bpn2zxRpJDqvMXsyRtCr160unIikLquAtD7lae8RFt/km2SIx6LdwqXQNPaIygDNWQCn9ve6MsmePp6r+6JbOEpO3oFrrEiPi8NuGsp/49KqjXUK9B/wPGJRnKLil70F/eVw78r7X4HpL5uC9dwUS3U/H1QuAlC5GlcUjIe2svovfLY8i+2WU1Ru5HTSO9jx00IENt8AcCruM0h0D/olweM2BTbmzjx2eEWl5aprv50dP/HT1MlIpIeeN6P44zIDc8uiAhURj+X8pYZRw1XofYyA5HTDYYQyrrA7jUfcReD3f44eUZzK3s0TwSweXvelQb2cdqkUg9e/ti3WJrnLLGM2egYvWJm8c1H0sDerVJYi+/UupgkIyOoSrEnqqwMfdfr29LuVNj/BE6eqD6/K76/s2tF9P8z/AvHxjttNUITNpVJu2QTuZJ3OHdw+SScnMvRNWA4gMGJ1GkK3bIe/a2+ywtG1DDWfF1gNwCpJ8g/t+SGbMxkDVLFEYMzgixHXEIvkSmX6M/+XPQoVeAwPOWF6eX7bGj0myNQgguS7ncCt2gLwhPJG/RrRjhre3KeZ2wkuNOnhjXJj1cJlwJ6gbOeonJWwjKtoVMANF+0RVs/HStCFrZuSJc0Nbtsp56Pv3jmeP0gcnGJxHAP+qIrNUJpbK1IKxzYN81r78kImeeQW1UQpled6hZe9U0UDza7LIUjTQEZf6XFxPQ170xVAW7PcalY6qUXPrqcXmC3tJPOG1f5wCCPIRhInZoDgBaOvojKqXG29dj2c4O2TLYxRClToNFQo5jSDeSgYP7GwNKGcUsUJEI5WFFY1Cl9+Fr6B5XL4AFFWzzcxOZ17DdahPIeZ3XsoUVn3Q/oqo4cCdHeM/g66fuwobpBnGwVRolf72KjyaNjhlDnJ7uNtzSV3naclwlrJpHnb6kGYHs1flugGXSpcoTsUNUmc2Ww9/zZFbwZTscO0WJMTxa37vu5Es8eettM8mnKRIs4SfF/6ahOlK5zPJzDJl0whzl0AxJh+U6xbNMjHW3SocZ2sO0a/z8eZ1RKQiaif9k2q3jeZFNhgYb+iN58pJeh21reD+y1sSocPiAu4cv9g5CuRZRhYp2UB+xk33Eoec46W97x40HIY3Kh89fsdCcesBaHxWSTTBtp3Mz+nNuZ0btstBOL/V1xTdOA5A5jusYcBLtqHUz0dthhsMkoXOKeFh3IzFQ+FJb/MzT+bsIoVudIkk9Lcd/LWvATmzMUrRhOyRnzO6Ge0Y9586aYcQT3CBrlFNJ2h7JxrpbvHZYjOYnAm3UkVo7touz5du5zI5VtuJvLys4CtcivIKdwyTrabFpVIJ9GU8UvCI3mjtykz+714pfdkMrCO9PnKC0H68O/5k/Z4WTzI+2eVFODJu4O2pKWmHaHkEKCSQeRIxjtAu1u3IeYow6EPhZizcuUOOxj2XI8fo2KRVL+Dr9QRlEZvibYukutB9M8LxXoFRMN6s2M8ruO9ZCBgpVTKnZbSqwu5Luup9mR+vVAQ5rr9CWjTunApnmJwkDQJSZeDT18L/nq3wmX8bzhVvFvZwukeAvVa0Uf9u0QZD6HhfeKed4fATVKf7OhD5q6UlMfkBsNWnbRXiF1oZARk019N6o9/oElwxqLF2RljBQajSOT/CVO4OeckcjIr+nFDcBPq2FrBgc41tYnXdr5T1+q4AD9SZ1ghVPHiFToLUlQ9r0K6/vmXqoVvpKVQsBqhf5nHpQrkinMvW3JLQ6WOFqo85TcTh6CCuNtIemnKtOzBG1J9e1k34hPMaAHpco5dBIFXiue0LXQ15ug7fylXzHezPTBhSx9pAc+uD2tTtzVstXg59JmIZ73R1d4p0T7pAkyjfKi9RA+tk6TTCYQ/BP7A8NTegfgIr+bKFqW697WFOKlsxw/Uw6sSfMUSii06GZGufspy94Xr2IbFbpBryH+qhPm2HHlxlvBLtTmBWtFNX16VBqNGSoXJxHo3B4L4Vn17/SUGBHZxazMi/NLMp1LZOcaTwuq7tYWvUEZeP7jj1uUrivsylb4/aHJM6eu9GNq5H2kliG/kedTSigDN9HFmlKNGU9jQ8IPjkS4+zsZZO2LxQsv9ppcrFFWVRTkLd+Iu+x+yrFv157duw4dsrIKl7RFsS9DmEGGCywzg/aoeXBAr96PRoSD0vk+y2rTATPDcksEf6KsbG2PBN97HPnGHu4+XwC2WHQhgyD5M/U+uj57lXZubOr8Y6xRQoqe77anm+1EriuEZTUdwRHPlLIQ3FdYu6gPWwugq8/JtGyjNH/5YJ4Hrdzs61DVWgTj7gGjuqUZaA6rboiwEsmGkhE5DHPhjvU8NXI9bXr+J9x5DhqKkQA08OPVNGDI8aWVy1etv0MI+9bc1dEyX+ZjpAk9b88PZ7/HrHTo2otwtj3JP4taSEe8kz2T8NdaHXha+M0zdSpExPsvHFx8/qYCDp9b9GFfo68/+dkgUzynaln0oxkCURfyDUltGdedxgrfTy/FzZtMMx+UsiMmDWntAbrgcrSqmeYklH0+p8HAGXqSveZ1fKDtXflrUnwJNt9WhlrSK0QLtydMfsXWafFBDsuopn9TkdRWEDistESyTOVX0sM2KyYqStqkuAC9RjWu2B/y1QIqdQY2A3astXCKDog7U3+Urn9lMRvfIAnpPJqvlw2JOUUL1bq+74fjjH+laf7pQ7Deq8UTvJG3d/K2ljcRvphBq6AtPZK/trSx0+nNBaRsDHnb30ips124y412RxEmcCNhrsGjnEcNSrggyAQ0Zhn/QpeeoKk5QgbzS6kfbMx7kL5XLYATxfrx9to+bRP61prvyJjsjqkzSviC+AQlcRsnKjHODhIK6mQ7ughHPc6aNvkPC+8PMPNvrOF0lIW1EvHE2nYDVnPFOQ55HHNa3IqEIqqDvGzGnVSTZZdwHrIneRZjarhKTPdL5XoRIAdOEbuuaL4BobdDqvuzBESOHZq8HGGUgDR2evi4jYILCNCg0WR2+Bfvst4fydODHTn0ldBoZKmomVn6cUPzxO0M4nDRnE72ZzP1yrmGujK0riIYDUlyjcTmQXEVpxnB6ghLKPZz3TXGgz1439nF2AjQXSPZYNm5AHhV4+0+x6LvnoqfUJhYi+fsp9fktUxj7KQ+o98h0rkC4XBNszhjpUI4bp3595pSwwEqOy7sJNPRG3TKR/wwFmZRlWyh6AefLl5SGiMT+xAHLip9TgTLnf1lkK9p35vrkcZBrkKqf/C48WWU+Y+x4jfj8xVKLMn3u9uTN3yF8xDuo7y9adbIqTf3J0ScZNSzZcWrElv+vyoleMZULxUh3VqDvEI/LT4lkKG1MOl4fJlAYorjxd+bfQIAcPhgRTrblg7YZC1HrD9PHkax9TElOHAnxRF74vVerniXvdd0eP8l40wBNnCI36HlvFSm2pwa/6Orh9MtjOvnGvP00hW4CipqdAu1iB31pqb18HUx0BMerSa5lNJXM3M3kJOP/viDXHEjOEyvWI+nh8gZkw+Zf+FlHoyYB51O4FikPHck7pI8oYEj7iP7gldgBAV5ZfJGxnF/0gEE6wd7El5JcVcKlT5ZOM3vKMPGPpYazMaV4hQ6ahW6bhd3NwJWP4B+VgzxG8RuDC6BT4gcLMWjS3HKlidM5LzPHNHRG2ixrwa8m441oPZkC2hV8Qk+ebi/1tS/EiIXEv2gHUKglrEhByEHXwJJU9InLqUQ1wLeF24weyDh/dZdV4fBVUoS44d/5y8xmuzFX+zmnyTuqhM4IjUlDOayOsonxfKORaM8N5QBzSGnkoBZJ7pH3xmENmq1HFkd6QM2GLQ07vZLXNS7cl38SMVnttovSxPA1knIXwq0Vpb4qfgCJatrD/zw1HSEN40hM4LnmbAt7xg/AUX9c14nUMT7xjSiFRJG90zQVK9Ub97GnFJX35duj/PrZjjj6UK3r/FfvvACk8qpnXTYTNC4PPJ1FaNiH33rwz9VzTchQfL7T7WOROQE2E/S8mgnNpqDa3xcidNJuSUsUzz3GjxFHLfZrY17Vmcw23FXrHwVjLJy+AqL2LQTLvI0qoMSRRCai82PR1U1rOExKB917iBg/c/o2jcV7NoSMkHvGiMkpvw8VTR36rANGRIH52oL0dT5vBPjwxONd2IG13mPVzn3KRYje3kcB60Pl8opdZ1KoPIfkRHZEKIMCvIVFEz9kb1BWJK8AyAasxQKbFb4+PLxjmkrU31FiapH1fyXFl3pwfwYdO8IsWGy7bUEWR/y4CQJgszU0Y+lwcT/x76ErT/BYpH0D6oGEgOJY9uLOh5hHrK6gCnruf33DQ8CJFItDNwagxqf77IsBtYSoY9VqQHgfTANaWGAJeFFEC3Rl60pae9x8vf5hd7eIBEDW9KPaTBUHhpg8ivR1UJ4moLWyWVQh/3tvPVlqFfdP43dWgNSbe48PrDfOUcqOk9OpqM17F3WeN7azkU0CNOynJM0QMula82hTsqMIxHc9vbmSpcWwQsHzjOnntLBFGv/dRMbqJOQIZswx76PYxwO215Cw3ZjQTyAVxODd8qRlQHI0xq3NrdkM9x0nBZhlUn2gBrlN5y5hs5NEgwZWcJsgClxG/g9/Cnkqnj0TyGsZP8TCemeke3Ga01wlF4G6TVXooucesvDYmedDONs6B9sbnhs9T+1z6H+7rjp4/nQjjktJzJyRYDr34/gqqUOwurTYefedccEiDaXAsctZy+enSOl3FJ8RIuef1ifXw2j97j+fbvJjtgHSKM295emHbKLNkraJ1Ubfq0IpfBULA7RlaGV7g5fy5AqAlU1rLOvz7Zuiu7I3839W3nqG5+OU2IQbi7SS7c0Q9KxEKjKUUQDaW+dD/TehO8N0HDkYMGdWShVqb9lG7IXz/mSzQ8V5F2iKYynjrW0nZR6v4rkurRByrIe0wPx0dQY6KGXhew5tbSnnEo+Lb1wGlidAvk2nNUyKRG6/6AtaEqxsmlp05/YE+LkK9GSZF8O5Km/glL68/PFTS/NA5kQP7Ie+09NtIgTFGaUCbVIav3ttvutchBhgYz/0ecvlKIrgvu5kVPsKoubppcrPeP8LwPbhWtHbjsDiWkXCIXIqOlt8978J4FfAYhIJrcsvbhOEhvGuKHXxZ7E142xwegC778zhuIY1UDIM9iV8Jx5dKXltqMobUWaT9tyxIz7GyZxvt5D/DNZZNLe4IC7tXTaaHBO/7IgqdBa7ZM0p+BGS+AMYpehrLQZa20e40Jijo1mW7jzWZcu2VWiFIMabGlZdJstMV+bZeHN5VMu6uRiux4Df1xYfTzdzzpcERThRxNXWN+SmO/tU8OjX9fdXtK9R7hnptUsiuW9xhEUY12vmbhz6ftslUiv4sThfS0yRU6g7fuwxyD9qIY0+ifnaPYldqkg0YVFgMCey37QZZYQ3a4zdEeS5XO2cH2Kp4ujNd9nfi/uZ3fEhO1WIOkL+iCvZmVzkwnalVuxQ90WhK37FijPs5d5aSKhnkGYQ83M9uKg8X11D8niAR4e9pOT98NOAojs6dTxn5c4R3cxMyJI6JnGUcdJmi5IqF3ohiU6zay1K1hCWYpLMhQsNhpdS4AlNLS3OyXO7tsppd+wQM67ptP2GG9HGVK4EmHAD9XNxNmAGr2XpYzreQ06fcaVI5Iw2NnkS41MmcrIo+ayR9eqvkQFMm/zY4Vvqo/iZ3+YGpKEvUufdSPV++mCORu6xT4PrdoQjYqomIh0RNs7bMKHrq1xfAz7THsxVrPf6NVBJsHFOou4LGYib+aDM0/pBTBBY3hdnaEvcn1SsdmVfZklABsNmLF95Jo4G7UkUEThRK/lzwhqrsvqj+wlHr75ntmaswUuBhur0KvdoCkHIFuqmBidlC7+e1nA+Kff5rD+He5+v+K7fpMOVxLO3ta+e3UgT2QYVLVE05x+1/ZoWayu32WVhA9FdRhuijxcArC9pBFPZ11srllxcGdyzaVTl+gesz97QLiQ61jpGur770SHHUgA2/K0wAs/ZcPQrLh9pajmimGfa2kMrXs15Ma5ZVZDE3XBpX+nD4n6Bxe3O/0N+J5i3rpn0czgO9JJwAornFPcwT/nQSIuSbysRPtTVz5U9Z0S+c9A9jDuOupUq0PprRalER0vs44U64k4iRtf6PlZYG8O1vl8tA8eL/xNP2WiOUimCr7pwYmbh448TnFdRkFOh1eiPhyHi7gLllt2pWw/v0hIr/f8XAiTwfFU1GDPlQYuTHR0f5aC1V18beCHD2T95dyujjM5J0ovRccvYq0gX9HjuPFLFICJeshjkFp8KTaVisbv3VyG+C5m1jPh8zpLyvxsbHzDSU/Ji/31NS71Iy2lINwTupZqeVy/EURGjGVe3MH3QaHIwZxU/L2xorMfj7zJ2tiE0VPBjsm9KchnN0dQQQZpS2USz09BQ3YMB5+BAwHXEPSeU5CcJooaGnIFQNz8Ipyt0q5kpfsO4ad2aFc7DSL1pJ1lguC/sPcJIy8sygONUNM7oJhPDuqOWjSFKjmem3eOOiIoNafB0EGJpbwdXfwilI+WQjKKCyb3kVfy82JPsnAxP2a4DaP1+Az4MsqfsWL+YI+U5+wkk8NGw++Tp2FPg5Sudm6G4gROSSJM4Kqvs+3dsrTDOb+9KJw+SDf+2pFNLYrHas++ZEDa3y4Pndrx7oZuqrYUo5V1hZb9Sv7ZkVmE3AllBbguDw4lsOzD9Hb0q2nINj1jnaX6Lp6uID1WxdJgKDt09q2bhYQBx4WxkfcX76BDtVLFVAAVUwbwoOHIzjkRla4mgglvkmGtex0U6V4ulsnsV5H7zxshZKcjQgQHx5KO3ZNLXZyDjBHIB5TU+4UmskKiNYwrGWP73/pIajVyVop0eQjC6T5BBKNdpoFpuNx/F5TIelgDFfN/SX4poJ1NCgRcm7QBFL2hRfGA+nmgEem2qgfrWkkGP0RWlo8GBDOut+topgF30AlXn4ExjIxnwj/P2g0pxnSDde0PtpISTsRF/0x+HoQ7Q8ff/LqIoElkDPIPTXN272qf9vXJTfyWM5O3OPe5NsfN3GcUUFcK4oddorlIRFKFP/kiAHVuKOh5wQFPHfvxUU/6pEC1caHX5sVs9M1IeTCllx46fYrkoxO/Qat9bh/UDgII9W9FcOQDmMV0uI3Crk8mLHXWt2sRspo5bQ2/CGL0ujwtWVpqGjAv6tNR0z4okcSc5k6AvhHiC1KDMGQbdBGQsj7NAXBzVl6Tm2B+bO+vGHGoYeT6QQfYt12QM0xp1GjCc4ZP8YEG+Ah09jxzxK0oA5KPkD0oupUhwLqvTb79rW/7kdRUhHNTXiS+9I6PPziE79lpGPQkPj5xojzjt69RouOxrH7IqOOokfP7EZlEB3F60Y1caIbeAT/v7sBxJYhtK4ZQQNi69fE+fv3Trkyg5TPqte3sV0FlaYQAkg9ticyzNzIAESrS4B168QSMMQZqqT1j1mSEB6KwG5P2kYz8i6zwXEZFwm6j/m8rYtRRxeosy/YUfwv6urvupcUx9NxfjETn7WYXV4qaW2tDmLduALLIdhjRft0OTXx3BB55QwORwWV10x72ElAsSFekYzNSZG1a0/PFfa6JoRM9avRX4Zrr6oUUY8T4F8IMjKxDoFHz36/6XLLRZHtI7/KVUoI9UEVeT61BYR35Y24o/3rMEiyIK/Cd/2oU8rhH09nHalSrKlayLsr5lFVTo7xVQxji9VmipjPY5T0p0QB0ZvscG28DtpjC16eopQ4YQMFVTHgCuNyCj9UhiGDDv67uSF7fj40/hXPxtOo4U4vmKx8gbShgGWVYS/5+um979FAWdfEH0aTfffjvbzFMZhuWj0mhQYMO7y7i1BYOKTa1yWG4wT18WlkvUG7VMwopC76aSCKDnR5/4ULygRbb0NbIKueHGZT9hld5kK1xsbDfuEfww/zJZA1IT+8noJ85XhTihsZshuu3n8PDNK7YiYpW+rJosz0FJPzzLM0J7wCo4vCFgDwleOsdD3HDyIODaUEkVWnGL6XU9lada2GF/O6HedltaXaON8DSiYf492r92dfZcNcVuXXilHML8w5gfyOTFfQTnMbUjrmDWVHh9hEHg7cr91fce3JusRyy8SSwngNMFr8cOuuULuQuUTgqSi3lP41e6MN48DxGLY8oJjWjbIexuHl7atMMLK0cjEDgQbU8x2DT6yiWQ7LDwj8YB4uoMsibrfPub3qSlrCQ+twyYDqyFYRLtPU09roAsKrFeU6clvDgPGcTNlPhutc82H8FOPGAAEfUcv5x0+AOliXnOUjJa04KXsA0dp9W94+A2seMZx0czKhb202ypsx8ha/t7XceHtdILUBE5+60gq3CIGZyhfzt2NhUZyFOKp6KS6qgpJ//ijsOo8LWWGD0hIYz6Vp5JDYg2jCJG8bADayVx59/FOR8Wn35ouY11u4yXxTP10Bw7L97J3S6ByChzCUSCicHkxNL2T8nT1G9obHWQoL0O98Z/S/Z1cj3pmCYFDKiCYDzeDr+ODR8+wBC6pTz6nHhj579i/Ec+Obr5fBeyaEZ1fQmy+uc/SmGr9c/4XEs+Du+h2fL1TNXReIpa7ShiLV94j506H92bEDPF2gRH5NfPzVSTtzwTnfDxc7XJNiD54QZmWo90sPNREQMHoypLctvk1UC8iQiiKLaP/9pIGI73vJH3lWhAKcbGkCZ/5wSTvYdNkfWiM2Tb+8OMDBQOo6IGogc2TdTUgz4lkKCvJausOSJNgcqpM9FWUjF2/q49a4Xhiw20C0CWdPYN1+WOiBK0A3waS2tRWEDwq+Ta7syaQ8ObT681s8ZE5q0HgRybAuHESHnV+lX+PXe9QMbk2+3dUFRyg6zzxf57toW5kjQR58ZBj+PVMbAyrCKqQpBnblHECq/y2fq/H++Sw+aB/gWnXDfDGsz/yxasN3QhRKBT0c3Wn4D2UQJ9+/x3XwTKrFte41IBlDh+tMzxC3UYp22KWpo8a12H3s+PxmLT+sEopink+ZO8rV1Qy6poJZRiZYIN7SwH6f1ApvlOfsI0iUROxgMSkSKwKe8SyIpG4ayVr7n0Yg0fboEhZtgoG8MdfznbQ7Qd1pr9sN+wVzH/ePOjHBku3lcUukX4uEzj0svLDiw5uYO9gJOQpQwJsV5rL+joT6TSyNmXk1MjDrLFqLWUrnu0M5dRMfY2y31dUgZ5Ow3SGqjA69uCwqroLferRQkhAX1Dn8XCB146Yx1U60yQ5axAUn+cPiDdu6iCmyp/mQEP8Wr+gNurhln3LGHSjn4XPbHkXmFKoF+oMqmQpunOb2DFs4dha+mQfTKjkYsMDhCbZ+MDaHZ5+H4USFAcZxlQYBz/ZOral725HXbF6/MsUMuQ+CqZEZQhyn+SU0N1YFBjVb0LmhSz87f7wyMsDfdVCThFjRDQLxYZ7qfkEy1UHaXHcV1o7I+kj+gRvANhOy+1bObbimjPkwqrLyYdXvq4c/O3kY6G5I0RzCwBgfca5lAB6CmD2w73Fl2ehYzJ+swcVqczud8WKwKwsHxc59olnjkU/p8bcV30sDLig700LYNL+E3fFVJGUamLIwDhr4+ASiJH57CCg2Psn+BSYgjGVILu0pwz2c26gjx0HSv5ioR2Df84FKXcJg+Bhd8AuD+S7JLXIT3O+t6S1q+qwIMFLGQnP1r9EpWFhToj6VHKUp5tvsbzp/VN6X4Bach0+QuDhGxDd3N9d2AJ1zkLgGN7fTuhYL/sn7Bfs467+GdsRkeKuuWmnJUL+4Hw2L/RVwuBWpWIp6ykq1hTqoCOvVG9vx3bc+O8vGFKKiPVIS2btiJy8LJqnj+G830meQjRbHJoUZLqE4u86jdSZgXCtjCOe2uWMv6UMoCvnxt0ATeSgDg+BppoPPmHDVR5TCL+0BeWR9CE6qxexI7twHnLRJtTHS+d7W0AUy/r3e9Jd5tu/JoW++ytuYVcVlrbAU0IzrEn8IEY6bCcFbO13f4dBCYp4KABKn4R15W0qqOH4CcPFIXmGNLZDDXALkTLwKclpLSZ/WzNqcafFx0xVBwM/fVlRodz6mhJKKJgHaXQAyLypC+NrK0cN7SBCm/nk/ycQkg76XUERES/iKS27Py7LqmryKLGM92eFbCsIjBEX6Jr1aqFyVNLKI9nxKQSyKCjYcaBgzPLT3tPY3m2sUu8xwk5EWq7PbpJgTWs/NYyFiGmD2t3Ek/x44geyhW7tON3Aminr7zsqOe86FVaH3FGWWVCyRPYOPj4rHTzp78S0XS8qfG0GCfLAssLId5SJ4gr9c4tjg6S6XF3aWNZr1+Iudp00iFX0HrWHRbFYprAuTrXDupu/FKtp5NRvEIhSB4xnHp0oT1h/WK0Z21mm0GTEqtK4L4/1XI8GPumVo/Whb0v3tfT2m/5Y/VGlTik7QY82S+0jJsQ7LzYzlIFt0OH0q+wDN1Ub+B2WV6KhLPORI2PL8akvA+RXR/hdKGJGDqe05Og/mtcKLXCN6XC56d7kiGsj92QWELLEWuDD/lHGl6LJSy+zTNc0/i1PQCQMtxfqX5DVCmMlSJksPRoqeOFEUqxI3dRsEzfhfbAgPYXN6hO+O/9S8oyR2Y/7aVTiT+GtjDVXUud5tfzfEkFZkWmhJ9GhIG4sBqTZ4/teJ0ty+YvFOfFJ2SbYmbFQW9PX6P6P52pNplUxYAK4ADvB3JzlG0EFLZ9kA2Q8cuXxS72CSHxqfoS6SoXTaR4eHzbzZI86wtdf3d+LVYHlXqXFCTUAF1qiLHPj99egy5Ho2sL4lQDJRQ8upSJQH35MRX/6SfK6Yi29lzvo3pxwb1bMccwbehqRU8GHDchh6kJScAD6OQyzT40OVd7vEurL9zIcs9xNWaZsQwUYzEGDJtdGuWgBr0j+CZ738SZjS7wDzRqEQacDwZpQzNEAg6PkjrKQDRv5nMfXaNp+IedZUd4/DknMoFjTf3Zac6ph4eP0VmT7VIslGYLIDfP84fIpLU4fhTuN3AXFP1qN1d7QlqNWHTEAKJDM3zOljGuIwd+VMmFRh6ad3Sw9OkScLE5iLS0tEkdctt4qCrzk4bSzze/TrrsWNEFMVuttlMe2hscLB1osE7FNukKUMcYMAXx8ZG7cdbI2tvl8Cd7xcOzOqoN/sB8OKc7QJhKo60R9r0PAGl0K+VYdRkIovBxXm22JhfjDsGgdLxdeszx+44lTRICaOZnHDmtXUtItqBmNqzkVdQzBvMDPNL3bsXKruV3vlKV4HI66ZAkN3lQ4BA5CWt9cvcexhczL8zff/xSqYpMclVYdeKM7DSwIDdVFt5sxWvmZnSf23vkK4BhrMRNgYci5PAfxhwekU5zZr3qzzzULE8pC5poIDJQ019p1b1XBI/pB2ya9snAYZFrRGwl6cPY7FLvWqeNGVyf9Voi0wy4pOAencaPFyrmfRJEwRTjUu2BjVpRSu/thURqw0mxwBOM7w+90Q8zuaexBa8LUSM5OO1z11MiOXeWJtzt3Gxf9SHDtXWujTxiRDMwZSFOv0hEulWX7MjgoDxiVnaKIZXwf8/vtobWw4d36zkGCwxZXZbA5TVDYVwVP3uUkKmGou53BmRDefcLVqSwEGytTD69QI69zQ17I0/b6IhZy4G/s1R8ITBJj42N8iLlKlc9Ga+GQz4uwAB8LHwXvTPioN5WuP5xGs66eRyYkDpd9dtUE6l6lpKokXgydavQuJ7vCq2dIYWGb5Qd0n8pWK4V9B1PhYgfRrwT4ascvAZRsi83igpIjSiXmw/cNbCgR8dLcRRMBr4C2PIGxP4+QDnbs89/yCEbesyVdJ/BDfAsxvjG3AwpJOE0pNcwvuFDWBsB7Z+oX27ZSKDUb0NJh5KIDexgzi4gpjEsx4oyl9eU2lSBNqFXHkdtt7/XHIwBONBQNpD7CqVOKTWLodjWkz/Ez9T8KJWKcbAgYfcmGI82PzEN0J4HaZ5Sn4VY7iHv+0jIxdCDqTpVjRxAzyiAdGqSR1BqbBK6kCcMWETK+i3jlHzBaWE1cFHXmAbX13Ig8llqY0QVtcRqJUA34JICD6/lIyqhmsWcz2ZrpdcvcsuI9OO3tGy9wHBB4bLoxgtHWEwngHTkHYrDDW3wk8H5q5Px4pVrp9Ged9zDUVTFBhOcyXt1qsLr7gO7DI0r/Oi1Je1auarCoquxoqYLEbJg+S/7XkwN3IRaYt7laqvuSQXe8/xoWUj6dq7SENaPPMyU8z0cwtZnC8lA2h43BQ8BMg2DoFkCkzQGzcNB4QkAHnXV3VoT4tdoo5yNOM9v2lm5eXR6u/uLqHav7yUWP1HcOSLfSM4MTwFzPms+F9m/I4pmTd+g6Nf93smVmE75FUsppjc2dqwdmJyIb+mKOsv344KW/zz93vopH+Rdu0DH0+b5QkBhKbYnul/2U/9mteoeOUgcRq+AeW6L6A0z54XxoIrHeXd30VGuM6XmQh9y42gpwAgoh85BQowM9oVtHHpZbu4d29T6gLe2uHWv3WDt6kbI2GZ9TurYhwpfGuKkMK8K78ttHkBhxHZ1oQtuJjnF/n3XjRv7yrozf0sniF1DlZzHOKivwd2MZ335K/kGH9bJ+kJdJp88BU02H8HKYIARy1yHUMoLk6mfeHNVIY/mx2umevzK0XqL4jtI8+HbvQXT5sjgs8KblMN6/vezNRUPlps4GZkFPp59EhwpNV+OwFgQtDpQ6fKHQHo/2xUodijQ7wpwXQ0OlV3vQ+MgmChoJJnz0KqSPbezyJ+PgbsTGOLnqi4OXHsLcIets1+lMJ8xLF8JFvH/mIpCB/BkbU4I48OzASNRlT+Orbr0eVIS7AXe+Gew87/696yxoiVTX3WjOJ/QaB/AYJddIah5Exg0JgJRQAvyiIh+h7JyQH6Bs6DAeq1iHXpN9CFNII/feh3ZtxGNIsliiFNg8aIyxyHeDr4gmZioCv0mT1nWpCqC6RiPohP6DdVW1qNtEIuk12oifiskDc+ZZdeRIDoHfZF1kidnG73Rp31NzuKqxfnSPg0fB2/4+gulHy1ihab0cM4hX6putay0Cl2XragOtDJ39QMpoqsgbH3QItLz5ZCsjbl1YqWz6PLdza+QR8w7YcIm4jayvzX6ilymWsEGtPrFcTsBsWE9oU43trFuK3fzWkxS/346g8HO6TGjVGLxooHYB6pJm/HTSM69Tamy7+iXUX79uFQiLWSuYH/ZmfBO7WCz4nDPHvi+Z7vKatrKA7z72M2UxYqvbtbJooZjBudI6lLdDE4FNq4zmP2VFNuOSck1+iuXd+Ky8Mxlqh9XL96lbvkJPaRxyGfZxa0JP+WR+bSZJbAhsPbqgdvO0tqxq7vkSnRHTdf27A7foGv+nnKv1SCTGIA7by/AHESPoRtmHyn43WqG9qTHzhya2Eus3QJe8vAWxuIEEQurqJRKdz9n1zFfJ7WYAFFOrt1sTptbgeXpOVnl6sd+6sHYGIeZaVCl2hqnOzQktPK093+Sz2E7Vjm6dtxo8QaXzaAsZ+JaSEBK++MUyUDuQORyZ1FpF3J2QvJO8d8ErIgYXy2PwjZfEKugTeozclBEWq9tR4/H4asnFH3Ek3LoY/JdTS9st5IUBY91/cKbELF8sN1RC0prEPxUi6wLxx/QmSFuzcbJedr+ek5OV5qugmI4Cn2ROJQaPJHovTw6ZoEDQEIBJqeD/DnHoOk8MQhxu61++k8Y/4qIMBa9Z6RvrX8slANxsrv5Y+xhdDPgw/z3IlXLEBBJ+cUWmosH+3C9liLEg4RUoGydSaeIMd1y+3jbiNEoGvnik3TwPhpt8+65jhdy8VgKsnHh7D0qrmJ4EqDCY5Dv5NgvVtAVINqyls3hkwa2Wa6wFPZTMd5qZ9Z/yvKO/QN17kYjFyM/G5N8AXncLXkzD2Tlh0MPJxHwgQX5cz8KGxGWrQ8a3GCj8rpd8ahkd3od0IZdvmlVQb0WXDDWCppzedZmWAbZAxr2/xozhighR7uLa5fnBQ2LN7AYuu5UeP/JKDEL8R9q/hXLgv9Ig+QkL4Pfe/EIS6tkUEEK2w4gn6SiaHZ2llFdSuvguCqofZ5JN2Jnv0nZ3OGUa41y7rarxK0pv7Eo0mfXT8cq2eR652f7D3toc/UdJWC6VGMlkO1ke2OCxGzxLNC6sLQNQpqmWlEgSbDBpqbtJroJFIPxWBlUhoSN29e8/An3YcaGXR+Ls/X+E9Tl/sOdNwG1naG5EJf2acLdjwiZ6xb7yBAKRyyG/H42AvrJHlNo8uzYat7PwNnKe7o+zxmkawJtXmPeRQI9zRHxg75c5AZK25MsA8ap19420UiYHSuMqWFrkOxetD4Y/zNW6X3ANFA+6ooSl3lLV1btbU6q6akbN2tpeKVaFV1PCdvvR5Ovvif4tn7/6kD3jF9+c52s0ycOvUsyv2FHIVfvC40E4nLdRfkcRd8yZZ6dfy9ov5IY1rvqRX4DIsP3rFNXl1bWAJtpuyV0cqzldNWrXZUqxLfUFVFxctZw4JqV/96x1ge/3cWWQ424jU0gXSgU8YPiPm+5T+g9XEYWJ/pDZ9bNR7LT8u/jCh9rJUnNMJwWD6pWzTp+CDsUhNqsMzs6ydCXSuzeK/xmJ27n4Pcrvc6mOlThdPCqv6IVRtdeRhgZhPaY3Ef+TMlwf/04OKdpQGhUN6cefphzGIoe6Jm5q2AIcAY2c91s+23LvDjCaDXO1KrG+oYOVqHJw0sSO8FPsCB3brYyoRGYbjiEhvDua6USpAyXmsKGpBrl5kv811A0l7y53npHU9oIUwqLbNdMNnfkL/q/VfcJrLbzF51uFvY6iOKsQukm9T3Txgg958n7T0ieeo3RUPo+qDw/1DwneI4NCNI/xYdyfGlsEeDLCuCa1pc3OPfAuYhYIBZIinXoJDIGjgrbU9Dl4wQBQMJonla4uNrwUyjxYEpHBELtySrsy3QvHvn3s54aXwUbu+DxOTbsvQNYP5OA6gsTH9zpAHuK36iSGVYc/OVnXW/aJmGtz6YJ1YP/LqTpi9qHTe014KNmE36tCAuDzTu5+xoK9nBqTA5nBQGQGTmi27KdhhU54Tkl+ZOdCvOgz1zfjzi9USm5+UWzmivmlkq+wTwAADIHiItZUGPTNmFEGnRXRsO+0oWdvkMdYL+2MjXyyemDmNLtQnfDTcUjbLIwnHW0h9pSj8D8NJ7GLjCDLYDfRfBsUzGBNt65e2zA0YVYaTxLIcAwrj5NXLdgJvHcg2y9SM5VAU1/8SzZnt9l5R0ijQmhSRf6kWYOs8v2eg34g/8p51RfN1v7gW19WsSJn260zYPPHj0QfzFVk02gJGN7i51BcZgXl3qKGwA09F9xTkIB0kMBhyxK6DOYJAZxZc/q2IV2HE9iFlx8N9CiHQKDutPP3cFfGtplsuD9S7blqJE4CD6Yur3OkZR8ANWnZ6rj0SpQlNlM6HrDJHsy5SadiIXOGxFM+QEsUOOWOKmwssql+8e4GAwD2uVp6sh7Pg52FQVNCebsVcqjD0U1LjJKFCLf5Mg9RqHXSMKn065AOt57LyOD1i9pcZvKQ7za5MpWRrgQ/9lav4wfeDGXENxhB5jptWs1LMVADsCIMtR1rHTRmu8CjEfG0rNofPfIt7A0ZPhKejol91WCMerQRntUk0bHqS9ULwnRzkwP8ndlDUb4O1B2KILFofbRA/iCbiPB7QiRrEN20vrE/mp3ZF+TqXE9ZxWo32wu1tNc9y7z3/gBGfZvtRbFF9mIE4yU35FY9tQYtt0Dd1TeGcKFL2mLG0nNiV8BRUM7VqPbXTc8OqDihhczUwHmdatbys9ijC1FKDGhfjcwDVdh9ZfLG/jHZZTtIBYSeMaVSRZkQjh9N1cx71ZovAkqssO7ncHPMGNLuxf/vGZkpKzEncwWRLq8KA76TF9jVhoWX0x1FPErE8ceEHI7PxgXLf8oaNk/+Fvpt5xtW9Zy7rTGK9nHzDlVN5eBQgWA0IjruuXHAxHkAQ+FW3LYKxhkKVE1Z6BnzyiRQ6Ce0q9zq+6RwhILm4NbIPt8DG5Mw3cV6V4Mga7MtlszGfFzOgYAG1D+liifr5UspW3WXdC2n4mu1avYciHF7QMYAC5mG1+0Z9iOuxBcUdENsgDvUHvOFEaPW9E/rmuQupX6sEkkPDXkF43Kt4TyImEpV8U5yBr6QE0GP99bRw6ot3RXJviomlyGtrEm9Yi261Pm0rarqrudDO2hUTftuHB3luaTN0VUn0nWj4mQsaCB0Lf3iYstE7qvqB5BCOY4HMMkDJfpP/brFCK8QbF0jLrEIAS8hMiFsWR0wUIUwWy3wJcZobOWIOeWMzSwUFJVsHkYT8Pd3VzrwO9PJQRpPWdEiN0kb9AdM3WvzsIBx6auTWXaimfX6CXB1EYzWRasxV6JYdJBpDIaEw9LDokyZEgwzbeRtl2h8OaKBPNKHvhJv7LSbwka0Snd32mxBo8vEd6ILWlV0BdVc9TJMTXRfrpvV+pkUnNIVua89uVvhbmmNBJX+1wrMl1jxnpxz+9vCD9RZMVgUX1LjE57dxncx+QbZsEt87QiujKhnsCraZ3oTP5ozwRdTDyOKY30rHyT6zLYrjjOQH2fovUE7MmOOM5wKub9JKnKJlhhOWJ7LZWKIXNIahilLrEmQfOhurnt1W9DHJJgxXHPpXNV+ZoZnCkbO2x0W0BJleSK7uSHfeUSI2LBPp3pK4ZuwrmfmoktMwZGhwm+kc/3BugRgc/Dj+vcemDjoxiZ/75AAtTbLAYizzCbWxM10fOSblyyoGTH65QiklEBX179jvlV9XCk/dp/fPtCFZnBrZ6X2Sl0ailGwRiR2xwDIBx0mdR2uVQtyoNxaTXkLZrG32BZc+s1bhUEcM8csgdT852tZb50P3Hlss5JQW8LXIRwysdL9lNLd9x5Y4hjB+fmGQVFTJz/0GtwG4Muyyp1P9zIQz38VVxHQ5czTHXiAL0nrBuCbeKtzp/Q9jmEnLojbjD99Ji8snS3zNi+YjC4Ixp62ZsoTECG6qLZrnN2L5dK5xs/PTUeqaPXHuHICo2rrTEOspE/shNU1CizQ53kaCLAvynlMxXl8hs1aQSTjtvHbEsbTthM0S0VN8+TWFVm9vnvxbEztm8MD70OzjHJJY+5W7i8A5/BlPbwp/JYJYcZUBEkofKdH15CBnr69/psEIMJWkmBmzUt7F3OSsvS2BZ5rF8EDbZ+pX0zGLIrCPC3s+48kZT1pJn0mr4lAzRjJBjd8RyTxiWK6Wo89kcoeZagBPMuR5AnBt0gw2HWT68LM5AUgmJjCJpwI5vnqmV/xLljaSHIQNEzQgJzosEXStDzlcxyzMxQkDHy4DmNLanNTdehJ7G7Moc7Dmfy3crGydn2O/EAXcDYg7hOQL/B2LBOOKY/X+l/n5zwWUYopCCegqbN2u1hQyfH3lhkZh/w3C0iSF/mHLEgu5hWTkouwOHEY7UtCdFtU+GMGCNxRPcf3w3fjCE4EClm+N9fQYqjiwGpL7LtHe8tWqXKLyTzKWH76tKXXJF4k5+crzR/k5uAV7jt4itprQGKkSATmDKS6TNmDuuy+tTr2rsa0gp+vPrHLlUJduP7QtnnTAdtHUqi2OHKMhoVIrm6E5C3xqP1DRuKX7sKCu0eQdZZ9ZKW1t7KUkqhux1XbmrFrQKI97tv6m+ffVQukg6bxf/gW2GWfo2Nh4smoarQJGTHBhcDN+gOAMRsPJhnb+bCVr1GQpZcCF8y5Fjl7sB1KVqi4A+yXuplVQJB6Gt7RT+iOE38WRiXWNVKzVpCIIT3qbcOd4/nKp1OuYdSqljqw+pcYmfw6flhxKrR6pKwuqBOpERzse8iLrHCVvGEzQCTHkoqV0CfCKtyqBvOMSlvUJYQCPsQfRkDvn1K4SvtQmMNqk9NHjNsAjOESylItxxQeymbQJNqjiOuv+ZyCQiwaXa29BZThpCyYDF7+nIl33jrLG1Y9TpxTOkVZqOjyrYSRn7qBQZ614i5WP3LA5/jRqwVX34+5VcBy36pMZ59jDIueFL7HB979UXXtRBWs1yv3DHaPuTcb9/d8wqyJvxMAyz9PVColaNmx8hjZP96gvr1VfPlPnmLF8BWdPDl6aXj0dFaRB5sxTIrb6dzS4Os1o8kNqyclGpGmu55aXJsLfubGaIYIaoUP09Ym8eSpGUMWITolnRz9HVsyWQ3O2QClgQ5hgo0iSyYWYmnPj6IaRTLz1U9DbMwNlvJZRZPl6TJ6sUw/1HGWHr84/Ze2AgJq1pxt0Pu7guo+P1ZjPGh5LNQKnLEwjJzWriez8576P9hp81fGTBjn536TR8q5vjELJncX8OjFF/Vz9wIk/SpFStlerWE0Vx2M6whVPmclRAvmfpXjIZKnEHth3Ein286BsLS3zTbAhkfUTQi2QynnHOwQTFXZKiCTGQf1Q/NtwdWWUNR3qj67TF/dNnoWvgijmLAPGY11MFK1LD/RE4Em+WzwPUZjrmfVVVILwkfh8P3jrCxvYtt3rPAezcOVIuQ5sfhDlEdu8BAJWiWVcc8aiAKv8eOFKdBuHBQhLlI8uoBg2yTDh9C+m0DG7z+Qsw3Lb7xjEaTZaZBYRMQNbqcdnsluoHuEecvfajBwOpQVBU3FOH7JqWdm2qZdj92NSeSgbttXe4arc+HkVybyoGWQasOOm20+D5Y+BMrE7Kb2nA+XGcSFusB8sudZu09snyz7Cq7I1KO1bHckNP6z/Ycb4PsKZML/4OsUGrR7boDqYEu0yCOBs7bRsQGORUi6pbno+1jLUFIQTsgcFsyO/pumMMffxYjGf6rCr2JNjslpyKwSS78Kmb8KK81ClHGzPkc4yo5C4hLDBXvEtqb2FBqeEYQb18R9HFIUsGoyetcVv6R5rBo+eEtrRS2RRdzjddSlaRVNYMMDsvZ+I+Ac23BmOStKoF0y4Siz8ks5jAoKiMFRo1nGcdndyO5i5O18RvqWU/UfcrQX+bRBPRL3/poPIfekaBXEyH9pUWfdn0te54YbEmvVoG1vI1tsgA5NXyusPX9O3Y7/eJyY6mj4Yakb7IqkEfFuoTQuK1g0ZeTVi5EAV2Qy0ebAlKVQcpUsdWlJhZ92Oyttk0SK09XU66lcp3TTFuIiBJyyytTDRcdR4Li5riGhIDWN5TJfF1CZ/sXKxD1ahMGfWLoIh1ZzrC+24L2iMNzj2LqtRVqXTC/0O2eJqs8F1pkqnjfNIHZNvMUwfgRmJjML+Q8b7bNa2EIR4zMLTpQjHHh59iCYsfjefckd5wptCjlG9UXT1qHG27QLM211I3jiz/oN0v12EPwDx4mv9WZlStZm2MR98ugr9z9ciP+Rwzvb3mMmfaJVWj3Ux4uGu4CS5X2rDV3DidJCG6no+e0SeXKAsBV2oZUXQB8APYeXFWRyTgEc7TH+3nVV4IHdAYg2+mvmSn+oizU1fXP7Pk/Z20OPo+o3RFjHJBDQD4tLGLv2EOr1H2lboC2Ur0sR5hgFPpNOXcvCf42jZVwv/VieNsZzhMr6eDbHz9ZizWIVHIHTEuSTBn6tDZVTo95cmpnabjEqOFAU1C8Y1luoJD/FTYlMsn9otqt9zACb9L6OdtrYEfvmmjk9eXmem7VNtT3EvHL+uj2QzOp2vDwdQPIDHNoAl5q6O+3qO82/vMuQSMguQJ3mhN4OfP7mCSgXeg/rh3uivt3RJO3LVH/JSAGkcwslW6j9rf///AOd0VDqF8Tq7TTs3xni6AR/+FcDxEI0uG+YBKLLm7RNubQRIvJcEvs3YKEuoScm69IT+L8sewsq0dTVvMyDRUN8xMspjeW+s22g1zu7VOIvmbVn0+dn77RmeabpwJwLZnCkJDp6p9W24U75naULIjXfB1GaZrvu4bYMQQs6X1qajQ6jtDDaL88nYuBGUfrglsnCXi23iJj5cHKZQx2J45gXxUs8iRIDr0vSSJSzKy0glD6n3nXe9fiD0wt/eYA88XrSKrZVhoVVBimigQXHUh5w+Q598d46fJPeDgyaUOOcqr0DHpUtFm3It9Lj4fi207Cx1V+dFeYu8uueAipQpcXhMidX/TweG/haPW61cQ+/h20vkZ4lFANEmMbCdj9YGcVFy/9gbHBQp7VlOWnv00SNCNxjJidNuDpi8SjzWv4M8K5a9p3mQjSjv9ROaFygTYTPneSwNpfW5NL9/87cbiXbofClxA0K8wKdkbQVlQ7HAVIFEVfFwRUzKqk7jEcZxlfXZabkuYMcD9KV+HbysiwLbDTt2wQZrcWcwhixMcJxYRPb18A76z+CwfoKUsoRa0UORQek6wqQa+941DjgIgyTr9HzvJYuFyK6Vb2cwIKgDjspW6VOxzVKt7fyJfVOFUgAAokFr72qv7+5AwemcLRS9VGkwuHjSZd0uSWmvApkFWabqJDT8NCA7p63f66mKvQyn86p5kNsaV++rnWhoKI7nuJxhQAiLrSNFE4TRyR2XXvD/sokj5dkXgEm+NjhW7TeYpzFqHs0QD4qsV5TgbyC50hLjd9Ukh/sxX5aPb2FALXf7U7BiDTSOwfggLMfeiwU6fKN3u6fLvjepN+ZwavCSNS9sR2qrIp08tRpVfWGudWI8h7X/Y402XA7hviJyIXIw0hC7R4w4yISqDk2t5ViMR+yLarpRFtMIOmlnJaHo1XzpcUtUd/eDzY9HEXYUpN7mPw8iP2T0TgazzichN/vbkLCPbBFEH/3NAQvTxN+1DrsjSOPtO2fYgP6vPTL61dyPASL/kkKBHVzOABXRCjvdi3GbKz2n0TiRarQgBiUTyKGVrimCvEJ2y9Ep6RcGdIp6SW1aYTBhK0u/QAchzsht3OwEcbkxLFaoDN0fyTJ5yiFeTC7oN7lU73zl8+8e97TW9RyRTOX8wbCO7oheSYcqPWewnXg+482bQnGiYQav9jeNWylr9aIWKiDRU6K+yAIkQ4x1Fx4oNwSvidsn6K3d1uW+gwK6MXFiUvp20ZfmdCr2G72TITx5NeWLyRtpD4AAZl98YdCcT4+2FhS92JhqqdrWb2HG6hEXry7mi4a3hgBd+Tn4onIGdq8khKdJT6Ry609i7d9mTgaVme/nz3qbDZQbAMOXV9Fk0zX18y6usuaQyA8QMfcOWyHvbY+5AtE/k3sqgAvzNXfDw23nx85EPfFrJbwouItJC3TRHkm3YSUU1QQkrCdWR7dQBK9jWw+R9OajD3x4JqN4RQtS3ClxNwA1ZqK2DzV7AJu3UUR1XVx+c9lhLmqVVOiqFdQp7cGALp1cUOhRkUXYSHxTQeqin6nIBCBoeNKhN9sniYvKAyJ+HIDPgMrhhHJ0kW8o3F3GHz37MxLAsuXJ4r5aPReiUzP3PzwV1xWkw5a3qxiRvrCMN03vCTtWCazfk8kunZhBmy9pcrx8BV8r728VxtCg+ou/ymiTtfLivkXotWzg8BFTgv8iBQ+EPO4Cz2z6BaBNJdS3qNXsCg0UAnNF2WXx1YrokueEgGIbPSCqjt/ZphyiwK/OzEbs2eJOEXKAOch+hiocJrFoy0FGZRvbC19dG3ppzcoCVTND9aQ8pbAtUvrxthBgR024mAMnSPafbjhlK0/gqrIiNmnQ01CEvXcaAaizkxEtMgSkRNW93cVe2E0bb5yRtMkfo7F5N6tyI9XmbhB7KRSJKjHDZGEFaNUZxTelkFKZfQk3sayA7Wdg6dnCGfAJZGYFeqLJt9rt4xWCRzzhL39IrMutwka4OjhHfSqYVyMnmLEjgLoXCX4No0Tdg0jJx4oV5k4hpLptd51/sbhZ/x+VCWm0j8aJdN8JqVqxRO2Dp1xY4L7TyHgEKtgOP0SC/G4BMUfvZbKz1XZuErl1iQVFZOe1nzkYVFS8Or5qaI527nXjzqoZqeupoz4jdblk3l+3JKAxDSBjgWxh/aeHktK0jai1QVkESMMtD9RKKvJFtJz8uz7aR4LUUjC+SIQxNXCbMGWs4G3TiYFAFW6d45+13dfKFquIyi2tWAICGntkKoQiqizmMbfg9waWs0oneIZ7ADvaCg7eypSyfVmPifd74ndbMqweKsCPos8L7JJAAbQa83CP0+eU2D5956fdeXFnO/dET99Bma0gcSvA8ZQSP1ZGrT3Q8MH5xivjJmIyZdL+nBEuwQK5/VjOvjWvFlkEZvh1d4Wk9BETiUJD9t1wAFrfCgo2+WZw6wufazVwnYL3NHiPliMEOiTqx/e0GIeJNfC5tNFSlQ1KBl1X+ro0esyVA8fahPgfvrhU+wSX7wLq5LhLcB411upE6aDr07Bko8p4SvHQJ4DD06qRMllBhfPvZceLU+V5P+uhDqT86wezZFlrfpN3/J6jOHTRlzzLt/agcxATLedNTza9tqswZ1QW3Cd/iXa6SrowAB/fjT1G0NV+KF+9hnE38kUMDbLPG4/ZayXjxGM1mHYhfUO/SSdSdtxyMyncSE1TTjZUs5D+6xDQuIEsPtpIwnvnRKPFQYortcMaT6R8F1iSTkH/sUn+Uhq662N+B1pZx2ODRpuWS42zUfO5hR8ExIiFuf8GByI9EZyBvMB/BXklyhfpdW3Ar+yU3VhbXx4ArY197lj7Xh9z0R9KfagbVMIJ3Z9hfIZsvht4k1PXFfaYaI3b0nqud6Kx6as0hcPu/2lJOGPuXOuX/dOmX0iZ/9ThRVfN7hhCZeMfAYvoRFTW1As5LZDrGNC7P817TTsUGUSueHY7j9XfUIPOomzeqCe57MFYly1Td3ye9vQdgN23KVdlI35dyPpYZ26yTcOY+a4QsZb3c+Vyz6nfngBpJUZrJ0CBwCg8PQJtdFVMQI7pHICOBlAO0YsguPtoOUWVwtPeMljLX1i2xSevamj8ATSluTxGnqUvT6yzXrLzX0QfkFS6GhB+RA76aUgekMmiG/rG/hhWGXgOAgHaw0RJM8+cAiT0ZzCcfYfVpbLPe68M1qnkMCCfKDugOOz+JW0kEcjcKkG2qZg9fuWi18WTavaBZmwAfcTALtR33eBi3BB/DUPF14PTAIWckW9U+EdtoEitp+/cgvFJRwD58zDIbKRhnJxOGWhjpZEE04f+m6dGc+topJ7hTGS1JV7PBYUxuxqQ5ikNKn425FyeQBvOUrLPNFN5mztPb4x9XL2hhSbEWhEAi1csajAQy1ko622zwUZ5jar8AGy/1zHhPCCjtPvtwyynTYDgyfbRDGGGcogOZ1UveuiHK4IXyw6RYA52JN4nCOG9l6ZS19eckeEsYjTXqX9x671xubHIVyDsfiWjmYIlzOwSU2zcUkKNvzajIalPefxKi3T2fxuKLOINE5uTRRcopGi+gA/D6WHUBi9kirRhu3CZ8kZTGfP78/ogBdw5GRdzH2Y/B0z2NivaAzFZ7Ixb7ms2FSmZZ08/nKIaRZk/MA6Nu7L/m/gTiSL3yPhI+tyq4HmVFoGM3bfAS2sByPXG7+8ltRGXtlUO/JOYL0P7ZGLQNFtslfMjP4SPO3cPEohC+aaJ0QcL/CoXLEhgeWKAlPdMQV3REynz6hL8o3wzcEyepRjQyoDk1Qva6mpGD+lr7NHeAxgnXXv2xopMebwHKGzIMjen9fJWkV90D0kCn247MAmFyVxxKZhG8hQikx2UFHVgjx5N4DfcKUniN+91GWW561o+g5JAlNZPW/pGkyzFSc42iLNVxrhC/uJdWqzPR4Qu1rB43zCsBdKniJRbUZOaCVI9SdCuqmSMwKv5+ym6rFx292Lp7N5WtGSiMpc3AcmvITK3++IxSe+/waiDHDCHaJYwnvpVH6TJMTfCFFsy2zksuVPeGZzPl4SzB+UP5G+SEZw9zGUcLHpU86vD9FjTIXzBHBUGzL+8ZbCzpUzkykmbVJINTjF2n/GSVspt3lM8FptKadTU9sxt7eLlE1ThRjoNNgbE+lMkhUIHbXDZlmSFqqe4vb1aw+zxD8Lx2YUbgfHY4OtpGwpNfQY7UeHInK6Co3tXC4+IwSYVxU/anG6s1FAhtq5XQDFaSwq+ERmOxj0VT23TgoTCvDsSpiQ84kqkuNVmLSNR5SDg/q24/NWJioomFUvXN3RadxZEkJexX63G5fWJT3lFLwgcrwIeQldmzzI7LWo/fN6dFSKGT3xhBon/7+ILZcRqS1BYzKW5z4MDmLis7XmLcp3j0v2aKOyxPv6KKuZFFzUcAF2FcaxxCBBZci0gCDoqNB71kNWllGJVzP2F+tS55wlO4g4PjnVTLa9QeoJMhYKKYrJ8uzPMH7yfIagJ2ckiK0J+OvHx9CSiqQB578Xr5yBARhH6kE9ximA5WriOPKB+OcwSKcmVoj73xdjg5PQqJn6rD+clM8iA+hsKZFNkWYmH4cU1OZE98e9ok5mnYJglZBaa1JRy7fjcYMqiv5lVs4pMR9Pws9NOMuFpI/+emQZ543Ek4UuIjqgM+/6l4jPfvpEr2zISpKIflTJbgzWPjhPSCxdHg8eO6EDEWIIBsLXeLkWKkp4rFanlGsfoe+s64vaI/sv5f04m0mhSEeQkoh5AmrOzIfd93WhEIxz5WCdAIDk9/nNkisYtdT4MqjDFStExGFy1neWCmv52kQdHJEA7XVMwRLM/IZmsnwz8rBpbjOljBUxGsZ2Bmujn0xOgXDwkzaEKOKs1ZE2mIzvia0t5XP5dR6s7KpwFr42v7oRJLS3Xr/DGX0Y1T/OjQoOOVkoTFwzV+PB9GVXOyN7esU13vu3FKQnvLzmloOGeHxd7L+7ge+DO14SVAZ041vIq4bMK9MFfe+X91uJd3dLwCp4kXEQs+9gf9E4jakZX2wWY6dsU1myRBG6p97DL9nPcHRTp1us/2nTHSrLkh3fLmeJrAHx9OBn7R+GT8f1YBYkBdNmAhm51zwClmZcjt0BM4yl6926ueKPZdDBqYVTFXU4IXuB4lodYidEwdUYvJzP2IyR1fdgX2asE5cRRDDXNvPgB51M9Fv63UK1++kwhXRp2/XznidIVA5WOWEB6as4OuLE391UqOlUZzRRYeKefyt71Yn00iVbV1k4ScpxmckyDcJtfXW5RrdHN+G/nt67s5I1y9BzN6NMgSQgzXDiOd4mWcS5lXSbIiS4OTKUwEIBtRNXyyZ6rBw9bEvYIZ6hygVCjirxjWHGEDNwwc//8R39SyEnqEBHvSzTCmU5+yU7aXRwJWyRHSbku2bCV9YfcBD8MI70nGc2lLuyencwtlKVAF6+K4T6lAuTK03mptMPm3Js+DOSP/fHFoCrUkoz51o0VApbGwEI8PJ39SLLFYTC/FM/smssw6LOoa1YH7GXReHDrNwP2eXLLIr7OKKXjzShuPrUCR0e275+x37q1lh4Zujw+RdeLvhuOFn7EwD/qO7zixNkmHem1g+EI2emKrHUXyGCHuvAfozvUkCRpYNqdv7ixBe2qcQKPPnt1X7c8LyLcVGx5aAJuts4jDVkJoc+zeYsjo/ebcJhT4Yb7dYqeusS0i0LfF0ihilDRA37tvr7RJ0NDeavISt1Curbvp7Qc/nxA6ZVI3to3XOwS4drbFFCw6m4aMdBo5te3fCiK3FqUo7Zcm0PnfHUWVooVJAxqewMkAVcvNqPSrMKMTpYTWqsdIu/il5LQDoGF4OVkzxpnCEX9tkvyiAT/arEeR9TbStMNTG3cjCLR1STHdv4jtw/nyuiOBBV81dc9xZ12mW4Kbr3YU7DH1jyPKqx64bwXOdcWxq4Oxf+/fptjdLyawwd5EldKDqqHZin/i8PstzrKlPUTiJf7RXftzxivoIwi0fUCTjksaf5Tbr24w5n2tbzTWO4QH4XHvHFRgJkiauLkm+u4AgWyuT4e/sxfzSDamY6D6xPKlwQV8WZAoVzoIHJU7TUjPN7Q3laaFK+0c/2LOWiN1odtZB/SAIEc1E/EGvGoEMX1U8ZMOOrwTvmjapES1KlwFupcV1vFxdJ152CRDOj92s05XMeC2kVKJ2N78IYlkwy3DEkPY9c4/A8cELWrdv4ZTxMWfyhIsK8qQ7Qqwot1ys1d3pUSgCCPo0psDFfW3QjSTsgHRWMvbKhrBCk0BKW2b6263X2kFwlZMZ/yac1Xx3Gu/N2k3R33ajbJceyNXiVQLQPTuRNL/wk/OVLbnTEBS7WHy9qRrMDXAnEVTQDyqEIIEDeew6JiRbuY4h9ZD51N5nc9/nfVvlm/mjdXMmmUNQJspHex+CF67stre+YtMDNNf9rP8zz/84RRQRn1Ll7/NCF/3iD1hzRCudv3Pk0jxwUTLr2erGHH6xg91Rh/Rnvo6EhsjWmTfysI62B72SIGMnYY8ibVCsX5m2/IqCZB1HNosDQxjZ6WnR2qVa+2+WyTh3lGaF3uOeEtgP/j1g9+D3MGB4u1dws9gLMo/hlz3pYgyV1yAFfJFaroPFwMCiW5FrU/Y3IiqGMDhbJTcL8RpM7Rig9Deahyb23obYmBPrSlcq+gwBFqWb0X0wAeVP1srDzaGlTYGSL3in5yDyufNbVO/JUWqAxEnM7hBw/iNNZA2KN4mQ6DLHDoFsN9WG0P3wQhA/s9YViG7zz/bXce+HhGpLIb/kWHyfsPywgBu+SwhxyC54Rprfgq1w1HzusYidb4GE6Yja40/gLMPa/Db3vpjcfb2p/pGbtAJKRPPxmmKRfDIgtgy3j19m6BS+RNuJjPWTiD3DhL13egNly3OehP9YKE2bBUAq/4oWqXgh+5t3xOSbLZR7uraQUVUbJ6EwK2wzJT9hpFwKHV6gDN7yrgjtpoWoY1Z8yeFrcGUM0H57WsdF+iIEsUoTr994vLa2xWX3MPnIJ/D7Oo3qB8qGh2yCcJXmbMBf9QMCkauaVNpJ1X9ZjFSxN0mA5B1n0/0nQP5OL/zK9I1wVQQHUteH6gB9ZztFaNAvPvIKGJslxZwKzpDFIWF/VWl06D5p9drOf4dev53CVaefd+M3/2CuIn5f5Zc/Guq91i6w+ivvW1LEhO7l1wCqvkFu/9Kquyoti2vYOxUQl73SW1J+b9T7cIOX9CxsnFPhzrXiSH/46XchpxHhl6am4Amxq7OHPJu3FWe+2BqZwFTRE7j90/Py4DTFY3jOmpI8POcPlrQxik9BOHRxsLkCpI2dfQ2U8yLaIwYcKk5rebNckDuLtHeKdtXNMVIi8u1NFQI/WJdTghnAgF5KnrN3rYUGk4Sufw6xsOAqjE5VWIffoj3rirhjxj94cu9PEy8tYHYEp5MmeO82N2xYwRD8VLn8sk3qAAldxMZ7iMKo/7TurY6ocJPimugVVO5qLTA+TYTKQOJ5M+FXAnpbZvlCtdTe5H2GnBw01lr3hbr2AJDEzny/+sCM4ay6EX6JCYPybeSZ44hA1/GwEXGfxUZCpDGmxIyipYa4Ufi+vy6vaLxfMwiwjdR7uUSaQ9cEfM/iV9cSqyJDqUYhaBHcEzBTqhz22HCzhFKbEuhpv6jM/cjDuW/W9VHde3/4ZY00M5OI4ZtJA1w8Rq6SSwndW68PiiLiHPhuxgJc6nF6+m7xu7nhQem4umy8zcaBt1pgCZ3zFWVrhi3EauMT5LTzBXylrVXbvaQndHAa8lMFq+yG45la9vCw63xVMADdbXYgMOHYPh93Am5ycnZTMJOCx09ghenxCXSxRNrL5ez6PDXMhxbkfTxdgWFrhSXWXjg7rbZIDbU6hBbBK0vS/cu2R09OdROjax6FZO2s/Ouvn14LVwXu166IKFJhwxg5tS4KPJXKp4SUw7H3BMMK8zlS+d3reGk+cjeyEzDLiyhLwj25lsdWC0y3vKHcsyrvD8pyCwke6d7lM1Rkr9IpiGZ9+Wyy4olV6A7le2xfmyRQYfxpHFJ8wdNobTChImRINZ/unQZ6ycUCSZ+3hBpP6h2g5HCYt+oXp5bDs50NU1CseKVwcwpoy2CiqkqGtuYLmc5kHg8rYbujiErxcBnTmo1cRQrKRZT589PfRoX7tsayOdAORmgY9Ye445NfyHF4/EPkU2CGvGj7esBIT6unF11tM2HdKZ6/ItQkehcV5pJhJlgJsV4UuQzYFYAFsbWaLmMEaj4sPV+GhlLhLAM13ZGe18bKkguqZMvxDYdvloygpSPQliqNZ4LwkB2dnPWOgom5LFOa0VXgGhR/ijgwX0UsN7rY9ouelvxhqyU7DWav7iVZtyWZHeXF3EG5w2QbasNRARraGOtiDCwjZNHnqKLLjjCUlVN6BXub4ZUzHqTKhUekr6AMkFelvF/p/Oea2cmlYOcQXOzIFVJ20YWoep39SYznorC3DQ3G2JwXXQ91T10LM6j4wT3CNgAiZ9MOlQ7h5SSlIj+DdD1pYLFD6DLIzGbbtoQCJoKuJfQEEyhXQU6xlfkXG9AEZ4lFHT/7r/CDyCCmbYYhWkYTH3w/zvW8flmKYD7zsCsu5Lspf69NQ6FRgqiIt8AS9EXscSTAoJPIlwrif1VoTe5sUNg172SEPi2dPPa06AHIwXtLqZz08BRUcYLKt+01q3w5uwgBKFGqwb8vi9kK+yxldFQJgnQ/CA2Sfvgri1ALAOf+BQmt/fEwjwAO83JbrNTHcw0HTFJe33GPQ99nDbgFZ9TwhsldgFeCrUFa7e7rfnSVpmPlg/Q1I6OcvWBk50fUgi37efDFkmXZEbzokb9OmPWostUipiA82gzESppK9bWV/F+rI1DE6oErUqRjJsa1ovJx7ofr5NFbNcl7qmck16Awq1c/Y48yrKz3qLWGzz0IB2qfgc0l7wbj/3pXVrEx+L5fRPmOlQtK5idi6ct8qkPu65lcoMo+S4mVPu2nTg3ImnpnldHSNk+83tI3nJVUDZSkGKxIUlnNlv4fDBXxCRLcA4kssPcxyTve9Z4EZ9Qc0X63SrcFC/8MjVxeg9+wHCLEUxV24Uqw+hMoztXPM2lFSaGgsvLZ1hA1A2RttEg4ZlgNpX6xxftsb0BJJ/NrVLf1M1+u14gRu2ytu7rNUvelQVwiL7m3WAFxuYYRnUxj/Yw3GX4GNdyqTEQpnEh+VyQ+9nm4/CMxzSYjJnVeatSd/S8GzmM0M5YP+PZKj18Y7TFokx7pQrIYdpVdr+jmyinTzNQapzD5n8CqQYbVHnurHG/0IQuXqvowI47KHhdiKlkSPra+qQE13MWzt0zyHarXA/DJhgNAdVr+QkFOo4nevaNS498zR4rLBj+xFcMUcRjgQqB/tIvx205KwCCQ+PRMoV/Vu9ocB9n0IabKn1/5ckGehOVBlC+g6re7H8rgFegepulq6aKGiIwm+hDSGKzrsYJzPO6YPKcCjeisNgaRUM9c0uaiX3AUo5/+Pb06ifCt3eJJaNOL6mmPA9mr2kDM3lroxjhxQqlfnrNkObr928c0/R2QEReoTh2MV7OSYduYfnV3J2+rVOdQdL1gqfxrwZnrIi6g0aNo5lJlVd2uXRobF8MSfdqwiUwzzl6RH64DolsdrdPon13tOWxtBw2OWeNGT5Qt7MkbEA80WQOLQc57JpVBRxgXiaeNrYiDfAGrBSM1TDECq9nmr46c4JczXDUOfJaroc4cqAYmJ00CjDXfFpoftAvGkrUby4fjZZuZaQ+F4VOJjNDZUYgdujHjDbeVxIxxbveb86hbvQz17T4vUj5EI5uOsW5xoU37I0BzPWFRBI50GSdvg+G/eYrCUvcoZLfPFusDtY/QayTjFwMIDaIiefd6mBNhCWpdPoTq3rz0t2XFjDBo6F56sQxmTnEYCpzU3glObcCOTIvssTFeNO2CQgaN8u8UDqdrn38u8sBFyx24P13T1bFAVx+wiO538cmBatSl63tdxlJXrT09ubJFQ3QbibuKy7COwl8pF0HasVzyP+LMeVvFTeYMenjTF1/55pwZ8gGuqmJij0gZJMq3i2+B7GaMwK9jKxntGpOjSLj4XicX2mri6L0XWDdjvvFtWklnC81pH1Au6zxeYNvJccy7XsK//wAbbNDkGo1HYi7OYc3FBMuNpfkbbeMieQieKJtW18yrzeCW9xbSShBsGkw2GF5lI+XJERS+4atZUoMgyTwsvzJreNhGgTC1dK5L+W+YWbDcrGLnI3vzKmo3BxuuP+LlRftIbYFkVxOpAw+97+wlhu5ds9/BOtn9jeMEo9JJWvVP2vl6jk5pJ8g44jqLythoYaxQQG472Y6YiEa6G+DllpbKCsxTdUAHJKK8qnHH+8gwrF+HmAQ4dYiA/OehinhvEsE5YX1s0wQglAFG/lbvBo3LEkC510Q/ib65HVDEYh3V5nqZoUJht17aHfFsoYAqisavA1XwgGjCxjcPtZs38zIH0BrO29LOjtmtYTjlUDbgvxGPFuQkbECIMdvL/aiHaKjW82Bj+6yxfyp6PkIDB1+0VyML+GEZQnfCHShiLw1E+vYjkfvryY/xitqjhxHI+uLeGzhK3Dfz91J2uUjiATELfc8hv6EwE3Wgc42EGah++6g2VhLAykBAeLpBZvRqRzKMl9VbzF4d4pp7z3UhW0GMQGQD5lrFVE5/FdonzGqnVaXJES+qKZBqWTl2hX4sMAKYszXiPiYDIpxBbFPIN7W30y10F/38FeBBaP+qeAr/MYx2W3tNlDIqmv46YttgS51SLG8jhR1eAx8SMLaaoV7CdCBl+CDk4/J92OkPRc6XhBVjQWXSgy1zCPpdcqzF/WZJ2dYs+MfZ8Z6PA2PkIyoXJRVrZKPR9Y48nMuF087borFu4vNKpMiWpbgygKag01sZTdBhXpEnTNTGASCBDOUGd73nmCf86gdkBAsMWSfMQ3VF0V0TNB03tiPtLHpAQdw/KGhTDTxWAL4pIQq2R7tQtmRM6gN0vF7Ka7epUjHH/XtzSV8q40/dCCQQW7wcJrf7/ykco+cjgis4wITJND8Xce/Q9y79RjWw9H/Vc9FJNAr4WT3uihiqsccTXnpSmfUEvrJWn+03Lx2s9hfDn9Dpi483XHl+NpJ/YOyPB/zArcpN8dHYNIW6VQLjswpKODK7JHmAEV5nb1P1/ZaQT1BW0e1NsruXoVAoFCDzpYoqYkYslpQXhTSA1Ugw3dHNenZ89ATFbqLdXr09xrz/Oi1h0PFwNzm+o1Rb3UYSnV/ZQCUwmQWn8vFN5XLFr3zEr1bpDqQEeGQ1QpOAUCso8i1xpfjMhBPU/BD3nyxOdjxmLSBP1JBr55spiKAEaTX/Aj+RwR2LSnPaQj+HMGveyqh942kIhPntHI8lopVN3xnrAZQ/AkSt7bGlchsVAlGt1g9Vl6LXu3G0oq6cInt8m7Yp5IDeAk9uNRtCV1wrUDWjmYwPXzp5Pu0ruMJbsSlz5oSOnWXQaOFfpQ2SlC8lCSmj++kfE1vJ8ayN5y5Hgq/mK/1mcvbF3QZNK48xyPlr1JxPQmKUeI7JVND7ZY96YBd6oqc86yKXZXcJW8PBwbCr7jZdvoyjXJZ7ukZuPoGTjk3ElLP36Xv202bScAzYYC6VydgfRvWPOhaoJdpjr4DPxeOOkaXkV1gCVZMhouuewaRBZV26EzfNybHe3QNegNK2Pe7ScRy9cRsR+eojYUM+obzA5+RXa9lwseLHHAAOcM/1MMcC+AgnVQaLu27WRktJetnyq/yN9ohrjx0WELj7WO69YlJsHze2wwC4LdqAr9sXJw2QpSzJJudMJQpVUm5bcgD/TbsGaZZ2WALPWvhPCDuIP8nwShrUTY95kwCecEFJVAqauvce+vfgciruRhZXZ0YMjTSCfQVC+iaG8nr5wPR3R0dxePCNeNq0WhQMZbko6Ndyy2Cz1mkJIzfdzD7BPwXjsxAKuWv7aM4caIkbf0yx+ZcqCyx9eye+NgEqBNtaGLIr4jq2Lg51nV49CnnwFS2Xx8jb+FPoTwfxUfRtUa9mNa3jEprHSMhLul+c/sFWk9aG7r2B24CEzHGVkJ9l36mv2aqcKU62DBmOe0WLqRIfECWjqDP5Wh2PG4MlKUpwgg5cjJgq6Wxy1Vw/HEIn39GpRCsLoiRj9f//rERdmDPWvdCbaekT+0BKplRuGtJ1bu2wdevGWnFKU/KRBtdqIiPvFNlYILW0BtjdqE3J04PTZhpkvBIX5BnunSBUoYuEO5SBSIXiesw3/3b4ixeygyA9+bz4Z9Sc9bBJvwcJo1tdWMIzWaB/5tIqNV21Ungw4g0knOM+LyMacmaXuHqwX3Hk/ped0euYoHFOPRSgHxTANynMv791iUoFrahVyZbme0rNkhznTPGVxkS14gX4GZsbh0N6E+tbBK6SGta0SZfAHYpfe2acWNb6ZQa736Ctsqd7jHA/BG0ksBhQOP0bY84Ti209weFs98O8myCGMjNamT4cRrCoxqxpTAJtQLyICh2k0oNLKf6OCCTR2zMeRJGiiHjH5n20EURW9q6WiycD1oUP9n0/GRQbZTEUz4cUzIF7nzGwYXmX9+vnPDiou5BLsr+8eqNOyfk0UF6XNCH0iV6sLTizVdBdxca7wUHlqFEgg4po0+UIoKJuZDwJlVx/VEge5Ul2cMPMBE7POYQ4p5N2pHiVzAJgu+VY57Akh5zyrFex9sJjuYSU5y6rwtydN9aLTgHPiD8lC7WP4eQHiv/6qmUKzh64Rpe0YgP0cpCftGrt6QBcidjBAD+wdGsT3X/oVehkhod5BUtVbSnYt4GK3/1HgGkr/kfAP10r5sw9fbKVCwGrO6/n1tvcSYm2uAZ3lqajM/gfN+pyXkI96ETb7/FrwyRuVUgz7QcSYpKOfJLi1q+wW6JLi1C8sPGeXYY2Mzm4g9llClhdL0f0WeZkG79Ifq3LEou08O61q/zMOKGh1ssqLEKTdLWpKDp4cWxVxsy30FgdRb4ZfWsW/Zrj0qCi0RYXofMaICOirsE+wZ1MBdCHimRgNKXRezBBs9tevaq5Z9gdJu/dg58AIdAIk+vdD2xgpYP8TPSezw4crWcH0GsmiENNTuhHXptK9vmIJK5ZBKjosLlivi5XyhdthN+ahPzsjZAp8krPWeyCSW90qoSArZJS/jc4mla7FRRTQO6tLK4wHe+EY8jJ6ct8/Ayx14DPwehgZ2w1pAdb8nSxUkreyfrtb0/1FFO7xLhzXu/LNtK/cW4BTx1zZy7oXV5v/6tIqTuuvjWegYRp/npMwjk9YC/ZP7XrImeZbQM5ZUiR0zht8ykyRZ/bnqCePDepJpdSWewJuVwXCZENLsqTCmA8YuWXdw4nwWnHevdh/DKCJ3paiMCUbw+3EAtZdYzt+mT+ZI8wBKWN97MQ5J2+eT9ZYIgjaDsPm8+8+HOR8T0mAOag0w0/tJQz3dDlaDjk6f/mvWRvwz4f2TxUXlNcY2HdXwYJnLwddpR+X1kX9h1c7fSRmPhsADqwGjx7XhA6R5BB6kxuQj+c5nwaIwekmnqrv5Z52qaEeIWzhJ7RFIHarGw0pdHAU1seh9UXBPnYfF+1Hw1HgB4pb81CKw8y0VhGhgmKYwXH0BB2x5/ydIuS1xFQ85yTCugLdW/ELz9W5jZ6w8zUvYwssF/IIdQjx0N6sDZvKDKY5yIVENVz5WCPSypDoXzLPrgb7rslAUb80Pc2wEgqlhRI39rAfs6zdnxBwRMVSzE6hleR2O0agzHnmgVaqMAXiEL3ZBnYE1V9ThQEevKT/SczZ3zmAtRFaxGHicuL96d/BhQMmmvXCyWFa+uxJ6p+HnXx3yLNDJeiFqlWTh+BzeRY+7h6EiDFbrnxwYcgY5bVN4va8tzOu7Jo9Qor02UD7NexKECdFMXRlRkICma2AqqhhAy9n+wFpkRpgSRq/aY0xUvmj/W6oh5peDG6f3HbTzJCqrqqU2eS2hUgPs2Kv4MU6aGkQedMDqvrN1qevHCN5w12D/8AP6+8ZeHRQJD4QbpHOpRqA0hco6bflxxnkk9BcCqTYrojOLcT1MZYMcUrI4dEQgOujd5o8ADuNDCNxu1/FvWq6Zy4hROLcxktapOdxU7dKRwJdfJKUmKvn9ecmkFuzbH5kyrPV2pNSfOV2Hgx5nD0i6G7Jv6rbNVboCMUWkTknMUagEgbDUQaslDlgT28lHvhYkfpWaY6mNPWIGfcIaGVQ3UU6l/RshAzt+cOzNK3j1aAnkisOBAVgS8+52/iiXrp3NFjwr37D/m48HGtOdzsEBWy/JXnM9wTB832FrEcUb2gwIBKU5tM8TIttwt4BINHp8OXuDdYki9u5sEb5nOTCMcHqtbwHoNeBkymf4l4vqHuTDQdEYmkd11XwJ2sjS8WnTS/HRt2CUV4ujyqrGeZMAdrc8SWP7Ndtne1MrF+4X+lUask23Cus+PMaPjpdrejqtBpdLL6GhQIedtCsCS3VlS2S7CmmhLd2NU976n89BaqlQOf3rtp6095nAAZq0+FE915FMd/3/TTw0tTGB0yItS/h96PBqhDmA0qa0Z2I51sB22XCfdXzk2gBHOCsOizNfS/M1ky8NIZ+FbXJWoAX7r2uB9TMX7MP4YZA7XlIvo3of+E+7v/UnEoSvaCONsZt3PRQFV0MtuAp27hm89q3/vzDdOBFDvHkxHL58xwbLQ3O++X0OBTsL1FN8I/9VWnLzkYewhiVUBQvQuFMwDLPO11jCD4g6hBuhp65rEocfY2BTHW2V320QiG5cu+3TdCdJqyTDom8Yuzb9nkxhX8q8jI2CiF5KbscrZH5BCKiJ4L9jI8jSlM2oDikmhhYAW8MEsJsQFiCtQawQJBljbHjOV7yAxJA0rqimrsL6BPFNazIrDZN2OMpj/w8PovMWaDUcb1Gzt3kFfwfi3h9TZDvueON7SaeohURh0pylsE74krJKXnoVUy0PFx3abksaVT3bQYkF+hFCiwX8QPW3Ida5rbsPq5X+AW4p/Qs7OrEv3ZdnQrD5FJmkO2ONeUJlDzH9oUze6GaPkI0ancHavp/OLUu6zjM2AYBkGZH0EEZFAo12P8bL5cHEdcLdkQNfO0+1Uwnl+QYoYTvJBWYSUKqN9eroS0/piWW5KTFUprf09g76ljSD6CLvsdlhuP4B8ZG92muuGZ0zWldScR0dqRqvi6aYUg2GDumXsRo0TLvT0KRDKJJ/P3DDgFTp4GgZQJWtGQ3GbdGV4kPhOdS1R+jNR9YG86wxi6memsePEoS3K3F5R2bM77uP5RyEa+eQEywTtH/BlxsF28NdMTTRjhk05Ccwt3mXZCOmN/BEAF1H4Ye8ais0DME6wkQ2x/rgOT8aX9LGWq/ARCNqtf9OxjVF0hLs9YLqid2OJKbj0XleH6onumw3IusvTzKja+tG7gHzjU/yNnWnUW7JHilgYqrBX7iGTW04yF1OqDp9ephmIEDIImCpywfUpDPpRB/Lyeyc6vXQ5hbmpacx0QZ/GYdyW5C/at9UB79AlPuE4A5eTAEtbKjDlrAp6uYzqkW8rlT0colzdNPYgjNvmnrp5qCKtwTO39Z5DHoAYhOg/LxVzYMawgVDYIohF7rxE5gALLbi7IsvR65qEegJG4WXzrvS8bK5AQK16LLsL67No6gNmdtVGsNulxGYOrU7X2MX5QOEDZT1kq4W1rrLqL+9H6JMo/waaOpwn+lEGNGRTidH4PFaM6UQHVxQ6AnQZqhDLkMWfLoLFKrwkkutuxC0w/jdvBGweleK1X0vps0FE+X6qnQku9PDT6at695zKyi+t9WxiQ1aussxuN2oJZ/NpA5+9TrNKEdWrjxXmri1bFnZJudNPvF9c/RzSImAyfEFquWS3q5OT8cTiiJZRg5GP4Puo+y7M6n+tHWp9f+LfsJgALLkxbsg5PA7rC9d1NbcYF4xNDiMloH721ETyqrunl60UPEh894ODAfv8wjSNtAAhEtRWwcAClTjBlkfkqAPP2M2+385B6JkfipmV1yXxdwxncQtQDaIK+85CstGsb8wt3WAQeHcSehrXCXY7v5XjKbN1tnbIraS/GkUXGyxXxJu+qtMxT2mgAERlEadAxld+d6RER3ov5/2/v5cmAmH/FVjXkou36Dc3e4v/UVM7uniBP/SfvDzsz6yngI19P6a22UgOxiER2na5ycBWc8b6IOuVqvraGu/IQD9UA4lAwZRVLV8vf9Xmxv7MUZd0DkrDzhPGuh340ZKKnWwSb8gnRHDetnve6DEBSDtaQsukagj/jHq9txsPJpcFUlRlG9hZnijY+8t4+Om/kzjvqZHIpuaEcG8WqBht0+9qlp1TEsiq0rAcAQHLTYSjwuGib9pFv+Aixoh3oVKfq0zYATG5ci8h9v8tUoqV+2jBOwInGk1ExiIFVEmp2GjzIBhJxs/eecg9AI5mkUd8OpPgGYQ66kk9swznam3yRZR7nOLePcKxaetknjfPFLTxcX6so5BpPe7CejJx6WDd6v/VWtVKmjuLxTUrLiTNkCZ9pTInkzRYpy28cACsIt7NlQYXprl0Qmsvwy3I0AleXrEnW5YD1ULiLZuHocYe3TCDi6OuPeTqpBOnTOT2sj91t7a5JCXtMKqqFDkfwU7m0cBb5lhJabVT2jZLap/8QttUsstarpMOmXSXRH1Cx42w2oiECLZKMJG7ZIVc8GyHVD/D7f/+2m9sWMjpKlADmHJ6+r4JMeBz7UKOiBUa+BJrNkgfvB9JuJSc1yapuZpUVVY6X8Ijpyy/f1BO2Qo8HxrxukfVN0KoD9Y1QX/bpc8h48SvtGZFVeHcTE6tDQ1FYW4D+iiiZdtg2WmBJJWG9Ll5ND9XhzVe7O7zz451+fIarlOY9mBAHZI9NQ8yutBArR6lv7XcWzd+RAzk+G7ZZOK8us0zDxs+afb81/01ii7refIUi+lQuzLoAkr57vPSOTONWB5ixRnWJ9MXBQa56vctufldcD4WUY7f8BdNVdL2B9xBXqoniSDNkuI4VrO1xTgwtWUKk09C+jRUWECfmSQfLs6ze0L1pdBdjiGs9vsqdaRX9SHEkroBHXrzwdIYfok4QrXR21bLi5bvskw3fuZm2zkf5mRJLLboZNJSOYEZGBpCWr7C1Q0utLDT5tE1gMk62+NIa9wIvOV1fxNKd6Z3BFeXOeWlPOr4e/w8Du9cwFJaxhefJeQplLOFFgkHBTgza+pvbq7wGGlbRjl6oKfwhawcPrlvc3f/bwgiWeWdCbNh2Tc13/2zq0JeOwu5RTgp0/yTr1OCd/NuPOaenyKELyEZBUTsLa4Upfuq6ke1GFEeyyrcEoLZ2X6RIcY11KR4MpgSqV0z2/vILB0+wr47wmAkJSZcuB53T0pXbSWesHWs1AVbXweHy1W1v0+QLj3ml2ndfDIxgPhh2v82eC0iZWvUPn7SiFaN4Ea2U3harX6k8D6IQ+nMTN3MYYuHIJ5efDVAUa0VCcxGEQKTNhCr681FSYVQO0Py5tK5NoHHvbTnCYhAMLeSDKBCAWJhMvHVLpSmr+MW05ZneZdPXtkhu8WgkIaBAQpr3bOFL7hMUCAFAqP4gqXoB31rv9290r+kwl9fMqPKXP98madl0zcxw5uveu49ZkucSuOloGKVSC7Or818yuJMcw/+T9ojBTP1waWIXvF5vwanGfEtWJtjT64Zh88vyZKzK/Z8F3P7CkJ7TXU5/Dta+ddVQxc0SyMGZ8fcIBa9gDsjw8sEaZTmeyvHRGC4C9paMhHbHnLwWe5HeS6gyYveYtlEqHaeTuuSqNm5rxSN06zJ69ASf3fFRVpTSwwbg//KqQ5GJkDgjgClFkqnx4KOIpRTFybl/952yaPnloxWcL4tUt7CQzyt/39KjMUJgzRNrXnNtpoprdourBXI0LBLQrkXROH1KYfZJSvI11Ri1paFIkhLEpZvSlt6KyIX/ST6aX0dK6q5eYC7c2T1qjnmYtmBKgD+izclgKTK5tRvR8+24acSUf3d27XO/htpbL85FWZ9/sSk5YEU/bgzIszFYVZ1C0Uwt4Rf9PsrAGnkI0m+CQ0Xpm0ODIsTHhOCogzM3J2JpM2ogAT2+mns4WEPbTTA9bn2rAqFwZv17+QmC2kMQzViEResVihPPNpUeU7bsGUKgMojI9PUU1YXB/FNjrxXSD2ULXgr4B4RobkVkRrQ8kX0p0SxnuW71fF7FWHI5JZDFfxs93kXjqmqaNY3CyZ231l4cdwzrxSh37aQ6K/r2LYlGlDhlhVbwyFiKeK3OP+Rlp4EcUewnpcGXv7TtdPgVfTDDh16FuVNG6Rumg4S3e3qctll8DC0G7hGBNH5ytZzrnptep9gt1eowpF7dpccyFCfWeym0ecingIljrRFwuvmsX8N8c5p1SoUV7QMlUaZkzNtSiqAfoJN07iH5PbgtBliceLmtwXn1bSTrfMVSmoGyVS55AyIBoBSNrVmvE0WRn5vdojexsDcIyBh5FfbiYclGKie4vXxRMWXIc3tu4MXagG24LUM2PmsgQ00PVPDv2rHcwLmsvVOmWbHTQM2yzEx7gxBdKUkj9ZGG8ognq4W8NM1fPQtXo45WfmUp89lbCgyzY7H5FT4tG4R2fg6x7jUq084ZUBj77wgZB3XP6UIsRgAAF3wrVbVzHpND/U0eCPLT13VgFovXwtDbubZmKhMnpIsIjIJGR1ilCWhq0xcD/PIUN52/iEYSM2xwjU5EhbgWwkeVFbW8tjpTzbzjoh7E5DdBhZ5LkfcZ3YZEmMgei7bKLmqeCT+02gywUju5zg6bU56kOhZN+6CoElLMwtHUdyi14ymUOxgInhyqMOwHYUxNnkFlWBHliC3sVFXDFMAJeW/jmPDkVFDe2ybBicPbztDAfLjvo6r4FgJZDk6uTTQI7Kgn/APgmvjF8DKdQ972W6lPiqycp9iWqWm8wnrU2/nlc9qrjwNpXIEYd5pP+DUtPEUhzou7XSjiCEVQ/dQsksFzVma1u/7CU3UorK9C3bL0WDX5ruJsoGpI7u2atDlPJOeTXXs5gBN6bQuoxlVvy04rdocs3nVrEtk3Q5M16sSXW/m9/e3mWOUF/VcqzZd1w/BE8uPbqA6zC9bKwHYSJPLRAy6bTtFEWm5qpHjBFaQBtgvvj/ZdQHROtuduOB12WKm3+XhCf0w4rhsDH1hsoTIAxDbXbqhQVj66UhMQ+W07DNb3ZCeGsaW1V3QS2sUChzDwdRpO6S3R+2XK2pqiyhXnZh+5VYPOHsI00poOxKSql/CxM4o6A1e04dpk2Svb5fwFVKx7X5BozEjkgiDJhsQIaq19lwlt8kX6tiphlMS/fEEO3RrO3EWrYFjujxrzhORNnzHkOSNysSlZMudilv8kRasPb5KAief5LLq8bFnAZhMcr0dqbwX6YiiLwlpdXnyAYRSZuaoBYOnS4IXBKBH9qZAjJbECx+dzVVJyE4C9rtVhq+fF1jiAuhDB+3jPNHTC7lRe1vg/eCxH8jjVspQHerLL/lit9YjJInZJXeFdqnZZfrGdXSR3pKnYcJPs5r7caH5XbsasLsbrlNO6Trx2Ymdl+5nbCFrBR4Xpap4GXVez37hW0wjtNdANU94XS+YpnNAyEy8JsESDhCtTdr/CsY+KIWGO72b1k/b6MaKt+32+3gjkvXmm9ZqvaKdIfJ5Av3JOM0W3DhfQsoUkd9iY+O4btFY40iLuAsuyRNEphVF/1oznE7wYyuVjtVsFazGMjR1ptUJj61wU2bVfEwfN/yXrViiMgONR0VCUuazGOL4uAiXtj9L0k8mbz27CobXY34v+sE0b11Ql8OfBiqEq3aAnLyS1s6OQYg6CO+09GYpXfk2jIGfOHyuX6nE+QMJe17VYLwCRLQCnSnI5nEns1GPafVYoKGo4KLPp7wMJ/qglA/0f/g3qB5Jo6kS3VClAUegtFDou0b/B5bIdarDD5cz/Bjyb/ojqVvXCjP76RJsBmz5DLdhTDOqIQ2pHOcW1w6zS2wSk0zOPFwb4nQSiphUk4U1/L2bpYtLC/gJI59JpXFG/uXOnugaLWeTCmOil9LlyG4xVZhPC15taJLMaVBzZgNWB1iTYA2e1A/yGUKulPWa8+GpIiTSSxeeF6KXSD+7gI5wdk6lyasNsVGMmdy9lukt0jJOxr1It/j6BBXVegQQ26rEJg+VwRNOOHqq5hWjqCqnFiuJKm0QXCK5kMxaE7wbfA50UJvQBXCS9D55Q6a7thj97KfrGk7oASFaPCyYYQiyJsiZEagJZCYEWBnokXAB1YpZt3kIesJ931WWZ3yDxDVThjJoldXsZNXqbe7DDoLquvAbTefbzotKx0E67UsKvTt9MLKE/Pb8mcMV4M6Xf8r0jEE7kosmM8Xl4HhIG0lTHbHcU+N6YPyqBrwmAa/KjxPk02mo9ATUxyiYHMcBzPtw3wV2CrjONWmUH7My+eBPy2reJIMOc4DG0BvEVlo/CfktIIxNBT/2AdRIwBVl7c+hclH2agVezg3FezUU5aNpmYATF+zWzr4+fLWir5Ild1FSd8D2OM8HU2nc1fyYo45ZJWDKHU95ZoZPjlTAid/dwtWXqXu7IwHIX82E9bVJvypAVQ/7liCdZU1lFt0ZC0KmmUF8SDO7qVNc1dQbfYDP9GyXzNnWseWC5rk6yeUBSe6CIqNP7b4yeqFZarWKQbRIk49x+rs/I8g4NM4qc8u3Sae1om9CACAnWkdfrNK0PJr5ajpHuxyMjF/2oV9QYUs+fKZXyJPgQfdj+9ZLqAu4zdWqVvwjAACDL7idfBaupsNtSMqL9naWeXed3+64e83sr4LR53mVO/o0J+m8y0BvE9ZuW5pPna0CTpY+6EHTABfSrVKzizOgIu7nt6GgtKJbZEAIGKA3b5albxtddewVl9JMgiMi9nkqta5JEC4Dt5OIQbN942eYe95QUHZT2GvIFK5ER770nM46JfE+BArZx6VYI8I8qzWoG/BKzv8RW4CQrdFSQuPPXWskDZPkaLHZ2JhqgV0Nnc3Ip5H+Pi2gzJsuBmXE/cgqCBAVG84sBQ++zubDK7lZ6lBW4uzbrYqF5oyoemge7Y4u7s3IzWnWaa0+ERzYyWiXM2GmXGeWPscsYp2YUTWh/wG0SFHMTEkqLZx/NqCywAqFbH+W0JxXPPiDhmVplqVJmTVUzcYMi50PmXXEygg/fgB/qsOvqshX6JMmH0cgu+0dpLiNz978rY2CLQ0OIvYIxelP8MP1FddVMvbVXS9sT1ozx8gSo0gEanW8HMB7/decK+sxGkOVLYskHzKTyfRdZQaplEWILOZkNC5ri6IJ92FDOVJrkfqPOxr0Lx7XDUT6Aq7WxXzefx70QgPQ1dXhjHU5WZaAO1TXr7cEDe3KwqW70hA/2WNamJDeeDnFN4pnyZdEHbNeN0qY9/8uFuDPmJMpieQVh7DxGpBdsJghjD6G2TMnoLkY2vH1mRp82jxeYWpApg+JzpLdg+exIGY39osn5sKHNjScAtoTFwjZrtYclJ4rNPEXeDUHDaR0uwnOBUXfAGuSN+xeKE8U3FluS/TqZ5Gr1WnfEB0BvjRFlZxcLp1aiUluwHbVPiI5QfAQuvgLRohNyGxzItV+huI6jGB8Um7zc6miVkcnLqw5b5FhxTRYXweWCNxw/bbVS1RXhFeeaiWc+3L8nAYvneHcsI1XSNusM9LOEo42qFprcA2TunVHzfzgcmHNKhZU9v85HZT0HC/kCe54X7wtfDSVwNiIOuY/1DAytMN3+SroJsG8xsIaGbIcMjuwiXjtp8YBBsyX0TTIkZ/vtLvJp70rOMhGeuYYhuCLxSM6iRx1jvMSuGn0AY5pYKWfA8uDSzariW3pVGFoBPhjCscNMEtSMV4opyPXxDKAazkBXf9scEeWuuSUTRNj4PDq46DwoZ4Iq3+ukezdp4JFGex495Lge704Yxw1c36goEYz4ttFBYABYBIMe/PC2NylMrh541nXim6pJ3/fGJIpGeHaCbYbmKPI7vYM0653PpPhMrHeat/9cYtSteanL0ue2KMkwOH1pSSPR60E6t5YdY+T7qkx5CzYlW7w3yUUZ44cIiA+Dam4TjeuKIlQ4cs7n7Lh44450+SmVTiYOAk6kiDN4y2Np4/9S0hArcyleOZul3OIFxOeqyttYZjKVUPbNuvGNmkQMmxNgqVJWp5jqgzzFK9ShLRWZD75kd/VVNQhGCT5Xe7lkKJEQFAHInT33e/hUOJIOw5lDCcCB5/JTwrmO83cDGJQDGHJREIkuVA979Lpe33JkInl5FVOsP/srYMDxByr0fUSNlzJ0T95FpYj+Ey0nEVXN2TVy2FU0TLgspxVDSSAl7G+YfgbB23Uc/+XP+GcBniDCeq2MTjCOFog5ZC/SyxLwzB7xVzwkNFUpG06Mp9uZoJLyeFwiM+pIh17b45j0vIjUwAdwBxmHXAus89o+ke5mEVqAGfi0WMxk2hi46p5atHPWkxbreEh7vpmJ4IPrmki6NhWqsAaJQWS0h2j85OsoeoYCd12hMVKucb8ZHi+yJihSpPsM4EvTbma7Ic0a2PIXExCo8gFSx6/KpKcPeoyl2CAABso8HVBeheFwLgrn9IfYsjJwlNpV3T5O/vbNIYTr9sHnogWWbQzz9yBWPM8dR8EqAES8touX4+y81bvnzDNQ4qzG9tRtYr4p8QnZM/bdMEnMpZYVdXbj+A1GgdFPA+45qwxCxxdN5bmG6ChwijMGCdRq0zpZUkAmjEXqy5AjjpWfb3Ungq4bIL9pbUB8GAYfKI3C3Kv00E11ccR8A/ulj2RBqDloFfqOtVoHKxReKoHiulBagAExJeUxvoxRBNRMgByNhy6IZIXlJg9hErUyDmN4n/BM4Sg7BnoexjwI50nIc9QDjrN+iFu03UhVlkeG4f36bJNR20KhI88tazHSoQF22cBzRGgrMUidELyD32oAssqxAlIrtNA8SCcQoH3ZygN2ntvW52yCZJE8vj0yAY20nz5MJY0AEs4DNQWfaYq5DJ63Ybtchhp+cglXt0pcy+RhLYi2JRrbZaIl92p2RFO8JHAqYYsK4cN6BySYCt1xLx0DbxqM5wHQBVLvMkhBeNwT9WITwtHSVC5oFWaCd6ICS6MNXLzY+v5VkRqrzjlVXhsXpfAAAAA==;" vertex="1" parent="1">
          <mxGeometry x="20" y="314" width="266.37" height="172" as="geometry" />
        </mxCell>
        <mxCell id="UyLI5zCr4JLoSCVPqPzQ-5" value="" style="image;aspect=fixed;html=1;points=[];align=center;fontSize=12;image=img/lib/azure2/general/Location.svg;" vertex="1" parent="1">
          <mxGeometry x="200" y="297" width="40" height="71" as="geometry" />
        </mxCell>
        <mxCell id="UyLI5zCr4JLoSCVPqPzQ-10" value="HH003" style="shape=image;verticalLabelPosition=bottom;labelBackgroundColor=default;verticalAlign=top;aspect=fixed;imageAspect=0;image=data:image/png,iVBORw0KGgoAAAANSUhEUgAAAMgAAADICAYAAACtWK6eAAAABHNCSVQICAgIfAhkiAAAAAlwSFlzAAALEwAACxMBAJqcGAAAEgRJREFUeJztnXu4VNV5h99zAAHllohURQQEEqNiiGANKkHjDesNL1Wbi07S2jaxtjVtektqjMZezLWpbS6tjUmf2BisRkjqDYnVqPESH9EkDYoIgsZEMERAzAHO6R/fTJgzZ/Z9rzV79v69z7MeDjOz9/rWnvWbvfZa3/o+EEIIIYQQQgghhBBCCCGEEEIIIYQQQgghhBBCCCGEEEIIIYQQQgghhBCJ6em0AeLXTAdm1f9+GljbOVOEKA6LgZXAQEt5HDizg3YJ0VGmA99hqDBay1JgaodsFMI7ewAfBV4jWhyNsg34a2BEB+wVwhsnAKuIL4zW8mPgON9GC+GafYEbSS+M1vKfwCSvLRDCAcOAy4DN5CeORvkF8EGg11trhMiRI4EfkL8wWssjwFxPbRIiMxOALwC7cC+ORtkFXAeM99A+IVJzEfAz/AmjtbwEvNt5KyuEVtLz4RDgX4GFnTakzgrgUuAnnut9C/bclZYtwLqcbBEFYE/gH4A+OnfXCCq/Aq4BRjtr/VCyTkbc4dFW4ZgzMX+pTgshqqwBTnNzCYYggQimYu4fne74ScutwBQH16MZCaTCjMDcPbbR+c6etmwF/gJ3LisSSEU5DnPzcNl5twNX1Mt2x3X9EFiQ5wWqI4FUjEmYW4frX/b/AQ5qqncGcLuHem8A9sl+mX6NBFIReoEPYO4cLjvoeuDcEDvOq3/GpQ2bgN8nnyl/CaQCzMXcN1x2yh3Ap4AxMewZA3y6foxLm74PzElwndohgZSY8Zi7hmsXke8Bs1PYdzjwgGPbdgL/BIxLYR9IIKXlXcBPcdv5XgbeT7ahTE/9HBsd2/oCcGEK+ySQkvFm4B7cdrZ+4MvAG3O0e2/g3+vndmn7XewOJBEHCaQkjAY+gbljuOxgTwDzHbbjaNoHfMizvA5cBYyKYY8EUgJOw9wvXHaqV4E/JZvjXlyGAZdjjn4u27QaWBRhiwTSxUzB3C1cdqIB4CZgf09tamYy8M0U9iYtN9fraocE0oUMBz6MuVm47DjPACd7alMYp2C/9i7bugX4M+zaNiOBdBkLgKdw21m2Ax8DRnpqUxxGAVdizw8u274Sew5qIIF0CROBr+B+lucOYKanNqVhJnAnbq9BP3A9NrMmgRScHsxtYhNuO8UGzA2kWzgfW9tweU02kn3jmATikDmYu4TLTrAD+Aww1lOb8mQs8FlstdzlNZJACsZY4HO4/+IfwNw9up23Ag/SeTFIIB64AD9Dh9+lXAEueoBLcD8UlUA6xCzMDcLll9WPuXPs7alNnWAi8B+4n8yQQDwxCvg4/qcvy86xwJNIIF3NIvwsgH2IoQtgVWA4tvjn2mVFAsmZycAS3H85Swh2oagSB2DuJBJIwRmO/Zq/itsvJY4TXhU5FXgWCaSQ+HLjvpJ4btxVZRTm6u56W4AEEpOibgSqOm8C7sa9QJ4i341lpaEHW2vwsZX0fE9tKiMXAi/i9jt6GXgf5Vp3ysRsLJCBy4u+E3Oz6EYXkaIxDgvs4Npz4X7gME9tKiS+wtk8iLlXiHx5G3583z4J7OWpTYXhXPwERLsE3apd0gv8AfAKbr/L54FzPLWpo8zAwmy6vJj9mPvERE9tEha+9Abcfq8DwLeB6X6a5JeR+AnK/CTmNiE6wwIsMLbL7/g14CPAHp7a5JwTgVW4vWhBe6SFf0ZgKRZcxwD4P+CdntrkhP2Ab+D+tnsz5h4hisWB+Iki83VgX09tyoVhwB8Dv8TthXkWc4cQxeZ03Mch2wz8ETZpUGiOAh7H7cVIEulPFANfkSwfA+Z5alMi3gB8CfeR0e/G3B5Ed3Iw7mMh78JSck/w1KZIasDPcdvoF7HttaIc+Iim/xLwXl8NasehwH24bWTWfBWiuIwH/hn3o47vAm/x1CbAxpP/SPYYSFHl+5g7gyg3PjJ69QF/h4fol5OwkP4uG/MK+eXME92Br5yQj+EwCEcvbr1u+7FwoXlmXRXdxSTga7gVyXdx9ON7kUOjn8JN3m7RnSwEfoS7/uZkwsfV9Ny/IBcRMZQRwBdx0+dib+1NsvJ4ZILPJuEhbLZKiGZ2YBM1Loi9mBhXID1oN54oD7H7clyBDGALO0KUgdh9OckQa0UKQ4QoIvfE/WASgXwOu5MI0c30A5+P++EkAnkMuDaxOUIUi2uwoIRO6AH+nnz9Z97jyljR9dTIr5/tAq72ZfgR2Cb9ddh03CtYssg0sZIkEBFEjeT9qQ/bFvEqNpzagPXVI7xaHkCavB0SiAiiRvL+tLXp+MwuJYXfoihEBjJPKkkgQoQggQgRggQiRAgSiBAhyM1ctNILHA+cDBxUf+05bOr0HmzqVKRE07zdzXxs81rQd/Uj/MY+roXYEmeaNzMaYokGv41FqQlLWnMIcC8WtqcSVH2INQVLK3YUtpl/CxaUYgn2S1oV5mIxbuP0h2HAV7HswI+4NKqMdMsQaxTwGcJdY5ZQjQASPaTLFPUY7iPP1FLYlesQK2+6QSB7Af8b07bnsCjlZWYuyb+zRjnKsW21FDbpGSQjXwLeEfOz04DbKFGyljZkybFxYm5WFJSqCWQB8O6Ex8zB8vCVlakZjp2WlxFFpWoCSdvR/zBXK4pFlnWN0q+JVE0gx6c87hAs6l8ZWZ3h2Gdys6KgVEkgvcD+GY4v68P6nRmOvT03KwpKlQQygG27TMuOvAwpGKuw1NxJuQtbWS81VRNI2iFBP5YTsaxchuWUjMurWE7A0lMlgUC6X0ow94pCL0BlZA1wGpZ+IIpfAmdSgecPFxR9oXAa6RJJLvJoYyeZCtxC8HX4FjDdoz21EFu8LBRWzRdrLfBXmJtJXL5GgmjgXc464BxsQuIkYEb99TXAcuz6iQwU/Q4C5j90VUzbbsFD2i4RSA3dQbwzAFwBPIBFijy8zWdeAD4OXE8FFsOa2ANLeDkD2BfYE/Pe3Qb8DJuo+DH2Q1gJqiiQBndiU5WzMae7fbDZmScw79aq5CzZH3P5PwM4mmi/sx3Aw8Ay4EYsMJuISTcMsYQxC9sDkiYaZqPsAm4CDnZkYy2FTRpiZeBA4DhgMjZ0iGIA2Ag8SHk2UI0APlIvWb//XuB87MH+WmxY2pfxnKWmqHeQwzC3iP4U9jXK41ggg27mjViW17TXIKrcT75plmspbCj0elURBXJ2SruCyhWO7XXFeOAHuBNHozwBTMjJ5lqK+iWQBByAzcDk3Qm6beGwB9v45VocjbKMfLbj1lLUrR2FCfgwNlWZN1c6OKdL3ou5h/jidOBij/V1DUW6g0zAfk1c/Uoe7cjuvBkBrMff3aNRNpB9q3ItRb26g8TkYixAgys+6PDcebIYG2r6ZjJ+71pOKLNALnF8/nPJ72HUJYs7WPe5Haw7F8oqkLnAoY7rGAVc4LiOPJhf0bpzoawCSRq5JC1F9wIYgV/39Fam0uUhk8ookB5sddcHx9CZ8X1cxnXaAGz9pWspo0DmYw+IPuih2OPsEZ02gHguPYWljAI5z3N953iuLy+WY0Gos/J1skVGKTRlFMhZnus7Bpjouc48eBgTSVbuxbYHlJKyCeRQdmdFaiVrVJKg44dhAQ+KyECnDeh2yiaQoI7aR/ZhwNPATxLWK7qcqgjkXiw5ThYGgKUB751MMffW6A6SkTIJZBzB/lFBHTspQecZTwkWxcRQyiSQ4wn+FV+Ww/kHgIeAlwPeL+JmKt1BMlImgZwU8PpK4Hny2Z/QD3wnYf2iiymTQIKyHTXuHvMynv8ITGRBw6x5dPmqsRhKWQRyAPDmgPeWYnux46ZdC2I/4O1YqKB2caGGAQsTnG8ktuKf9uF+ApazJOzOqCFWRsoikKA8ez/FsrGeTj6zTIuxLbwrEtrRzFjgy1gQ6A3AJuDqBPbNw56FfoEFc3sG/94DlaEsAjku4PVvY7+iee2JOLv+720J7WjQC9yK7VVphDQdB3wU+HyM+g/HMvS+vem1GVjK6gvbfF53kIyUXSBLgdHAKTnVMwtLx7aM9p1vNvCGkONPBE4IeO8DRLumX0PwHvtP0+WOgUWkDAKZTPuO9RpwDza7lGfghrPZPXRrpRc4NuTY34w495ER74c9R+0PzIw4XiSkDAIJ6pDLge3sHhblRWO4FjSbtSDk2KjV/Kj3o1LItcYT1hArI2UQSFCHXIoNOU7Pub55wBSCBXJMyLHLCA6KvRG4L6Luu0LeexbL4yFypAwCaefiMYA9oB+LG1f0xcCTtE8oM5fgbaZrgMvbvN4HvA+bIQvjb7BZr1Z2YTkDW+8YuoNkpNsFMob2+T0ewaZAXUX0aJy3nQvLSMIXJa/DhPtVbLr4C8DbMEFHsQabwfoWlkquH8tz8k6qkwXLK0X0QE3CaNq3odFxXQnkHdji41IsQ2wrUXvBfwh8FrN/K5b6LC6rseeq3noJy2OyFVvUHNXmvZ8nqDOKVwJe7yNeYtDK0InIive2nO81LFnnnBS2JCkXYeJc3fL6i7QPWLc38LdYGoXWc+3CduVdRvCM2znYHWc9tsDYXNYDjwJ/wtAfjOvb1Lcde456Tw7X4fewtBLtvvuvBLQlLrUU9ih4dQuTsIWyjdjU6/H1169MYUuScmu9nlnYw/MmTKyz29h4HvYrG+e8axnqtn95ArtubDl2LIMDV29i9501SiDfwyYOogQCFrxic9Pr/12vOwu1BO2WQBLyRApbkpRt2BApiotTnPt1ds/OjcGGKUmOn9PGjgMxh8vm4VaUQE7Fnm/iCIT69ZhLfqGQahF1OxdItz+kBzENeKvjOvYkeoX+QOwhPCkjsWgho4F3kTzE6aVtXnseSwKUJAHnAMmSmG7HcpCUJm9hWQWS9+JgEFGTAJcS7y7TjinY0Oz9KY69IEO9oomyCsRXwOYzCJ8JjOPdG8ZZWAbepIwl/wXSSlJGgUwkfDU7T6L2meyb8fztHvjjIhf4HCijQM7Ar1dr2N2qeTPTcqIfIJ/D1kgaTGr6e3MMW5o/s4hihB7tasooEF/PHw3iDucexjZJhfE8sKrp/81beG+PUUfzavo4wh0nRQzKJpC98B88YQo2temCxh1ogHihix7BXPEbnJq7RRWjbAI5hfZuFa4JumsN5HT+x4k3xNqLwT5dRQxF1FWUTSCdSjfmut6lxEs9vYjB24Fn052BtQtDmQQynM5NbR6KuZy0ktcdZBnxRDgfe8hvuM33EL1PXoRQJoEsJHw/uGtcTQ6sr/87NcZne7FhVfPGqoW5W1Qhut3dvZnVRD+gfxGLAtLK69iGpU8EvA/2fBPmdvFSm9fyuIPEvXs0WIw5bzYEG7ZHXkRQJoGsI3pfRdA6xDrgG9gYPkggKwjfe+GKZcC1CT5/AuY234/dUWZjDo+F9nItKmUaYhWRnQF/h9EcmKEPE2+SFfWRWHSURnC7LUQHexABSCBuuaH+7zZ27x9ppt3C4U3sdt3+S9KtZSwGfge7kyzAvGxFCso0xCoiVwP/ha1hbGzz/nnA3S2v3YI9kPcDLwD3p6j3t7B9KNelOFY0oTuIe1bTXhwQPOxaj4ljH4KTAoUxjuAIjiIBEkixOZP031GnFk1LhQRSbLKsrZyFvt/M6AIWlzFkGyb9BoOjwIsUSCDFZRHZHS99u/6XDs1iFZfbGBo2ZyVwUP3v+7AwRx9qen8ag0OTdmJhs1RIIMVlR7000+y6soWhUQu3oRXzXNEQS4gQJBAhQpBAhAhBAhEiBAlEiBAkECPOxqa8ts8Wiag29cf8TGmp2jRvUFyqzRHvl3VPxTMR7z9N9FrKqoj3u5qq3UFuCni9kVPjmwmPS0pfy/9b1yx+FXF8s0h3MlS0SRcGHyU4cejNWK6SDdhuy3Y8BDyYsM5KU6T8IO3oxfZINIYO/Vh6guYfissY3I47iE6pFpc/bzrvv9XrXVH//06iPXCvarL7Qmyn4db6a3EiL7ZjItbG5u9kCYNX8cdgImn+zHLM38slNZL3p1wXSnuiP5KIk0geF3clg6MB+mAqcDA2PFjb5v2JWLKZFxkcKzcPDsNyizyKfaHDsXA9G7DYvFHMxTpBY2izHzAT+zXP4loyE5iODbvWBnxmKvAmbBvw0xnqistkkgfw3omJVwghhBBCCCGEEEIIIYQQQgghhBBCCCGEEEIIIYQQQgghhBBCCCGEEEJ0iv8HYCijzCRt4YsAAAAASUVORK5CYII=;fontSize=19;fontStyle=1" vertex="1" parent="1">
          <mxGeometry x="410" y="465" width="100" height="100" as="geometry" />
        </mxCell>
        <mxCell id="UyLI5zCr4JLoSCVPqPzQ-9" value="HH001" style="shape=image;verticalLabelPosition=bottom;labelBackgroundColor=default;verticalAlign=top;aspect=fixed;imageAspect=0;image=data:image/png,iVBORw0KGgoAAAANSUhEUgAAAMgAAADICAYAAACtWK6eAAAABHNCSVQICAgIfAhkiAAAAAlwSFlzAAALEwAACxMBAJqcGAAAEgRJREFUeJztnXu4VNV5h99zAAHllohURQQEEqNiiGANKkHjDesNL1Wbi07S2jaxtjVtektqjMZezLWpbS6tjUmf2BisRkjqDYnVqPESH9EkDYoIgsZEMERAzAHO6R/fTJgzZ/Z9rzV79v69z7MeDjOz9/rWnvWbvfZa3/o+EEIIIYQQQgghhBBCCCGEEEIIIYQQQgghhBBCCCGEEEIIIYQQQgghhBCJ6em0AeLXTAdm1f9+GljbOVOEKA6LgZXAQEt5HDizg3YJ0VGmA99hqDBay1JgaodsFMI7ewAfBV4jWhyNsg34a2BEB+wVwhsnAKuIL4zW8mPgON9GC+GafYEbSS+M1vKfwCSvLRDCAcOAy4DN5CeORvkF8EGg11trhMiRI4EfkL8wWssjwFxPbRIiMxOALwC7cC+ORtkFXAeM99A+IVJzEfAz/AmjtbwEvNt5KyuEVtLz4RDgX4GFnTakzgrgUuAnnut9C/bclZYtwLqcbBEFYE/gH4A+OnfXCCq/Aq4BRjtr/VCyTkbc4dFW4ZgzMX+pTgshqqwBTnNzCYYggQimYu4fne74ScutwBQH16MZCaTCjMDcPbbR+c6etmwF/gJ3LisSSEU5DnPzcNl5twNX1Mt2x3X9EFiQ5wWqI4FUjEmYW4frX/b/AQ5qqncGcLuHem8A9sl+mX6NBFIReoEPYO4cLjvoeuDcEDvOq3/GpQ2bgN8nnyl/CaQCzMXcN1x2yh3Ap4AxMewZA3y6foxLm74PzElwndohgZSY8Zi7hmsXke8Bs1PYdzjwgGPbdgL/BIxLYR9IIKXlXcBPcdv5XgbeT7ahTE/9HBsd2/oCcGEK+ySQkvFm4B7cdrZ+4MvAG3O0e2/g3+vndmn7XewOJBEHCaQkjAY+gbljuOxgTwDzHbbjaNoHfMizvA5cBYyKYY8EUgJOw9wvXHaqV4E/JZvjXlyGAZdjjn4u27QaWBRhiwTSxUzB3C1cdqIB4CZgf09tamYy8M0U9iYtN9fraocE0oUMBz6MuVm47DjPACd7alMYp2C/9i7bugX4M+zaNiOBdBkLgKdw21m2Ax8DRnpqUxxGAVdizw8u274Sew5qIIF0CROBr+B+lucOYKanNqVhJnAnbq9BP3A9NrMmgRScHsxtYhNuO8UGzA2kWzgfW9tweU02kn3jmATikDmYu4TLTrAD+Aww1lOb8mQs8FlstdzlNZJACsZY4HO4/+IfwNw9up23Ag/SeTFIIB64AD9Dh9+lXAEueoBLcD8UlUA6xCzMDcLll9WPuXPs7alNnWAi8B+4n8yQQDwxCvg4/qcvy86xwJNIIF3NIvwsgH2IoQtgVWA4tvjn2mVFAsmZycAS3H85Swh2oagSB2DuJBJIwRmO/Zq/itsvJY4TXhU5FXgWCaSQ+HLjvpJ4btxVZRTm6u56W4AEEpOibgSqOm8C7sa9QJ4i341lpaEHW2vwsZX0fE9tKiMXAi/i9jt6GXgf5Vp3ysRsLJCBy4u+E3Oz6EYXkaIxDgvs4Npz4X7gME9tKiS+wtk8iLlXiHx5G3583z4J7OWpTYXhXPwERLsE3apd0gv8AfAKbr/L54FzPLWpo8zAwmy6vJj9mPvERE9tEha+9Abcfq8DwLeB6X6a5JeR+AnK/CTmNiE6wwIsMLbL7/g14CPAHp7a5JwTgVW4vWhBe6SFf0ZgKRZcxwD4P+CdntrkhP2Ab+D+tnsz5h4hisWB+Iki83VgX09tyoVhwB8Dv8TthXkWc4cQxeZ03Mch2wz8ETZpUGiOAh7H7cVIEulPFANfkSwfA+Z5alMi3gB8CfeR0e/G3B5Ed3Iw7mMh78JSck/w1KZIasDPcdvoF7HttaIc+Iim/xLwXl8NasehwH24bWTWfBWiuIwH/hn3o47vAm/x1CbAxpP/SPYYSFHl+5g7gyg3PjJ69QF/h4fol5OwkP4uG/MK+eXME92Br5yQj+EwCEcvbr1u+7FwoXlmXRXdxSTga7gVyXdx9ON7kUOjn8JN3m7RnSwEfoS7/uZkwsfV9Ny/IBcRMZQRwBdx0+dib+1NsvJ4ZILPJuEhbLZKiGZ2YBM1Loi9mBhXID1oN54oD7H7clyBDGALO0KUgdh9OckQa0UKQ4QoIvfE/WASgXwOu5MI0c30A5+P++EkAnkMuDaxOUIUi2uwoIRO6AH+nnz9Z97jyljR9dTIr5/tAq72ZfgR2Cb9ddh03CtYssg0sZIkEBFEjeT9qQ/bFvEqNpzagPXVI7xaHkCavB0SiAiiRvL+tLXp+MwuJYXfoihEBjJPKkkgQoQggQgRggQiRAgSiBAhyM1ctNILHA+cDBxUf+05bOr0HmzqVKRE07zdzXxs81rQd/Uj/MY+roXYEmeaNzMaYokGv41FqQlLWnMIcC8WtqcSVH2INQVLK3YUtpl/CxaUYgn2S1oV5mIxbuP0h2HAV7HswI+4NKqMdMsQaxTwGcJdY5ZQjQASPaTLFPUY7iPP1FLYlesQK2+6QSB7Af8b07bnsCjlZWYuyb+zRjnKsW21FDbpGSQjXwLeEfOz04DbKFGyljZkybFxYm5WFJSqCWQB8O6Ex8zB8vCVlakZjp2WlxFFpWoCSdvR/zBXK4pFlnWN0q+JVE0gx6c87hAs6l8ZWZ3h2Gdys6KgVEkgvcD+GY4v68P6nRmOvT03KwpKlQQygG27TMuOvAwpGKuw1NxJuQtbWS81VRNI2iFBP5YTsaxchuWUjMurWE7A0lMlgUC6X0ow94pCL0BlZA1wGpZ+IIpfAmdSgecPFxR9oXAa6RJJLvJoYyeZCtxC8HX4FjDdoz21EFu8LBRWzRdrLfBXmJtJXL5GgmjgXc464BxsQuIkYEb99TXAcuz6iQwU/Q4C5j90VUzbbsFD2i4RSA3dQbwzAFwBPIBFijy8zWdeAD4OXE8FFsOa2ANLeDkD2BfYE/Pe3Qb8DJuo+DH2Q1gJqiiQBndiU5WzMae7fbDZmScw79aq5CzZH3P5PwM4mmi/sx3Aw8Ay4EYsMJuISTcMsYQxC9sDkiYaZqPsAm4CDnZkYy2FTRpiZeBA4DhgMjZ0iGIA2Ag8SHk2UI0APlIvWb//XuB87MH+WmxY2pfxnKWmqHeQwzC3iP4U9jXK41ggg27mjViW17TXIKrcT75plmspbCj0elURBXJ2SruCyhWO7XXFeOAHuBNHozwBTMjJ5lqK+iWQBByAzcDk3Qm6beGwB9v45VocjbKMfLbj1lLUrR2FCfgwNlWZN1c6OKdL3ou5h/jidOBij/V1DUW6g0zAfk1c/Uoe7cjuvBkBrMff3aNRNpB9q3ItRb26g8TkYixAgys+6PDcebIYG2r6ZjJ+71pOKLNALnF8/nPJ72HUJYs7WPe5Haw7F8oqkLnAoY7rGAVc4LiOPJhf0bpzoawCSRq5JC1F9wIYgV/39Fam0uUhk8ookB5sddcHx9CZ8X1cxnXaAGz9pWspo0DmYw+IPuih2OPsEZ02gHguPYWljAI5z3N953iuLy+WY0Gos/J1skVGKTRlFMhZnus7Bpjouc48eBgTSVbuxbYHlJKyCeRQdmdFaiVrVJKg44dhAQ+KyECnDeh2yiaQoI7aR/ZhwNPATxLWK7qcqgjkXiw5ThYGgKUB751MMffW6A6SkTIJZBzB/lFBHTspQecZTwkWxcRQyiSQ4wn+FV+Ww/kHgIeAlwPeL+JmKt1BMlImgZwU8PpK4Hny2Z/QD3wnYf2iiymTQIKyHTXuHvMynv8ITGRBw6x5dPmqsRhKWQRyAPDmgPeWYnux46ZdC2I/4O1YqKB2caGGAQsTnG8ktuKf9uF+ApazJOzOqCFWRsoikKA8ez/FsrGeTj6zTIuxLbwrEtrRzFjgy1gQ6A3AJuDqBPbNw56FfoEFc3sG/94DlaEsAjku4PVvY7+iee2JOLv+720J7WjQC9yK7VVphDQdB3wU+HyM+g/HMvS+vem1GVjK6gvbfF53kIyUXSBLgdHAKTnVMwtLx7aM9p1vNvCGkONPBE4IeO8DRLumX0PwHvtP0+WOgUWkDAKZTPuO9RpwDza7lGfghrPZPXRrpRc4NuTY34w495ER74c9R+0PzIw4XiSkDAIJ6pDLge3sHhblRWO4FjSbtSDk2KjV/Kj3o1LItcYT1hArI2UQSFCHXIoNOU7Pub55wBSCBXJMyLHLCA6KvRG4L6Luu0LeexbL4yFypAwCaefiMYA9oB+LG1f0xcCTtE8oM5fgbaZrgMvbvN4HvA+bIQvjb7BZr1Z2YTkDW+8YuoNkpNsFMob2+T0ewaZAXUX0aJy3nQvLSMIXJa/DhPtVbLr4C8DbMEFHsQabwfoWlkquH8tz8k6qkwXLK0X0QE3CaNq3odFxXQnkHdji41IsQ2wrUXvBfwh8FrN/K5b6LC6rseeq3noJy2OyFVvUHNXmvZ8nqDOKVwJe7yNeYtDK0InIive2nO81LFnnnBS2JCkXYeJc3fL6i7QPWLc38LdYGoXWc+3CduVdRvCM2znYHWc9tsDYXNYDjwJ/wtAfjOvb1Lcde456Tw7X4fewtBLtvvuvBLQlLrUU9ih4dQuTsIWyjdjU6/H1169MYUuScmu9nlnYw/MmTKyz29h4HvYrG+e8axnqtn95ArtubDl2LIMDV29i9501SiDfwyYOogQCFrxic9Pr/12vOwu1BO2WQBLyRApbkpRt2BApiotTnPt1ds/OjcGGKUmOn9PGjgMxh8vm4VaUQE7Fnm/iCIT69ZhLfqGQahF1OxdItz+kBzENeKvjOvYkeoX+QOwhPCkjsWgho4F3kTzE6aVtXnseSwKUJAHnAMmSmG7HcpCUJm9hWQWS9+JgEFGTAJcS7y7TjinY0Oz9KY69IEO9oomyCsRXwOYzCJ8JjOPdG8ZZWAbepIwl/wXSSlJGgUwkfDU7T6L2meyb8fztHvjjIhf4HCijQM7Ar1dr2N2qeTPTcqIfIJ/D1kgaTGr6e3MMW5o/s4hihB7tasooEF/PHw3iDucexjZJhfE8sKrp/81beG+PUUfzavo4wh0nRQzKJpC98B88YQo2temCxh1ogHihix7BXPEbnJq7RRWjbAI5hfZuFa4JumsN5HT+x4k3xNqLwT5dRQxF1FWUTSCdSjfmut6lxEs9vYjB24Fn052BtQtDmQQynM5NbR6KuZy0ktcdZBnxRDgfe8hvuM33EL1PXoRQJoEsJHw/uGtcTQ6sr/87NcZne7FhVfPGqoW5W1Qhut3dvZnVRD+gfxGLAtLK69iGpU8EvA/2fBPmdvFSm9fyuIPEvXs0WIw5bzYEG7ZHXkRQJoGsI3pfRdA6xDrgG9gYPkggKwjfe+GKZcC1CT5/AuY234/dUWZjDo+F9nItKmUaYhWRnQF/h9EcmKEPE2+SFfWRWHSURnC7LUQHexABSCBuuaH+7zZ27x9ppt3C4U3sdt3+S9KtZSwGfge7kyzAvGxFCso0xCoiVwP/ha1hbGzz/nnA3S2v3YI9kPcDLwD3p6j3t7B9KNelOFY0oTuIe1bTXhwQPOxaj4ljH4KTAoUxjuAIjiIBEkixOZP031GnFk1LhQRSbLKsrZyFvt/M6AIWlzFkGyb9BoOjwIsUSCDFZRHZHS99u/6XDs1iFZfbGBo2ZyVwUP3v+7AwRx9qen8ag0OTdmJhs1RIIMVlR7000+y6soWhUQu3oRXzXNEQS4gQJBAhQpBAhAhBAhEiBAlEiBAkECPOxqa8ts8Wiag29cf8TGmp2jRvUFyqzRHvl3VPxTMR7z9N9FrKqoj3u5qq3UFuCni9kVPjmwmPS0pfy/9b1yx+FXF8s0h3MlS0SRcGHyU4cejNWK6SDdhuy3Y8BDyYsM5KU6T8IO3oxfZINIYO/Vh6guYfissY3I47iE6pFpc/bzrvv9XrXVH//06iPXCvarL7Qmyn4db6a3EiL7ZjItbG5u9kCYNX8cdgImn+zHLM38slNZL3p1wXSnuiP5KIk0geF3clg6MB+mAqcDA2PFjb5v2JWLKZFxkcKzcPDsNyizyKfaHDsXA9G7DYvFHMxTpBY2izHzAT+zXP4loyE5iODbvWBnxmKvAmbBvw0xnqistkkgfw3omJVwghhBBCCCGEEEIIIYQQQgghhBBCCCGEEEIIIYQQQgghhBBCCCGEEEJ0iv8HYCijzCRt4YsAAAAASUVORK5CYII=;fontSize=19;fontStyle=1" vertex="1" parent="1">
          <mxGeometry x="410" y="190" width="100" height="100" as="geometry" />
        </mxCell>
        <mxCell id="UyLI5zCr4JLoSCVPqPzQ-11" value="HH002" style="shape=image;verticalLabelPosition=bottom;labelBackgroundColor=default;verticalAlign=top;aspect=fixed;imageAspect=0;image=data:image/png,iVBORw0KGgoAAAANSUhEUgAAAMgAAADICAYAAACtWK6eAAAABHNCSVQICAgIfAhkiAAAAAlwSFlzAAALEwAACxMBAJqcGAAAEgRJREFUeJztnXu4VNV5h99zAAHllohURQQEEqNiiGANKkHjDesNL1Wbi07S2jaxtjVtektqjMZezLWpbS6tjUmf2BisRkjqDYnVqPESH9EkDYoIgsZEMERAzAHO6R/fTJgzZ/Z9rzV79v69z7MeDjOz9/rWnvWbvfZa3/o+EEIIIYQQQgghhBBCCCGEEEIIIYQQQgghhBBCCCGEEEIIIYQQQgghhBCJ6em0AeLXTAdm1f9+GljbOVOEKA6LgZXAQEt5HDizg3YJ0VGmA99hqDBay1JgaodsFMI7ewAfBV4jWhyNsg34a2BEB+wVwhsnAKuIL4zW8mPgON9GC+GafYEbSS+M1vKfwCSvLRDCAcOAy4DN5CeORvkF8EGg11trhMiRI4EfkL8wWssjwFxPbRIiMxOALwC7cC+ORtkFXAeM99A+IVJzEfAz/AmjtbwEvNt5KyuEVtLz4RDgX4GFnTakzgrgUuAnnut9C/bclZYtwLqcbBEFYE/gH4A+OnfXCCq/Aq4BRjtr/VCyTkbc4dFW4ZgzMX+pTgshqqwBTnNzCYYggQimYu4fne74ScutwBQH16MZCaTCjMDcPbbR+c6etmwF/gJ3LisSSEU5DnPzcNl5twNX1Mt2x3X9EFiQ5wWqI4FUjEmYW4frX/b/AQ5qqncGcLuHem8A9sl+mX6NBFIReoEPYO4cLjvoeuDcEDvOq3/GpQ2bgN8nnyl/CaQCzMXcN1x2yh3Ap4AxMewZA3y6foxLm74PzElwndohgZSY8Zi7hmsXke8Bs1PYdzjwgGPbdgL/BIxLYR9IIKXlXcBPcdv5XgbeT7ahTE/9HBsd2/oCcGEK+ySQkvFm4B7cdrZ+4MvAG3O0e2/g3+vndmn7XewOJBEHCaQkjAY+gbljuOxgTwDzHbbjaNoHfMizvA5cBYyKYY8EUgJOw9wvXHaqV4E/JZvjXlyGAZdjjn4u27QaWBRhiwTSxUzB3C1cdqIB4CZgf09tamYy8M0U9iYtN9fraocE0oUMBz6MuVm47DjPACd7alMYp2C/9i7bugX4M+zaNiOBdBkLgKdw21m2Ax8DRnpqUxxGAVdizw8u274Sew5qIIF0CROBr+B+lucOYKanNqVhJnAnbq9BP3A9NrMmgRScHsxtYhNuO8UGzA2kWzgfW9tweU02kn3jmATikDmYu4TLTrAD+Aww1lOb8mQs8FlstdzlNZJACsZY4HO4/+IfwNw9up23Ag/SeTFIIB64AD9Dh9+lXAEueoBLcD8UlUA6xCzMDcLll9WPuXPs7alNnWAi8B+4n8yQQDwxCvg4/qcvy86xwJNIIF3NIvwsgH2IoQtgVWA4tvjn2mVFAsmZycAS3H85Swh2oagSB2DuJBJIwRmO/Zq/itsvJY4TXhU5FXgWCaSQ+HLjvpJ4btxVZRTm6u56W4AEEpOibgSqOm8C7sa9QJ4i341lpaEHW2vwsZX0fE9tKiMXAi/i9jt6GXgf5Vp3ysRsLJCBy4u+E3Oz6EYXkaIxDgvs4Npz4X7gME9tKiS+wtk8iLlXiHx5G3583z4J7OWpTYXhXPwERLsE3apd0gv8AfAKbr/L54FzPLWpo8zAwmy6vJj9mPvERE9tEha+9Abcfq8DwLeB6X6a5JeR+AnK/CTmNiE6wwIsMLbL7/g14CPAHp7a5JwTgVW4vWhBe6SFf0ZgKRZcxwD4P+CdntrkhP2Ab+D+tnsz5h4hisWB+Iki83VgX09tyoVhwB8Dv8TthXkWc4cQxeZ03Mch2wz8ETZpUGiOAh7H7cVIEulPFANfkSwfA+Z5alMi3gB8CfeR0e/G3B5Ed3Iw7mMh78JSck/w1KZIasDPcdvoF7HttaIc+Iim/xLwXl8NasehwH24bWTWfBWiuIwH/hn3o47vAm/x1CbAxpP/SPYYSFHl+5g7gyg3PjJ69QF/h4fol5OwkP4uG/MK+eXME92Br5yQj+EwCEcvbr1u+7FwoXlmXRXdxSTga7gVyXdx9ON7kUOjn8JN3m7RnSwEfoS7/uZkwsfV9Ny/IBcRMZQRwBdx0+dib+1NsvJ4ZILPJuEhbLZKiGZ2YBM1Loi9mBhXID1oN54oD7H7clyBDGALO0KUgdh9OckQa0UKQ4QoIvfE/WASgXwOu5MI0c30A5+P++EkAnkMuDaxOUIUi2uwoIRO6AH+nnz9Z97jyljR9dTIr5/tAq72ZfgR2Cb9ddh03CtYssg0sZIkEBFEjeT9qQ/bFvEqNpzagPXVI7xaHkCavB0SiAiiRvL+tLXp+MwuJYXfoihEBjJPKkkgQoQggQgRggQiRAgSiBAhyM1ctNILHA+cDBxUf+05bOr0HmzqVKRE07zdzXxs81rQd/Uj/MY+roXYEmeaNzMaYokGv41FqQlLWnMIcC8WtqcSVH2INQVLK3YUtpl/CxaUYgn2S1oV5mIxbuP0h2HAV7HswI+4NKqMdMsQaxTwGcJdY5ZQjQASPaTLFPUY7iPP1FLYlesQK2+6QSB7Af8b07bnsCjlZWYuyb+zRjnKsW21FDbpGSQjXwLeEfOz04DbKFGyljZkybFxYm5WFJSqCWQB8O6Ex8zB8vCVlakZjp2WlxFFpWoCSdvR/zBXK4pFlnWN0q+JVE0gx6c87hAs6l8ZWZ3h2Gdys6KgVEkgvcD+GY4v68P6nRmOvT03KwpKlQQygG27TMuOvAwpGKuw1NxJuQtbWS81VRNI2iFBP5YTsaxchuWUjMurWE7A0lMlgUC6X0ow94pCL0BlZA1wGpZ+IIpfAmdSgecPFxR9oXAa6RJJLvJoYyeZCtxC8HX4FjDdoz21EFu8LBRWzRdrLfBXmJtJXL5GgmjgXc464BxsQuIkYEb99TXAcuz6iQwU/Q4C5j90VUzbbsFD2i4RSA3dQbwzAFwBPIBFijy8zWdeAD4OXE8FFsOa2ANLeDkD2BfYE/Pe3Qb8DJuo+DH2Q1gJqiiQBndiU5WzMae7fbDZmScw79aq5CzZH3P5PwM4mmi/sx3Aw8Ay4EYsMJuISTcMsYQxC9sDkiYaZqPsAm4CDnZkYy2FTRpiZeBA4DhgMjZ0iGIA2Ag8SHk2UI0APlIvWb//XuB87MH+WmxY2pfxnKWmqHeQwzC3iP4U9jXK41ggg27mjViW17TXIKrcT75plmspbCj0elURBXJ2SruCyhWO7XXFeOAHuBNHozwBTMjJ5lqK+iWQBByAzcDk3Qm6beGwB9v45VocjbKMfLbj1lLUrR2FCfgwNlWZN1c6OKdL3ou5h/jidOBij/V1DUW6g0zAfk1c/Uoe7cjuvBkBrMff3aNRNpB9q3ItRb26g8TkYixAgys+6PDcebIYG2r6ZjJ+71pOKLNALnF8/nPJ72HUJYs7WPe5Haw7F8oqkLnAoY7rGAVc4LiOPJhf0bpzoawCSRq5JC1F9wIYgV/39Fam0uUhk8ookB5sddcHx9CZ8X1cxnXaAGz9pWspo0DmYw+IPuih2OPsEZ02gHguPYWljAI5z3N953iuLy+WY0Gos/J1skVGKTRlFMhZnus7Bpjouc48eBgTSVbuxbYHlJKyCeRQdmdFaiVrVJKg44dhAQ+KyECnDeh2yiaQoI7aR/ZhwNPATxLWK7qcqgjkXiw5ThYGgKUB751MMffW6A6SkTIJZBzB/lFBHTspQecZTwkWxcRQyiSQ4wn+FV+Ww/kHgIeAlwPeL+JmKt1BMlImgZwU8PpK4Hny2Z/QD3wnYf2iiymTQIKyHTXuHvMynv8ITGRBw6x5dPmqsRhKWQRyAPDmgPeWYnux46ZdC2I/4O1YqKB2caGGAQsTnG8ktuKf9uF+ApazJOzOqCFWRsoikKA8ez/FsrGeTj6zTIuxLbwrEtrRzFjgy1gQ6A3AJuDqBPbNw56FfoEFc3sG/94DlaEsAjku4PVvY7+iee2JOLv+720J7WjQC9yK7VVphDQdB3wU+HyM+g/HMvS+vem1GVjK6gvbfF53kIyUXSBLgdHAKTnVMwtLx7aM9p1vNvCGkONPBE4IeO8DRLumX0PwHvtP0+WOgUWkDAKZTPuO9RpwDza7lGfghrPZPXRrpRc4NuTY34w495ER74c9R+0PzIw4XiSkDAIJ6pDLge3sHhblRWO4FjSbtSDk2KjV/Kj3o1LItcYT1hArI2UQSFCHXIoNOU7Pub55wBSCBXJMyLHLCA6KvRG4L6Luu0LeexbL4yFypAwCaefiMYA9oB+LG1f0xcCTtE8oM5fgbaZrgMvbvN4HvA+bIQvjb7BZr1Z2YTkDW+8YuoNkpNsFMob2+T0ewaZAXUX0aJy3nQvLSMIXJa/DhPtVbLr4C8DbMEFHsQabwfoWlkquH8tz8k6qkwXLK0X0QE3CaNq3odFxXQnkHdji41IsQ2wrUXvBfwh8FrN/K5b6LC6rseeq3noJy2OyFVvUHNXmvZ8nqDOKVwJe7yNeYtDK0InIive2nO81LFnnnBS2JCkXYeJc3fL6i7QPWLc38LdYGoXWc+3CduVdRvCM2znYHWc9tsDYXNYDjwJ/wtAfjOvb1Lcde456Tw7X4fewtBLtvvuvBLQlLrUU9ih4dQuTsIWyjdjU6/H1169MYUuScmu9nlnYw/MmTKyz29h4HvYrG+e8axnqtn95ArtubDl2LIMDV29i9501SiDfwyYOogQCFrxic9Pr/12vOwu1BO2WQBLyRApbkpRt2BApiotTnPt1ds/OjcGGKUmOn9PGjgMxh8vm4VaUQE7Fnm/iCIT69ZhLfqGQahF1OxdItz+kBzENeKvjOvYkeoX+QOwhPCkjsWgho4F3kTzE6aVtXnseSwKUJAHnAMmSmG7HcpCUJm9hWQWS9+JgEFGTAJcS7y7TjinY0Oz9KY69IEO9oomyCsRXwOYzCJ8JjOPdG8ZZWAbepIwl/wXSSlJGgUwkfDU7T6L2meyb8fztHvjjIhf4HCijQM7Ar1dr2N2qeTPTcqIfIJ/D1kgaTGr6e3MMW5o/s4hihB7tasooEF/PHw3iDucexjZJhfE8sKrp/81beG+PUUfzavo4wh0nRQzKJpC98B88YQo2temCxh1ogHihix7BXPEbnJq7RRWjbAI5hfZuFa4JumsN5HT+x4k3xNqLwT5dRQxF1FWUTSCdSjfmut6lxEs9vYjB24Fn052BtQtDmQQynM5NbR6KuZy0ktcdZBnxRDgfe8hvuM33EL1PXoRQJoEsJHw/uGtcTQ6sr/87NcZne7FhVfPGqoW5W1Qhut3dvZnVRD+gfxGLAtLK69iGpU8EvA/2fBPmdvFSm9fyuIPEvXs0WIw5bzYEG7ZHXkRQJoGsI3pfRdA6xDrgG9gYPkggKwjfe+GKZcC1CT5/AuY234/dUWZjDo+F9nItKmUaYhWRnQF/h9EcmKEPE2+SFfWRWHSURnC7LUQHexABSCBuuaH+7zZ27x9ppt3C4U3sdt3+S9KtZSwGfge7kyzAvGxFCso0xCoiVwP/ha1hbGzz/nnA3S2v3YI9kPcDLwD3p6j3t7B9KNelOFY0oTuIe1bTXhwQPOxaj4ljH4KTAoUxjuAIjiIBEkixOZP031GnFk1LhQRSbLKsrZyFvt/M6AIWlzFkGyb9BoOjwIsUSCDFZRHZHS99u/6XDs1iFZfbGBo2ZyVwUP3v+7AwRx9qen8ag0OTdmJhs1RIIMVlR7000+y6soWhUQu3oRXzXNEQS4gQJBAhQpBAhAhBAhEiBAlEiBAkECPOxqa8ts8Wiag29cf8TGmp2jRvUFyqzRHvl3VPxTMR7z9N9FrKqoj3u5qq3UFuCni9kVPjmwmPS0pfy/9b1yx+FXF8s0h3MlS0SRcGHyU4cejNWK6SDdhuy3Y8BDyYsM5KU6T8IO3oxfZINIYO/Vh6guYfissY3I47iE6pFpc/bzrvv9XrXVH//06iPXCvarL7Qmyn4db6a3EiL7ZjItbG5u9kCYNX8cdgImn+zHLM38slNZL3p1wXSnuiP5KIk0geF3clg6MB+mAqcDA2PFjb5v2JWLKZFxkcKzcPDsNyizyKfaHDsXA9G7DYvFHMxTpBY2izHzAT+zXP4loyE5iODbvWBnxmKvAmbBvw0xnqistkkgfw3omJVwghhBBCCCGEEEIIIYQQQgghhBBCCCGEEEIIIYQQQgghhBBCCCGEEEJ0iv8HYCijzCRt4YsAAAAASUVORK5CYII=;fontSize=19;fontStyle=1" vertex="1" parent="1">
          <mxGeometry x="410" y="327" width="100" height="100" as="geometry" />
        </mxCell>
        <mxCell id="UyLI5zCr4JLoSCVPqPzQ-20" value="" style="shape=image;verticalLabelPosition=bottom;labelBackgroundColor=default;verticalAlign=top;aspect=fixed;imageAspect=0;image=data:image/png,iVBORw0KGgoAAAANSUhEUgAAA0oAAAJ8CAYAAADAjlHpAAAAAXNSR0IArs4c6QAAAARnQU1BAACxjwv8YQUAAAAJcEhZcwAADsMAAA7DAcdvqGQAAG6PSURBVHhe7d0xixtLvv//T/+fhn+X9YI0ge3cbGuDdSgdBxMczAZncdYKbBiBMXjBoWENxtACn0DKDuvgYk4wgd0deoMrXZzbE0w33Fnu9eOofyCp1V1qtTTj0mjU/X5Bw6gllT32t6v6W1Vd5RljjHL+/e9/6w9/+EP+FOAUMQZcP6477Boxhl0jxrBrdoz9f4V3AQAAAAAkSgAAAABgI1ECAAAAAIuXf0bJ87ziuwAAAADQEPnlG7yLi4vs1e3bt7M3AAAAAKBJLi4usp9LR5Q+f/6cfQBw7cGDB8QYcM247rBrxBh2jRjDLj148ECyRpR4RgkAAAAALCRKAAAAAGAhUQIAAAAAC4kSAAAAAFhIlAAAAADAQqIEAAAAABYSJQAAAACwkCgBAAAAgIVECQAAAAAsJEoAAAAAYCFRAgAAAAALiRIAAAAAWDxjjMleeJ4k6fPnz/nP7M3335/ql1+/2actd3X37h/1l7/9VT/fv2W/mfNdvz/9RYXi7j7R+3c/a+23vrzVgxcfC6cevv6sZ/cLp65upfy7evL+nX62/kLb/TtId+/e1R//+Bf9+a8/q/KfYs8ePHhwY2LsJlj9/32o15+fqTrMvujtgxcqRM+T93pnBc8uy76yhsb9vq277i717/yXv+mvP99fX2div/Z8ba2Lsbr4/uV3/ec//6X/+fZNhVuJu3f1x7/8RX/+03b/Tri6usfYTMn96pprGW49ePBAkpRLjeowovRN37591K8vftGDp2/15bv9fnN8+/ZNHz/+qhe/PGj8vwWag7i/Ht++fdPHX1/olwdP9faL/S7qiGtr7vvvevv0gX558as+WkmSsmtj9u/09O0XNfWfCY58/2/9yw4yfdO//pvI2ocaJEo53z7qxS9vRRu++Ld4qt+5rtAkxP01+KaPLx6QLDVNU6+t77/r6S+/6uPKjWu5bx9f6Jenv5Ms4cq+//e/VpJxSfr2r/8mrvbgwBKlu7r78KEezo+7d+33Jemj/tmEmvzuXd3NHeW+6dcmNmyoL+L+GhTr2YcP76rsX/rjCzqlaoVrq8R3/f6PX0tuWu8ur4+yf6tvv+o/uThwJd/136vDSTPf/iUGla7fgSVKf9Tfnj3Ts/nx7t1nvX/90P5QA7Luh3r97p3e5Y7Pnz/r/esnerhSZ3/Tr/+gdwt1QNxfj2I9++zZO737/F5PVv6NG9Ip1QhcW6XKpkA9fK33n98tr4937/T59cOVzoSP/2zIvxHcKou5jMvpd9/15fe3evrggR4wAlrpwBKlVbfuP9NKrvTt3/o/61QT3Lr/s569ey37n4PeLdQZcX8dbunnvz9ZuRn89u8m1rTN0fhr6//+vTKa9PDPJYuZ3H+mv9n/SA29D8GPsafdPXzypHD9uRkI+KK3T3/Ri18/rsQ3Vh18olTq7h/0/+xzjXFfz96v3tB8/K8mtGpoLuJ+5279SX+x/4H/53/XNtrfv/yut0+fznoss+Opnr79fcOiAN/1+9P8d5bPQ33/8lZPn87KKRvMWvtnPn2r36v/0Mz371/0+9vyMr58ryqj6u89+3vly3v7+6E89M+1tY37z97r/fv8Ub266NpYrbo+vv9ufX7Ns4Jf3hY+s+56wU1jT7u7qz/86U/6Q/7i2zIBXxtfT9/q7dt/bvXM3doyqmK0huqZKP3xP1Z7fJqk7Ibm43/xPAHqjbi/IWYJQ/kKYd/0bb6K2mVXB/vy9ql+efFR30ob+A1/Zn5l1MJ7efMyfnmhXz+Wl/Hil18uPU3l++9Ps7/X0nwFwUuWtTdNvbb+3x9WE8QX61b/u6Vbt/KH/f7Chlituj5u/ay/W3NgV6f4fdfv/yxua6KHf2NZ6YPwf/p3IU/6i/5065b+VLj4Pqq6j2JDfH37qI8fv82es3s9T+r/bm+Ts6GMqhitocNPlL7/rpU64c9V/ThNYF9YkvQ/+t8mRDQajLjfv7L9P8p9+/hCv5R2h6/6n38+1Yu1XaDb/5n69lEvSpOTy5Tx6/YJzn+9rd6v6GCmsDX02ipLEPVxeZN46d9/+zhbd33c+vlvxamQdgx9+U+r/Id67WzzR+zUl/8q7F+46PS/9R9/zJ+tHM398tbeL/SuHj55oidP7AXQvunjf/1fSVL/4zFaNweWKP2P/vfLF32ZH7+/faqnv1gr0jx87W5D2ANmX1jSN/E4waH4qBfW9IrVo7gh7PZ2Wfb+Efc7VPaQsTV6//33f6zepL3/rM+fZ8f719YUro8vyqcOWb5lozF3dffuQz18+Bf9x+LNlb/XrKd08Wd+tqeNlawctfr3lu4+fKLX79/r/fvXemKvaPDtV/1ji7lMHz/OrqS7D5/o9euScjbc9Nwkzby2bunnlYePZr59fKFffnmgB0+3n0a5GmdXuT7u65n1YPZyVGl1NOnh6+opgLg5vvyX9X+36PS//+dicrxuNNceOLj7RO/fvdOzn3/Wzz8/0zv7ecOP/1yZkukmRuvlwBKlb/r1xQu9mB/29Ii7D1/rPVnSTMmUAaD2iPsd+a4v/7m6TPLdP+SfBl2dX//k/TPdz2VSt+7/rHf2Td6WicIs+Xmnd++e6dmzn5flrjxw/0f9ufCH/qy/v36t19nxN/3J6kFdWY734Wu9e/az7t+6pVu37uvnZ+9WFg369ut/lt+sFNzVk/efZ2XdLy+n6jmvG6Wp19b9Z3pfsqpdJtuI+cH8OTb7Awt2nP3A9WEvYrUYVbJHk+4+0V+5JToQX1TMk+5qWb3+v+JzSmum39kLQdz9y5+sKXX39eficKTV2eEwRmvkwBKlat8+vtA/GjJn8ir+p/bzJIBVxP1l/Y/++fat3mbHUz198IterAwzPtTf8g8+2CM7d/9iJSRz2/aO5tx98l7P8q11pY/6p9XDf+v+fd3PHcU8aXVE6knJ3eX9v9oLGmyeenb3yd9Xng25X7xTOWhNubZu3X+md2Uji5bZc2wP9NTupldJnP3g9WHH48d/vtXb4nCCnqw8e4Iby552V4iP1amvV01O/l8x4ypew45jtC5qlShpMRxe+cBuc/3xP8oiHqg34v6yvunbx4/6mB32w7wzK1N67JGdb7/qH0+f6unKYU/t3JxwVLIbbUnfFj38b3/X71++V3ee2X9v/VGlIXPrP1ScfGb3xjZPo66t+cji58/v9fpJxQiTpG+//rKaLNlx9qPXh72ww7ePhZXMypJ03Fz2tDt7WvPK1NcrJif/V1gtwrqGXcdoTRxYovRQrxfzzrP55yW9PN/YCHEl4HFASuJ85SjZ22Qruyz7BiDur8HsGSB7lvP3//2f4gnNni1aPexP/ajVZzYWvn38Vb+++CVLmsqmRa38vdduL2FPf2nOiIrEtbV0S/d/fqZ3nz/r8/v3ev3wbmnS9O3XfxSe/1iJMwfXx62f/16yEbRWR3txw9nT7koWJVvpEFqdfnfrT38pxOLq9GD7z8lP79tNjNbBgSVKJbaeP35LdkJeZ6sBX7wggDoi7nfn7t27evjktd5/fneJaXDX5P4zvX/9RHafWd5sSduntX/weFe4tkrcuqX7z97p3fvXJbH3Tf+yVw1xbs19zcM/s4DDIbGn3Un6+E97FOefq59ZyZR+tjY+/qgXD55m06if2gs1sWz8Vg4/UZqz511uNRS45cZdh8d+IE/rp5MAtUHcu1E+6vju3Ts9+9l6vqfK3Sd6X1LO6vHOSWN96/7PevZuPstg7dSob/r4gs03L49rq9Kt+3r2d/sZtg1cXB9f3pY8O9iMlcjqZGXanSStjOLY11/5QjD3n723Rhm/ZdOo8yVstfiZixitgdokSldTnUwdbA+a/UCe6GFCAxD3e7Uyh35fHVG37s+Wwv28Zmq21dO//d/b2gzSnt9fZw29tr68tbdOqHj+eeUZNulb7iG27eNsW1/0tjRLmvn4ouLvihvku1ZuNbdVstWBvv+f9MdlnVes/WbbK7x+/17vnq12ermP0XqoTaJkP6BWZnW1oaqh8UPtQfuu3/+xuozvynxXoFaI+71bWT66uiPqWty6r5+frT7Hkb+B3frv/f1/VbyfOZCOsx/GtbW0JjZUFh/W8vnbxtmWvv9enIp198l7vS8EOs9qH4SyToitWfew33/X019mW+csRoPeWSM/79490/3iDrNLjmO0LmqQKH3Xl9+frg4/ly1ruBIEqw9cLqxuunUAPWjfv+ht2Y7K7KWAOiPub4Zbf1JxBdtv+vU/V/u0v//+1pp7//sP9Xx///J7binzt/p9pbDV5zgKN7Db/r2tPUoOo+PsBzX82irrXP31H2WLgpTvM1YYcdw2zra5Pr7/rn8U/lNmizfc+vlvhQf+193f4OZYrVfKpz4vjpXn8f/139n0O7us//t+yf98lzFaIweWKH3Ui8J/zgM9ePCLXqzU4mUbbZU96KZZIPzyQA8ePNXTp2/19ulTPX3wQL+UlHlzetDsf4fZ3/nBLy8Ky4POsJcC6oK4v9lW9/rQxxd6mtvT6PuX3/WPXz8W597/8T9+rAPqf/+VW8r8o379p3Uj+91e6cmeMrfm7/32i75//67v37/ry9unK23C3Sd//bG/943CtVVqZaUxSd9+ne2V9HSenD99OrsPsTtr9VDFW4Y1cXbp62N1hG8Zi/f118Ko0iyxu+TtMq5Nycyltatuzqw8j182/U6LOP3Fmjo6O54+faq3v5cl/K5itF4OLFGS9YCb/ebc3Sf6+5ony+4/W7f08Td9+/ZRH7+V7xly9+HrleVw98p6yK/s7zzbVbneD9mhYYj7G61sueLFnkYPHjzQLy/sXvfyzV0vw+5FX9zIzjq/5jf7+fdXbmDX/L0/vtAvv/yiX375RS/sbKGijTlYXFslKpae/zZPzktvRO6u7jO2Ls4ueX2szHaxYrHsevgHw0o3U8m0u9JO/hx7CfD89Luy+Crz7ds3ffx1nvBbq36UlXHZGK2bw0uUNrj78Inev6vq7bqvZ5/flzzgu97dJ7MH3w7K3Yd63agGDSDu9++Wfn63bf16Vw9fu/i/uq9n78tWHCvpTLv7UK/fr97AXurvfXdTG1NTTb227j/T59L4WuPuQz15/25Nx+ol4qz0+vii/7RGNh/+zY7F1eRudbsU3AT2VDnprv6y8syIZWV6XH763S39/PfXK4lOlW8rKyT+aIzWTz0Spbt3dffhE71+/1nvntmVRplb+vnZO72fr4h0tyQesj1D3n/WuwOJgrt37+rh/N/h87tnumlbnQC7QNzfNFb9ar1b3I/JevOqbv2sd5/fz/dSKvszH+rJ6/d6XxkfVX/v5WpRnxuUJHFtzd36We8+f57FV9k9w927uvtwFmOf3z3bcONYFWfV18eXt9bo6Lpnxe7/1bpZ/qgXrBd+w5RNuyt5tn5FyfS4xfS7xWIOi2Ifvtb79+9zx2u9Ltk64eM/7emZV4/ROvKMMSZ74XmSpM+fP+c/Azj14MEDYgy4Zlx32DViDLtGjK3zXb8XFl55qNefy0bPZ/tvPcg/VNfUUfISDx48kCTlUqOajCgBAAAATWQ/77RhUQhsjxGlK/uitw/sh4S30bSHYVfRI3TIiPtDxXV30x3+tUWMYdeIsXVW64+7T17r7z9bG8t+/6K3/yiuZnn3yfuDecRk18pGlEiUruy7fn/7n/q3fXqjP+jPf/25uXO9qegOHHF/qLjubrrDv7aIMewaMbbel7cPSpapnz1TNFOywE3VFL0GIlHCjUBFB1w/rjvsGjGGXSPGqnzX72//oV/t7QzWuftQr//e4EVaSpQlSjyjBAAAABy02Wp1n7MVne316hYrND6Zr+BJkrQNRpRw7egRAq4f1x12jRjDrhFj2CVGlAAAAABgCyRKAAAAAGAhUQIAAAAAC4kSAAAAAFi8i4uL7Iml27dvF98FAAAAgIa4uLjIfi5d9S6/2gPgmud5xBhwzbjusGvEGHaNGMMuleVBTL0DAAAAAAuJEgAAAABYSJQAAAAAwEKiBAAAAAAWEiUAAAAAsJAoAQAAAICFRAkAAAAALCRKAAAAAGAhUQIAAAAAC4kSAAAAAFhIlAAAAADAQqIEAAAAABYSJQAAAJfSoTqeJ29+9GP7A5vE6ue+3xmm9gcAXINmJUpprGG/U6i8PK+jTn+o+DJ1kKty8uL+sqzL16jA1RDLQDniGA6NXw11mSo1Hb7S2D4JlMon1R1V5dRxP9/Wbzg6l4vZumpMopQOO/LaPQ3GU00L70w1HQ/Ua2/XY+OqnLw07qvTo0rE9SKWgXLEMZybDvRm63w71ptBsVYG1on7PZLqHWpGohT31c5VOn4QKowiRVGoMPCz89NBu3p43FU5mVRxv6N2b2zdqAI7RiwDJYhj7M62o0qMJmFrcV/b9+mkOv86/9EPFUVR9fHyJ7WsEhrJ5Egy1qkaiEww/70kmSBK7A8YEwXZ+1JgIvt9YxyWY4xJIhMGvvFz5RWOYO03a6F+MXZoiOUm4rqrQBw7QYzlJGFpPG0OpWL9vDj8sKSebiBiLK8sVnyzPlQSE/rEU5XFv2Ne/UeU4tNlz0wQadQtyY+7I0XB4sVYr8qmG7kqR7H61nQnPwiVJKGW/fjADhHLQA5xjB0LQoXzYBr3+qoapF+OJvkKw6wSBlYsp9wFChcBVinRGUPll1b7RCk+XY5JBsfdwnt53eNlhTQ9SwrvyWE5BX6gMEo0GZ0wvIlrQywDaxDH2Ikjnbxc1KfrOp5UfDYpeKmTI/t9YCYddrIpd0E00k/2Bza4d0QNt62aJ0qxlveEgSruCaXusZYd6KdWj4+rciSpredRosQYmclIJ2W9+cDOEMtAEXGMa9B9no0qTQdvSurT/GhSoGhUVTmj0dKhHmcJdaStQyU91+IRJWyv3olSPij8O2oX37W0dScbufyq83yHj6tyJEkttboteiuxH8QyYCGOcR1aG0aVlqNJfvhc2977omlSDR8P5tOEr5pQ+7pT3fgjp96JUt69ow0NYUtH9+xzJVyVA+wbsQwA16diVCn/vMnLk+qaGc2VDh9rOZg0ulxCnZwVVvNM46H6nU5h76ROp6P+MN5qdcamqHeiZAXF9qYqPJLhqhxg34hlANiTNaNK6VCv5lOiGU3CWrkpd36YbD/lrsTZm47avYHG0+IdwXQ61XjQU3vDxrVNUu9ECQAA4KbIrSg6HTzWMJXiN8upVIwmoVxuyp0f6rcrxEmabaI01Xg8lXxfQZjbNykM5GfT7acatEmWRKIEAABwfbrPF0vPTzV402c0CRvF/fZ8yp2v8Lerrsp5T77vy/d9BVEiM5lodNJVtzs/TkaaTIySbKnxqQaPt9skuc5IlAAAAK5L60TLGXhjRpNQLe5nS4H74W+6api0TkaaTCaaTCbl+yfOtU5+y56l0/SDPjU8U6p3otS+c8UNA60VQVyVA+wbsQwAe7ccVZphNAnlYvWXWdKVptxdXks/PVqOKjX9+eR6J0p5X883DB+myqZvVnFVDrBvxDIA7Ed+VInRJKyRXw0xmlx1yt2P+bq6N0ij1DtRah0pW914eqbqpDjRWbb4xz0VNi12VQ6wb8QyANwI3ZGRMUbGXHKZZzRDfspdcEeKY8Vrjk9ny6+dfVqeT5ud4zhR70RJXR1nPTZjnZZthb0Qn86zdknBsVVpuSoH2DdiGQCAQzIdD9Tr9dYeg/GiV3O2vPfi/Jt5b2g6XO6X1K9q9+eSZS+p7jW8l7TmiZLUXd4ValxxVxifZreE8ksexnBVDrBvxDIAAM3Ryu0eX9Xuz8RaNv88n1z7REndYy070HvqxyXjkLnhzbVzhV2VA+wbsQwAwM3WHc2nZm4+lkt6+wqT5flsU1qr3e+s3SApzT0XJSl4eeVV9urCM8aY7IXnSZJyp+oh7stb3vXJD0I9Oj7Skc51fvohN2QpBVEusGyuylGqNE6Kz4ecn+rVYL5MqB8qenmUe7Otdre1l4f4dsHzvPrF2KEhlhuH664KcewCMZaTDtVpzzcIDSKZ9ZXoerl62g8TTZp+x0qMrZUOO2oPpvNEaVKe3MR9dXqL5eg123D20SMdH83qtvPzU31Y1HnSbAGJhj0/V5oHmRxJxjpVG0noZ7/fusMPE/trK9yUE5mg5Hvrj8BEdhEHTDWNsUNDLDeLuO4qEMcuEGM5SWj8RbwEV4yWKMhibnNd3AzEWLlle+6bylBJQhP4dn1WcviBiarKqanF759X/6l3c62TiUwSKQx8ax8ZX34QKkrMVr01rsoB9o1YBgCgQVonGk0SJVGowC9p+/1AYZTITEaq2JO2UZox9Q43CkPnwPXjusOuEWPYNWIMu1SWBzVmRAkAAAAAtkWiBAAAAAAWEiUAAAAAsJAoAQAAAICFRAkAAAAALCRKAAAAAGAhUQIAAAAAC4kSAAAAAFhIlAAAAADAQqIEAAAAABbv4uLCLF7cvn27+C4AAAAANMTFxUX2s2eMyRIlz/MkSblTgHOe5xFjwDXjusOuEWPYNWIMu1SWBzH1DgAAAAAsJEoAAAAAYCFRAgAAAAALiRIAAAAAWEiUAAAAAMBCogQAAAAAFhIlAAAAALCQKAEAAACAhUQJAAAAACwkSgAAAABgIVECAAAAAAuJEgAAAABYSJQAAAB2KR2q43nyLnX0FdvlALhWzUqU0ljDfseqrDrq9IeKU/vDFVyVkxf3l2X1qRpxTYhlIJPGQ/U79vXgqdPpa3jlCwIA3CivozqXr6N20fbXlGeMMdkLz5Mk5U7VRjrsqD2Y2qcL/DDR5KRlny5wVU5eGvf1uDdWVmoQyYy6xQ/ViOd5tYyxQ0MsNwvXXZVY/U5P4+rLQfIDRb+N1N3+kmgUYqxCOlSnPZjVjX6g8OWxjuzPrGir3W2JcFtqbIylsfqP3dRRu2j766I0DzI5kox1qh6iIPvdJBk/CE0YRSaKQhMGfuG9ILK/nOOqnExiIut7koy2+/LBUh1j7NAQy43DdbdOZAIrbv0gMEEYmSgMTBD4xi+8HxiiuhwxViEJl3Hkhyax38dWmhljdh3lmyAITRRFJooiEwbB9nWU87a/Xha/e+Fc4UXJBw5fMcCCqKR6KgTOugBzVY4xJolMuNL45o6aR2f9YuzQEMtNxHVXLglzNwdrb2ATE/rLuPbD8k81HTFWgUTJiSbGWBQU29Ty2EkKnyuvoxy2/TW1+N0L5wovSj5w8PL/6RU3bRsDzFU5Kz0Ds4w+yVeiFeXXQe1i7NAQy43EdVcmnwD5pjTMF7jR3YgYq0D8ONG8GMu3s5sSl9xny2LMWdtfX4vfO6/2iznEp+Ps5+B4/bMS3eMg+3l6lhTek8NyCvxAYZRoMjphDjKuDbEMzKWf9GExVT94qcop+a2f9Mif/zw904YrAgB+XHqur4ufg2Otb7Elqa07FXXUTtr+Bqh5ohRrGReBKuJC6h4rC43xqbUkp6tyJKmt51GixBiZyUgnVU/cAc4Ry0AZ/07bPgUA+9U60WQ2++tyCyP5d1Ss0Vy2/c1S70Qpn4mvBI0tl4nrq87zyyO6KkeS1FKLVWywL8QysJS7Cdm8wlOis+qFogBgf/Ij5PeOim2z07a/WeqdKOXZQbOipaN79rkSrsoB9o1YBrYXn2rZIbtpCgxQ5Uyf4lhx5ZGq4fenuJRUw8fz5eflK3xeUUPR9l9KvROl5Gy5n8ulTFWYlumqHGDfiGXgClINX203vx/YaDrWoNdTr/J4s/KMCbCQpsukerZxbFuzrZF8hclk9XlL2v4rq3eiBADAD0qHj+c3IbNNlC/zqAAAuJa8WSbVg/FUU0l+ECkxJUkSfgiJEgAAa6Rxf7mLvR8qIUvCj/LD2SI4lceI6Z24lOm4p3anr2HMpE2XSJQAACiRDjtq9xZT7gJFE5a/B7B/3VEuqU4SRWEgX4tpnW11hiRLrtQ7UWrfmQXOpfkqrBTrqhxg34hlYCvpsJMbSQoU0cMP4CZqtdQ9GWliIgXzBn46eKxCrkTbf2X1TpTyvp5vWEEm1Xm2dmIFV+UA+0YsAyVSxf18khQqmZAkAbjpuhq9XOyANNWHT2taeNr+S6l3otQ6UrbCYckuxUX5PTLu6Sg/v8JVOcC+EctAhVTDTlu98XyR3SBSwnQ7AHsS9z15nifP62+38Wtu5GiaX66Otv/K6p0oqavj5fbCOq2Ksso9MlyVA+wbsQyUSmP1O4sldiU/TDQZdUmSANwAP7rxK23/VdU8UZK6y8jQuCIy4tPlHhl+yYRMV+UA+0YsA5Z0qE67p9lAkq8gSjRhjV0Ae7Zsr6cavFnfXi+knz5k+yXZ7TZt/9XUPlFS91jLJLqnftmyiXFf2cJGCvSyrIF0VQ6wb8QykEnjvjrt3I72yUSjLvEO4Aaw2uvOMF77fFEaD/U42/DN16OfrHqMtv9KPGOMyV54niQpd6oe4r685f+8/CDUo+MjHelc56cfNJjPR5ekIDLrNxN0VY5SpXFSnCN6fqpXg/GssfZDRS+Pcm+21e62ajMFxPO8+sXYoSGWG4frblVhZTv5CsKXOs6Ha5V2W90WkZxHjFVIh8uE3A959u2KGhljcV+d3rxNlWZ1VfBIx4vK6vxUpx/G8xHx+SfCNaPiztr+eirNg0yOJGOdqo0k9LPfb93hh4n9tRVuyolMUPK99UdgIruIA6aaxtihIZabRVx3lsSEvh2flzgCItlGjFVIQuMvYscPzaaaFeUaG2NJaIKt6ivfBBvabTdtfz0tfv+8+k+9m2udTGSSSGHgW2vJ+/KDUFFiyrNvi6tygH0jlgEAOACtE40mRkkUKvDtNlvyfV9BGCkxE402tNu0/ZfTjKl3uFEaOXQO7BnXHXaNGMOuEWPYpbI8qDEjSgAAAACwLRIlAAAAALCQKAEAAACAhUQJAAAAACwkSgAAAABgIVECAAAAAAuJEgAAAABYSJQAAAAAwEKiBAAAAAAWEiUAAAAAsHgXFxdm8eL27dvFdwEAAACgIS4uLrKfPWNMlih5nidJyp0CnPM8jxgDrhnXHXaNGMOuEWPYpbI8iKl3AAAAAGAhUQIAAAAAC4kSAAAAAFhIlAAAAADAQqIEAAAAABYSJQAAAACwkCgBAAAAgIVECQAAAAAsJEoAAAAAYCFRAgAAAAALiRIAAAAAWEiUAAAAAMBCogQAALBL6VAdz5N3qaOv2C4HwLVqVqKUxhr2O1Zl1VGnP1Sc2h+u4KqcvLi/LKtP1YhrQiwDmTQeqt8puR46fQ2vfEEAwA5coa2N+/m6bcPRGYpaT/KMMSZ74XmSpNyp2kiHHbUHU/t0gR8mmpy07NMFrsrJS+O+HvfGykoNIplRt/ihGvE8r5YxdmiI5WbhuquQxuo/7mlcfTlIfqDot5G6218SjUKMVUiH6rQHs7rRDxS+PNaR/ZkVbbW7LRFuS8TYzFXb2rjvqTe2z67hh0omJ42Kv7I8qBmJUtyXl4sMPwj16PhIRzrX+ekHDXKtYxAZrY01V+VkUsX9x+rZrfOWAX+oqOhuAGK5cbju1onV93rKXQ0Kgkc6Pp7dxp6fnurDOHdDokCRGYmoXkWMVSgkSs27AXWFGPuRtjbVsNPWYDqLwejlplS9rW7DeoVK8yCTI8lYp2ogMsH895JkgiixP2BMFGTvS4GJ7PeNcViOMSaJTBj4xs+VVziCtd+shfrF2KEhlpuI665cFBTjteRqMMYkhc/5Yfmnmo4Yq5CEy3rSD9fEGTZpbIw5aWsTE/rUYVUW/5559X9GKT5d9hQGkUZl2XF3pChYvBjr1bBkVqarchSr3+5pMJ5mPZR+ECpJQvnWJ4GdIJaBuViny4tB0ai7ppe/pe4o0uKSmH74xNx9ANfEVVub6GzT9GKsqH2iFC9bQQXH64clu8fZXaGmZ0nhPTksp8APFEaJJiOG4HF9iGVgLj3X18XPwfGG6XRt3VnclUzPtOGKAAD3HLW1945+5NvNUvNEqdhbWHFPKHWPs95CjU+tJTldlSNJbT2PEiXGyExGOinrzQd2hlgGMq0TTYyRMWaL+f05/h217XMAsBOO2tp8xxC2Vu9EKR8UGxu2XG+hvuo8P6/CVTmSpJZarGKDfSGWgatJP+nDYtrKvSPiHsA1cd3W+rpT3fgjp96JUt7Ghq2lo3v2uRKuygH2jVgGtpRq+Hi+Ypl8hc8vMfoErDjTpzhWXHmkPAcHt5Kz3Oqdy33j8nsndTod9YcxsZdT70TJCortTVV4JMNVOcC+EcvARmm6vGGdbcg8X1JXvsJkoktsLQasmo416PXUqzze8BwcdubsTUft3kDjafGOYDqdajzoqe11VLqGUwPVO1ECAOCSkjfLG9bFSlN+ECkxJEkADlN6vph4P9V4PJV8X0EYKYrmRxjIz6bbTzVokyyJRAkAgM2m457anb6GMXcO+EF+OHswv/JgU2O4dk++78v3fQVRIjOZaHTSVbc7P05GmkyMkjBb3lODx8PGT8MjUQIAIKc7yt2wJsmsp1WLKVNtdehmBXBgWicjTSYTTSaT8v0T51onv2mZK33Qp4ZXd/VOlNp3LrkZ14K1IoircoB9I5aBy2m1Zj2tJlIwv3img8dMSQFQUy399Gg5qtT055PrnSjlfT3fMHyYKpu+WcVVOcC+EcvAJXQ1ernYWWyqD03vZgXQCF9X9wZplHonSq0jZasbb9xJPdFZtvjHPRU2LXZVDrBvxDKQifuLZXH7JRsql8iNyE6b3s0KAA1Q70RJXR0vOgA11mlVSxifarz4OTi2HqJ0VQ6wb8QysKpsQ2UAqId0uNwvqV/V7s8ly15S3Wt4L2nNEyWpu7wr1LjirjA+zW4J5Zc8jOGqHGDfiGVgZnktTDV4s/5aWEg/fcj2IeOaAHAoWrnd46va/ZlYy+af55Nrnyipe6xlB3pP/bKlXeO+esuuc70s2yjDVTnAvhHLwIx1LXQqdqRP46Eez3adleTr0U9cEwAOxEpdt7amU9zv5WaTvGz83nGeMcZkLzxPkpQ7VQ9xX97yrk9+EOrR8ZGOdK7z0w8ajJdDjEFkNFo3x8hVOUqVxknx+ZDzU70ajGe9lX6o6OVR7s222t2W6hKrnufVL8YODbHcOFx3a8R9dXrzeJUk+QqCRzo+nsft+alOP4yVuyTkh4kmTb97KEGMVUiH6rQHWb2YTE6oB6+guTHmoK216zrfV/DokY6PZt87Pz/Vh0V5kqRAUcP28yrNg0yOJGOdqo0k9LPfb93hh4n9tRVuyolMUPK99UdgIruIA6aaxtihIZabRVx36yWhCXw7VssO3wQbr4nmIsYqJKHxF3Hkh4Youprmxpijtnbbus4PTNTAIF38/nn1n3o31zqZyCSRwsC39pHx5QehosRs1UPoqhxg34hlYK51otHEKIlCBb59PWi2k30YKTETjbgmAByq1olGk2RNXefL9wOFUSIzGaliT9pGacbUO9wozR06B/aH6w67Roxh14gx7FJZHtSYESUAAAAA2BaJEgAAAABYSJQAAAAAwEKiBAAAAAAWEiUAAAAAsJAoAQAAAICFRAkAAAAALCRKAAAAAGAhUQIAAAAAC4kSAAAAAFi8i4sLs3hx+/bt4rsAAAAA0BAXFxfZz54xJkuUPM+TJOVOAc55nkeMAdeM6w67Roxh14gx7FJZHsTUOwAAAACwkCgBAAAAgIVECQAAAAAsJEoAAAAAYCFRAgAAAAALiRIAAAAAWEiUAAAAAMBCogQAAAAAFhIlAAAAALCQKAEAAACAhUQJAAAAACwkSgAAAABgIVECAABwKR2q43ny5kc/tj+wSax+7vudYWp/AMA1aFailMYa9juFysvzOur0h4ovUwe5Kicv7i/LunyNClwNsQxskL9h7Yj7VVzF+NVQlwmddPhKY/skkPcDbW0aD9XvlLT9nb6GV278a8rkSDLWqdpIQj/7/dYdfpjYX1vhqpy8JAqMny8jiOyP1IpqGmOHhlhuFq67q4mC/DXhm0teEo1CjOUkYbEulMz21WFkgh+si+uKGJu5clubRCbwi7FVeviBiRoYcovfP68ZI0pxX+3BNHvpB6HCKFIUhQoDPzs/HbSrh8ddlZNJFfc7avfGWpYKXANiGdgs7qtHtz4c2XZUidEkrPcjbW2sfruncfZFX0EQKooiRVGkMAiUtf7TsXrtvrZq/usunzWVZVKHr9gzE5SlyFGQy6QDU56XuypnltGHgb/S25Qd2/YMHKj6xdihIZabiOvuslZ79RlRqkaM5ZSMKM3qW/uDtrK4Y0RpobEx5qCtLYyOB5Epj6ik8Lmmxd3i9y6cK7wo+cDBy9/wVQTSxsBwVU5JJegHoUnylWpF+XVQuxg7NMRyI3HdXc4y/gMTZtNUSZSqEGM5hXowNGE23ami46kwJdo3Ybisq8vr4OZpZoy5aGvzZVTHYOGzfrgmoaqnxb9vXu2n3sWnywHs4LhbeC+vexxkP0/PksJ7clhOgR8ojBJNRidq2e8BO0IsA9XSYSebchdEI/1kfwC4lCOdvFzUp2O9WrsiSKw3iynRwUudHNnvo/Gu2tam5/q6+Dk41vqWX5LaurOYgzc904bWv/ZqnijFWt4TBqq4J5S6x8puC8en1rxMV+VIUlvPo0SJMTKTkU66lwp14AcRy0CldKjH2c1qpFHVNQJsq/tc4fzmczp4U1Kf5p9NChQReMg4aGtbJ5rMZpHJXCa2/Dtq2+capt6JUj6D3vifncug9VXn+Q4fV+VIklpqdVuX6wkAXCGWgQqpho8H84ekuVmFS60No0rL0SQ/fL6hxx/Ncs1tbfpJHxYLPtw7ur4/94aqd6KUt/E/u6Wje/a5Eq7KAfaNWAYK0uFjLQeTRtyswq2KUaW438tGk16eVNfMwO7kO4t8hc+pBeudKCVnV1g+UZKmKjyS4aocYN+IZaBcbsqdHyZMucMOrBlVSod6NZ8SzWgSrlOaxorj2THbfL497yzyFSYTkbPXPVECAGCjXC+qH+o37g6wK92RonmuNB081jCV4jfL6Z6MJuE6JW966vVmx2A81VSSH0RKDEnSAokSAKDR4n6uF/W3S64mBVxS93k439hzqsGbPqNJuFGm457anb6Gsf0cXTORKAEAmivuZ0uB++Fv9KJi91onWs7AGzOahL3pjuYr4RkjkySKwmCWxE/HGvTa6qwsOtI89U6U2nfmvTaX5etOfjkwV+UA+0YsAzmx+sssiSl3uDbLUaUZRpOwd62WuicjTUykIFt0ZDY9tMnqnSjlfT1X9f91qvNs3eQKrsoB9o1YRsPlVxqLJky5wzXKjyoxmoQbpatRFpxTffhUfadQd/VOlFpHylY33ri7cKKzbDmwezrK11muygH2jVgGZvJT7oI70nzlp7Lj09nya2eflufTZt8/4Actpz2xFD12K+578jxPntcv3ex4RW72ybThS97WO1FSV8dZj81Yp1XREZ/OexYlBcdWpeWqHGDfiGXANh0PspWfyo7BeNFjMNV4sDz/ptn3DwAOTtnm8ahS80RJ6i7vCjWuuCuMT7NbQvklD2O4KgfYN2IZAIDmWLb7Uw3erG/3F9JPH7I9F5ve/tc+UVL3WMsO9J76Zcsd5qZgrJ0r7KocYN+IZUDqjparPW04knAxCcVXmCzPsyktgINgtfudYbz2GeU0Xm6+Lfl69FOz23/PGGOyF54nScqdqoe4L2951yc/CPXo+EhHOtf56YfctAopiCoaP1flKFUaJ8XnQ85P9WowXybUDxW9PMq92Va726rNg8ae59Uvxg4Nsdw4XHdXlw47ag+m80SJjRjXIcZy0qE67flGskEks74SXS9XT/thogmB1+AYc9DWxn11eovl6CXJVxA80vHx/Hvnpzr9MFau+W9c3JXmQSZHkrFO1UYS+tnvt+7ww8T+2go35UQmKPne+iMwkV3EAVNNY+zQEMvNIq67K1teK77ZeEk0GDGWk4TGX9R7wRVrvSi4RF3cDM2NMUdtbRKawLc/W3b4JmhgzC1+/7z6T72ba51MZJJIYeBb+8j48oNQUWK2yppdlQPsG7EMAECDtE40mhglUajAt9t+yfd9BWGkxEw0ov2XGjP1DjdKc4fOgf3husOuEWPYNWIMu1SWBzVmRAkAAAAAtkWiBAAAAAAWEiUAAAAAsJAoAQAAAICFRAkAAAAALCRKAAAAAGAhUQIAAAAAC4kSAAAAAFhIlAAAAADAQqIEAAAAABbv4uLCLF7cvn27+C4AAAAANMTFxUX2s2eMyRIlz/MkSblTgHOe5xFjwDXjusOuEWPYNWIMu1SWBzH1DgAAAAAsJEoAAAAAYCFRAgAAAAALiRIAAAAAWEiUAAAAAMBCogQAAAAAFhIlAAAAALCQKAEAAACAhUQJAAAAACwkSgAAAABgIVECAAAAAAuJEgAAAABYSJQAAABcSofqeJ68+dGP7Q9sEquf+35nmNofAHANmpUopbGG/U6h8vK8jjr9oeLL1EGuysmL+8uyLl+jAlfjKJbTeKh+xy7HU6fT1/AyBQE3BXUyHBq/GuoyNWE6fKWxfRKNd7W2NtWwU/z8pY7O5WK3dkyOJGOdqo0k9LPfb93hh4n9tRWuyslLosD4+TKCyP5IraimMXZo3MRyZAJ/9Xsrhx+YaFNR2Clx3W2taXWyK8RYThIWY0gy24dRZALru5vr4mZoboz9SFubmHCb7647/NCsFFlTi985z5u/IUnyPG+RPOVzqcMX9+X1ln0zfhDq0fGRjnSu89MPGoyn2XtBZDTqZi+LXJWTSRX3H6uX+54kKYhkNn/5YHmeV78YOzROYjlW3+sVej39INC9O8c61qlOz77q63iqXEmKzEilRWHnuO620cw62RViLCcdqtMe5Oo/SX6oZHKiVv5ciXTYUXtQjEE/TDQ52fTN+mtmjP1oW5sqHr7R6Vl2Ygu5MreM2zoozYPyWVNZJnX4ij0zwWqqbUwU5LLnwJR3+rgqxxiTRCYM/JXepuzYvtvpINUvxg6Nm1gujEit7XEq9mTRK7o/XHcVGl4nu0KM5ZSMKGmrUaXV0STqzqUmxtg+2tr8n7k5Zutj8TsXzhVelHzg4OVv+Cr+t6NgQ4C5KqekEvSD0CT5SrWi/DqoXYwdGiexnK+UfbPydl4+ttdW8tg1rrt1qJNdIcZyCvET5urL8o6nheUNqm/CcFlXr9bBzdS8GNtHW5urE3+onMOzuN7yar+YQ3y6HKwMjtdPnegeB9nP07Ok8J4cllPgBwqjRJNRM4Y0cTM4ieX0kz4sxvmDl6qcEdL6SY/8+c/TM224KoD9oU7GThzp5OWiPh3r1doV7GK9WUy5C17q5Mh+H42zh7Y2v5BI8JK6sOaJUqzlPWGgintCqXus7LZwfKriGkeuypGktp5HiRJjZCYjnXSbHoK4Xi5jeca/07ZPAQeEOhnXoPtc4fwmdjp4U1qfLm9QA0U8EwfL9bS1uWTdD/WcMKx5opSe6+viZ/+OqkOsrTuLTFxfdZ7v8HFVjiSppVa31fgMHXviKpZbJ5rMpu5u8YBxojPr2Xjg5qBOxnVobRhVWt6g+uFzFr3BzDW3tYwmrap3opR372jDf3hLR/fscyVclQPs23XFcny6XK0nOOYGAEAzVYwqxf3FqmaBXm68IQZK/HBby2hSmXonSslZcWnOrU1VeCTDVTnAvl17LKcavtrumSgAqLc1o0rpUItqktEkXM2Pt7WMJpWrd6IEYK/S4WNl24EE0Zr9mACgIbojRfNcaTp4rGEqxW8W+y0xmoSr+fG2ltGkdUiUAOxEGveXmyb6oZLL19wAUDvd56FmM/CmGrzpM5qEH+KirWU0aT0SJQDOpcOO2r2s2lXUkF29AWCj1omWM/DGjCbhyty0tYwmVal3otS+M++1uSxfhVUYXZUD7Ns1xHI67OR6twJFZkQvKQDkLEeVZhhNwmW5amsZTapW70Qp7+u57MU4i1KdZ+smV3BVDrBvzmM5VdzPV9yhksnVKm4AqLX8qBKjSbgUh21tOtRjRpMq1TtRah0pW9144y7F+fXn7+koX2e5KgfYt53Fcqphp63eePYFP4iUXGkKAAA0Q3c02x/HXHEkAE3ktq1dLiTCaNI69U6U1NVx1mMz1mnZVtgLlevPuyoH2LcdxHIaq99pZyvu+GGiyahLhQsAgCuu29rcsvSMJq1X80RJ6i7vCjWuuCuMT5frz/slD2O4KgfYN6exnA7Vafc069zyFUTJFruHAwCAre2grWU0aTu1T5TUPdayA72nflzyVEbcV7ZoyLq5wq7KAfbNUSyncV+d9qKi9RUmE426q58DAABXs5O2ltGkrXnGGJO98DxJUu5UPcR9ecu7PvlBqEfHRzrSuc5PP2gwn+spSUFk1m/U5aocpUrjpPh8yPmpXg3my4T6oaKXR7k322p3W7XJ9j3Pq1+MHZofjOXCajvyFYQvdZwP2SrttrqtukTz4eC6q9LsOtkVYiwnHS5vboNIxq5Et5Grp/3wx0cQ6qBpMbartjbue1lnaFkb31SleZDJkWSsU7WRhH72+607/DCxv7bCTTmRCUq+t/4ITGQXccBU0xg7NFeP5cSE/upntz6COkXz4RDXXYVm18muEGM5SWj8H63zoiCLufK6uHmaFWM7amvzsemHhshaWvzb5dV/6t1c62Qik0QKA9/aR8aXH4SKErNVb42rcoB9I5YBAGgWnk26nGZMvcON0rShc+Am4LrDrhFj2DViDLtUlgc1ZkQJAAAAALZFogQAAAAAFhIlAAAAALCQKAEAAACAhUQJAAAAACwkSgAAAABgIVECAAAAAAuJEgAAAABYSJQAAAAAwEKiBAAAAAAW7+Liwixe3L59u/guAAAAADTExcVF9rNnjMkSJc/zJEm5U4BznucRY8A147rDrhFj2DViDLtUlgcx9Q4AAAAALCRKAAAAAGAhUQIAAAAAC4kSAAAAAFhIlAAAAADAQqIEAAAAABYSJQAAAACwkCgBAAAAgIVECQAAAAAsJEoAAAAAYCFRAgAAAAALiRIAAAAAWEiUAAAAdikdquN58i519BXb5QC4Vs1KlNJYw37Hqqw66vSHilP7wxVclZMX95dl9akacU0cxXIaD9Xv2OV46nT6Gl6mIGCPiGMAN9mP1lFxv/i9yqMz1OYS688zxpjshedJknKnaiMddtQeTO3TBX6YaHLSsk8XuConL437etwbKys1iGRG3eKHasTzvFrG2KFxE8ux+p2extXFSH6g6LeRulVFYae47qoQxy4QYxXSoTrtwayd9wOFL491ZH9mRVvtbkuE21JzY8xNHRX3PfXG9tk1/FDJ5KRR8VeWBzUjUYr78nKR4QehHh0f6UjnOj/9oEEu8oLIaG2O4qqcTKq4/1g9O/JJlLBrTmI5Vt/rKV/n+kGge3eOdaxTnZ591dfxdNkBoECRGam0KOwc1906xLErxFiFQqLUvBtQV5oZY67qqFTDTluD6SwGo5ebUvW2uusyrpoqzYNMjiRjnaqByATz30uSCaLE/oAxUZC9LwUmst83xmE5xpgkMmHgGz9XXuEI1n6zFuoXY4fGTSwnob/8jB+aklKMMYkJ/eWf5Yfln8Lucd2VI47dIcYqJOGyzV8bZ9ikiTHmro5afqb8fSz+/fLq/4xSfLrMwoNIo7LsuDtSFCxejPVqWDIr01U5itVv9zTIZf9+ECpJQvnWJ4GdcBLLqT59yCJY4W/rekdbOvltGdvTD5+Y84wbhDgGcJO5rKMSnW2auocVtU+U4tPlYGVwvDoQudA9zu4KNT1LCu/JYTkFfqAwSjQZrQt8wD0nsZx+UlZ3By9V+RhT6yc9ymrvM224KoDrQxwDuMl2VEfdO6oqCHk1T5RiLe8JA1XcE0rdYy070E+tJTldlSNJbT2PEiXGyExGOinrzQd2xmUsz/h32vYp4OAQxwBush+uo9JzfbXPYaN6J0r5oPDvqDrE2rqTzX37qvP8mKWrciRJLbVYxQb74iqWWyeaGCNjzIZV8cRwP24u4hjATbaTOsrXj+ZcTVLvRCnv3tGG5KSlo3v2uRKuygH27bpiufBM1HHJSjzAASCO4cyZPsWx4sojLXnGBKiwqY5KznIr4y33ZMrvndTpdNQfxsReTr0TJSsotjdV4ZEMV+UA+3btsZxq+Gq7Z6KAm4s4hkPTsQa9nnqVx5vKZ0yAosvVUWdvOmr3BhpPi3cE0+lU40FPba+jlTWcGqreiRKAvUqHj2d7Nmixwp71AeAAEMcAbrJt6qj0fDHxfqrxeCr5voIwUhTNjzCQn023n2rQJlkSiRKAXUnjvtqLmtsPlZTV3MANRxzDOT+cLehUeZRtGAqs2r6Ouiff9+X7voIokZlMNDrpqtudHycjTSZGSZgtnafB42Hjp+GRKAFwLh121O4tpgEEitiFHgeIOAZwk12mjmqdjDSZTDSZTMr3T5xrnfymZa70QZ8aninVO1Fq37niJq7WiiCuygH27RpiOR12cr1bgSJ6RnGAiGMAN9nu6qiWflpuyHTF55Pro96JUt7X8w3Dh6my6ZtVXJUD7JvzWE4V9/MVd6hk4qriBq4LcQzgJrveOurr6j43jVLvRKl1pGx14w27FBfXn7+nwqbFrsoB9m1nsZxq2GmrN559wQ8iJRVTAICbiTgGcJNRR123eidK6uo4WPw81mlcfLegcv15V+UA+7aDWE5j9TvtbMUdP0w0GXWpuHFYiGMAN9kP1FHpcLlfUr+q3Z9LcjvX3qvuJa29midKUnd5V6hxxV1hfLpcf94veRjDVTnAvjmN5XSoTrunWefWbCWdzbuHAzcMcQzgJvvBOqqV2z2+qt2fibVs/rd/Prmuap8oqXusZQd6T/24ZK5l3Fe2aIgCvSwLPlflAPvmKJbTuK9OezDfwNZXmFSvpAPcRMQxgJvMSR1ltfudtRskpYr7vdxskpcqaf4bxTPGmOyF50mScqfqIe7LW971yQ9CPTo+0pHOdX76QYP5XE9JCiJTulGX5LAcpUrjpPh8yPmpXg3GswvBDxW9PMq92Va729pqePUQeJ5Xvxg7ND8Yy4XVduQrCF/qOB+yVdptdVt1iebDwXW3ijh2ixirkA6XN7t+yHMlV9S0GHNaR8V9dXrz+0xptuHso0c6PpoVeH5+qg+L+1Bptty4s5X0DkNpHmRyJBnrVG0koZ/9fusOP0zsr61wU05kgpLvrT8CE9lFHDDVNMYOzdVjOTGhv/rZrY+gTtF8OMR1ZyGOXSPGKiSh8Rex44emrGbFZs2KsR3UUUlogm3K9AMTNTBIF79/Xv2n3s21TiYySaQw8K19ZHz5QagoMVvN93RVDrBvxDIAAA3SOtFokiiJQgV+SdvvBwqjRGYy0mVn99VVM6be4UZp2tA5cBNw3WHXiDHsGjGGXSrLgxozogQAAAAA2yJRAgAAAAALiRIAAAAAWEiUAAAAAMBCogQAAAAAFhIlAAAAALCQKAEAAACAhUQJAAAAACwkSgAAAABgIVECAAAAAIt3cXFhFi9u375dfBcAAAAAGuLi4iL72TPGZImS53mSpNwpwDnP84gx4Jpx3WHXiDHsGjGGXSrLg5h6BwAAAAAWEiUAAAAAsJAoAQAAAICFRAkAAAAALCRKAAAAAGAhUQIAAAAAC4kSAAAAAFhIlAAAAADAQqIEAAAAABYSJQAAAACwkCgBAAAAgIVECQAAAAAsJEoAAAAupUN1PE/e/OjH9gc2idXPfb8zTO0PALgGzUqU0ljDfqdQeXleR53+UPFl6iBX5eTF/WVZl69RgatxFMtpPFS/Y5fjqdPpa3iZgoA9Ko/jDnGMHzZ+NdRlIigdvtLYPglsgXrMMZMjyVinaiMJ/ez3W3f4YWJ/bYWrcvKSKDB+vowgsj9SK6ppjB0aN7EcmcBf/d7K4Qcm2lQUdkpcd+slxLELxFhOEhbbdcls37RHJrC+u7kubgZirAL12A9b/BvlNWNEKe6rPZhmL/0gVBhFiqJQYeBn56eDdvXwuKtyMqnifkft3ljLUoFr4CSWY/W9nsa54PWDQEEYKQoDBYGvrKTpWL12X2uLAvYmVr+dj2NfQRAqiiJFUaQwCIhjOLHtqBKjSbg86rGdyWdNZZnU4Sv2zARlaXQU5LLtwJR3+rgqZ5b1h4G/0tuUHdt3Ox2k+sXYoXETy4URKT80JaUYYxIT5nq46BXdH667clFQrHvLIzQpfI44LkeM5ZSMKM3qW/uDttXRJGJuiRgrRz3mxuLfpnCu8KLkAwcvf8NXUUNtDB5X5ZRUgn4QmiRfqVaUXwe1i7FD4ySW8wmQb1bezsvH9tqECrvGdVcmXx+Xdwgs5T5LHJcixnIKbXqYqy+r42zZAeWbMFzW1at1cDMRY2Wox1xZXG95tZ96F58uB7CD427hvbzucZD9PD1LCu/JYTkFfqAwSjQZnahlvwfsiJNYTj/pw2KIP3ipk6oAbv2kR4sx/+mZNlwVwPVJz/V18XNwrPVXgyS1dYc4xpUc6eTloj4d69XaFexivVlMiQ5e6uTIfh8oQT22UzVPlGIt7wkDVdwTSt1jZbeF41Nr7qarciSpredRosQYmclIJ92qO0zANZexPOPfadungMPQOtFkNrNCZlR1MVj8OyLqcSnd5wrnN6jTwZvS+nT5bFKg6DLxiGajHtupeidK+Sx7Y0Dksmx91Xm+w8dVOZKkllrdFiNI2A9XsZyrmCeVw0mSlOiM1Upw6PKjqPeOqMNxSa0No0rL0SQ/fL5hVAC4IuqxS6t3opS3MSBaOrpnnyvhqhxg364rluPT5QpOG6cFADdRquHjwXx1Ul/hc6IYV1AxqhT3e9lo0suNnU/AVVCPXUW9E6Xk7IrLbk9VeCTDVTnAvl17LKcavtrumSjgpkjTWHE8O2YbMrc16+z3FSaT6mfygLXWjCqlQy2qSUaT4Ar1mBv1TpQA7FU6fDyvmCUFkS4zfRrYl+RNT73e7BiMp5pK8oNIieHmAj+oO1I0z5Wmg8caplL8ZtHLz2gS3KEec4NECcBOpPlNbf1QCVkSDth03FO709cwtp8tAS6n+zycb/451eBNn9EkXBvqscsjUQLgXDrsqN1bTLkLFE1YAh+HozuaryBljEySKArnu9pPxxr02uqsPIgPXELrRMsZeGNGk7AT1GNu1DtRat+Z99pclq/CiseuygH27RpiOR12ciNJgSIzopcUh6vVUvdkpImJFGQP4s+mTAFXtRxVmmE0CTtFPXZl9U6U8r6eqzoeUp1n6yZXcFUOsG/OYzlV3M8nSaGSCUkS6qKrUTYMMNWHT9VXD1ApP6rEaBKuDfXYZdU7UWodKVvdeOMOxPm9Xu7pKF9nuSoH2LedxXKqYaet3nj2BT+IlDDdDjdc3PfkeZ48r1+6AeiK3Ijs9GrLQAKZ5dQoOpRwddRju1XvREldHWc9NmOdVkVQ5V4vrsoB9m0HsZzG6ncWy45KfphoMuqSJOGAlG0ODgCHhHpsF2qeKEnd5V2hxhV3hfHpcq8Xv+RhDFflAPvmNJbToTrtnmYDSb6CKNGEKSQ4EMtrYarBm/XXwkL66UO2D9naawIArhH12G7VPlFS91jLDvSe+mVLIsZ9ZQt0rZsr7KocYN8cxXIa99Vp53b5TiYadVc/B9xY1rXQGcZrn9tL46EeZ5uC+Xr0E7EO4AagHtspzxhjsheeJ0nKnaqHuC9vedcnPwj16PhIRzrX+ekHDebPVUhSEJn1m2K6Kkep0jgpPh9yfqpXg/kyoX6o6OVR7s222t1WbaYyeZ5Xvxg7ND8Yy4WV7eQrCF/qOB+yVdptdVt1iebDwXW3RtxXp7dYolmzeA4e6XgR0OenOv0wno+azj8RMnJahhjLSYfLjqQgkrEr0W3k6mliboYYW4N6zInSPMjkSDLWqdpIQj/7/dYdfpjYX1vhppzIBCXfW38EJrKLOGCqaYwdmqvHcmJCf/WzWx9BnaL5cIjrbr0kNMFWMe2boPSagCHGipLQ+D9a50VBFnvldXHzEGMVqMd+2OLfKK/+U+/mWicTmSRSGPjWPjK+/CBUlJitMmtX5QD7RiwDc60TjSZGSRQq8O3rQfJ9X0EYKTETjbgmANxE1GM70Yypd7hRGDoHrh/XHXaNGMOuEWPYpbI8qDEjSgAAAACwLRIlAAAAALCQKAEAAACAhUQJAAAAACwkSgAAAABgIVECAAAAAAuJEgAAAABYSJQAAAAAwEKiBAAAAAAWEiUAAAAAsHgXFxdm8eL27dvFdwEAAACgIS4uLrKfPWNMlih5nidJyp0CnPM8jxgDrhnXHXaNGMOuEWPYpbI8iKl3AAAAAGAhUQIAAAAAC4kSAAAAAFhIlAAAAADAQqIEAAAAABYSJQAAAACwkCgBAAAAgIVECQAAAAAsJEoAAAAAYCFRAgAAAAALiRIAAAAAWEiUAAAAAMBCogQAAOBSOlTH8+TNj35sf2CTWP3c9zvD1P4AgGvQrEQpjTXsdwqVl+d11OkPFV+mDnJVTl7cX5Z1+RoVuBpHsZzGQ/U7djmeOp2+hpcpCLhx8jesHXG/iqsYvxrqMqGTDl9pbJ8ELot7yx9nciQZ61RtJKGf/X7rDj9M7K+tcFVOXhIFxs+XEUT2R2pFNY2xQ+MmliMT+KvfWzn8wESbisJOievuSqIgH8u+2XhJNBgxlpOExXZdMts37ZEJLl0XNwMxtr2m3Vu6sPi3ymvGiFLcV3swzV76QagwihRFocLAz85PB+3q4XFX5WRSxf2O2r2xlqUC18BJLMfqez2Nc8HrB4GCMFIUBgoCX1lJ07F67b7WFgXcRHFfPbr14ci2o0qMJuHHcG/pVD5rKsukDl+xZyYo69aOglzPTWDKc25X5RhjksiEgb/S25QdNc/66xdjh8ZNLBdGpPzQlJRijElMmBtxold0f7juLmu1V58RpWrEWE7JiNKsvrU/aCuLO+rOBWKsQsPvLV1Y/Fvl1X9EKT5d9swEkUbdVvF9SeqOFAWLF2O9KpuE7qocxeq3exqMp1mm7wehkiRc9r4Du+QkllN9+pBFsMLfTlRSiqSWTn5bxvb0w6etelSBfYv7vfl1EigMqZ3xA4JQixAa96pH1pejSb7CMKuEgQ24t9yV2idK8elyADs47hbey+seLyuk6VlSeE8OyynwA4VRoslo3U0m4J6TWE4/KcuTgpc6qQrg1k96lGVKZ9pwVQB7lw472ZS7IBrpJ/sDwKUc6eTloj4t63haiPVmMSU6eKmTI/t9YAvcWzpV80Qp1vKeMFDFPaHUPdayA/3U6vFxVY4ktfU8SpQYIzMZ6aSsNx/YGZexPOPfadungMOVDvU4u1mNNKq6RoBtdZ9no0rTwZvS+nQ5mhQoIvBwKdxb7kq9E6X0XF8XP/t3VH0719adbHzyq87zHT6uypEktdTqtsjysR+uYrl1ookxMsZoUjmcJEmJzniiFAch1fDxYD51hZtVuNTaMKq0HE3yw+ci8nA53FvuSr0Tpbx7RxsCqKWje/a5Eq7KAfbtumK58EzUMTcAuLHS4WMtB5NGxCrcqhhVyj8T93Jj5xOA61LvRCk5u+LSiFMVHslwVQ6wb9cey6mGr7Z7JgrYq9yUOz9MmHKHHVgzqpQOtagmGU0CbpZ6J0oA9irfQ8/zHri5clPu/FC/0aOPXcmtKDodPNYwleI3y+mejCYBNwuJEoCdSPOb2vqhErIk3FBxvz1P6KuWugfc6D5fLNk81eBNn9Ek4AYjUQLgXDqc7Qo+EyiacPOJGyruZ0uB++Fv1UvdAy60TrScgTdmNAm4weqdKLXvXHGjLV+FFY9dlQPs2zXEcjrs5EaSAkWGh+JxU8XqL7Mkptzh2ixHlWYYTQJupnonSnlfz2UvxlmU6jxbN7mCq3KAfXMey6nifj5JCpVMSJJwc+VXGmPUE9cqP6rEaBJwY9U7UWodKVvdeHqm6kW78nu93NNRvs5yVQ6wbzuL5VTDTlu98XzVsCBSwo0nbrL8lLvgjhTHitccn86WXzv7tDyfVvc0AJW6o9ledIZRd+DGqneipK6Osx6bsU7LtsJeqNzrxVU5wL7tIJbTWP3O4mH42dLKk1GXJAkHYzoeqNfrrT0G8w4AaarxYHn+TXVPAwDgwNU8UZK6y7tCjSvuCuPT5V4vfsnDGK7KAfbNaSynQ3XaPc3uI30FUaIJU0gAAEAN1D5RUvdYyw70nvpxyVyJ3BSMtXOFXZUD7JujWE7jvjrtxf4fvsJkolF39XPAjdQdzac9bT6ScPHYva8wWZ5nxXsAqDfPGGOyF54nScqdqoe4L2951yc/CPXo+EhHOtf56YfctAopiCoaP1flKFUaJ8XnQ85P9WowXybUDxW9PMq92Va726rNVCbP8+oXY4fmB2O5sLKdfAXhSx3nQ7ZKu61uqy7RfDi47q5uGe+zDoGSfgMQY0XpcNmRFEQydiW6jVw97YeM1osY26DZ95YulOZBJkeSsU7VRhL62e+37vDDxP7aCjflRCYo+d76IzCRXcQBU01j7NBcPZYTE/qrn936COoUzYdDXHdXtrxWfFN6ScAYYqwoCY3/o3VeFGT1Znld3DzEWJVm31u6sPi3yav/1Lu51slEJokUBr61j4wvPwgVJWar3hpX5QD7RiwDAACs14ypd7hRGDoHrh/XHXaNGMOuEWPYpbI8qDEjSgAAAACwLRIlAAAAALCQKAEAAACAhUQJAAAAACwkSgAAAABgIVECAAAAAAuJEgAAAABYSJQAAAAAwEKiBAAAAAAWEiUAAAAAsHgXFxdm8eL27dvFdwEAAACgIS4uLrKfPWNMlih5nidJyp0CnPM8jxgDrhnXHXaNGMOuEWPYpbI8iKl3AAAAAGAhUQIAAAAAC4kSAAAAAFhIlAAAAADAQqIEAAAAABYSJQAAAACwkCgBAAAAgIVECQAAAAAsJEoAAAAAYCFRAgAAAAALiRIAAAAAWEiUAAAAAMBCogQAAOBSOlTH8+TNj35sf2CTWP3c9zvD1P4AgGvQrEQpjTXsdwqVl+d11OkPFV+mDnJVTl7cX5Z1+RoVuBpHsZzGQ/U7JeV0+hpepiDgpqBOhkPjV0NdpiZMh680tk+iYVINO/k29ZJHpyLmHLX9jWByJBnrVG0koZ/9fusOP0zsr61wVU5eEgXGz5cRRPZHakU1jbFD4ySWk8gE/ur3Vg4/MNGGorBb4rrbWtPqZFeIsZwkLMaQZLYPo8gE1nc31sUN0awYS0y4Tfu67vBDUxY1Ttr+mlr8/nne/A1Jkud5i+Qpn0sdvrgvr7fsm/GDUI+Oj3Skc52fftBgPM3eCyKjUTd7WeSqnEyquP9Yvdz3JElBJLP5ywfL87z6xdihcRLLsfpeL9fr6SsIHun4+EiSdH56qg/jsXIlKTIjlRaFneO620Yz62RXiLGcdKhOe5Cr/yT5oZLJiVr5cyXSYUftQTEG/TDR5GTTN+uvWTGWKh6+0emZfb7KV30dT2dxVxZvTtr++irNg/JZU1kmdfiKPTNBWbd2FOQy6cCUd/q4KmfWCx8G/kpvU3Zs3+10kOoXY4fGTSxHQTFmS0oxxiSFzzW1l+om4Lqr0PA62RViLKdkRElbjSqtjiZRdy4RY9Xyo0Wrseam7a+zxe9eOFd4UfKBg5f/T1+NmszGmzlX5ZRUgn4QmiRfqVaUXwe1i7FD4ySW83G8qTLNfXbNVADsHtfdOtTJrhBjOYX4CXNTqKrry+WNrm/CcFlXr9bBzUSMVdnQ1jpp++tt8Xvn1X4xh/h0OcQYHK8fQ+weB9nP07Ok8J4cllPgBwqjRJPR5qF4wBUnsZye6+vi5+B4w3S6tu748x+nZ9pwVQD7Q52MnTjSyctFfTrWq7Ur2MV6s5hyF7zUyWwWM7CV/AIgwcvVOsxJ299ANU+UYi3jIlBFXEjdY2WhMT5VcY0jV+VIUlvPo0SJMTKTkU66digDu+QollsnmsxGpC/37IZ/R237HLBX1Mm4Bt3nCucdRtPBm5J7g/yNbqDoMvUqkE+y/VDPV8LHUdvfQPVOlPK93htv0HK93vqq83yHj6tyJEkttbqtlUwfuBZOY3lL6Sd9WDwfeu+I2McNQ52M69DaMKq0vNH1w+cbRumBok2jSXtp+2ui3olS3sYbtJaO7tnnSrgqB9i3a4nlVMPHi5WffIWr3VwA0AwVo0pxf7GCaKCXrG6HS9k0mmS5lra/PuqdKCVnxaU5tzZVYVqmq3KAfdtxLKdprDieHbPN7Nqa1d++wmQi2n8AzbVmVCkd6tV8OIDRJFzWxtEk7b7tr7N6J0oArlXypqdeb3YM5ns5+EGkxJAkAYC6I0XzXGk6eKxhKsVvFqPujCbhsi45moRLI1ECsFPTcU/tTl/DuOETnQFAUvd5qNkMvKkGb/qMJuHKthpNwg8hUQLgTHc0XwnPGJkkURQGsxuC6ViDXludlQeYAaBhWidazsAbM5qEK2I06TrUO1Fq35n32lyWrzv5JUFclQPs23XGcqul7slIExMpyB5gnk01AYAmW44qzTCahMu61GjSdbb9NVPvRCnv67mq789SnWdrJ1ZwVQ6wb9cWy12Nsu7TqT58qv5TAaD28qNKjCbhstKhHl91NOna2v56qHei1DpStsLh9EzVC3ckOsuWBLmno3yd5aocYN8cxXLc9+R5njyvv91mdLneLHb6BoD8VOURo0m4lOUCIFuMJsld299E9U6U1NXxcnthnVbd0cWn2RCmgmOr0nJVDrBvrmOZzegAALg2ueXktx9Nct32N0fNEyWpu4wMjSsiIz7NwkJ+yYRMV+UA++YilpdlTDV4s76MhfTTh6z3yy4LAABs59KjSXMu2v4mqn2ipO6xlkl0T/2yJYrjvnrL9Ll8rrCrcoB9cxHLVhmdYbx2znMa5+ZSy9ejn7guAAC4tCuNJs25aPsbyDPGmOyF50mScqfqIe7LW/7Pyw9CPTo+0pHOdX76QYPxcr/iIDIarQs8V+UoVRonxTmi56d6NZgvE+qHil4e5d5sq91tbd1rcNN5nle/GDs0LmI57qvTWyxtK0m+guCRjo/nsXt+qtMPY+WKkh8mmlDx7gXXXZVm18muEGM56VCd9rznP4hkSivRDXL1NHXnTNNjLO57WSKztm2u4qLtr7HSPMjkSDLWqdpIQj/7/dYdfpjYX1vhppzIBCXfW38EJrKLOGCqaYwdGiexnIQm8Fe/t3r4JthUFnZKXHcVml0nu0KM5SSh8RfxElwxWqIgi7mNdXFDNDrG8jHlh+aqEeGk7a+pxe+fV/+pd3Otk4lMEikMfGsteV9+ECpKzFa9Na7KAfbNSSy3TjSaGCVRqMC3y5F831cQRkrMRKNNZQEAgFJXfTbJ5qTtb5BmTL3DjdL0oXNgH7jusGvEGHaNGMMuleVBjRlRAgAAAIBtkSgBAAAAgIVECQAAAAAsJEoAAAAAYCFRAgAAAAALiRIAAAAAWEiUAAAAAMBCogQAAAAAFhIlAAAAALCQKAEAAACAxbu4uDCLF7dv3y6+CwAAAAANcXFxkf3sGWOyRMnzPElS7hTgnOd5xBhwzbjusGvEGHaNGMMuleVBTL0DAAAAAAuJEgAAAABYSJQAAAAAwEKiBAAAAAAWEiUAAAAAsJAoAQAAAICFRAkAAAAALCRKAAAAAGAhUQIAAAAAC4kSAAAAAFhIlAAAAADAQqIEAAAAABYSJQAAgF1Kh+p4nrxLHX3FdjkArlWzEqU01rDfsSqrjjr9oeLU/nAFV+Xkxf1lWX2qRlwTR7GcxkP1OyXldPoaXqYgYI/K49gjjgHsVdwv1kmVR2eodbWVq3KaxDPGmOyF50mScqdqIx121B5M7dMFfphoctKyTxe4Kicvjft63BsrKzWIZEbd4odqxPO8WsbYoXESy2ms/uOextXFSH6g6LeRuhVFYbe47qrE6neI4x9FjFVIh+q0B7N23g8UvjzWkf2ZFW21uy0RbktNjbG476k3ts+u4YdKJielceOqnLoqy4OakSjFfXm5yPCDUI+Oj3Skc52fftAg1zoGkdHaHMVVOZlUcf+xenbrTKKEXXMSy7H6Xk+5UhQEj3R8PGv+z09P9WGc6wBQoMiMVFoUdo7rbh07jiU/CHTvzrGOdarTs6/6Op4Sx1sgxioUEqXm3YC60swYSzXstDWYzmInerkpxW6rW9qb46qc+irNg0yOJGOdqoHIBPPfS5IJosT+gDFRkL0vBSay3zfGYTnGmCQyYeAbP1de4QjWfrMW6hdjh8ZNLEdBMWZLSjHGJIXP+WH5p7B7XHflktBfxrEfro3j0CeONyHGKiThss1fG2fYpJkxtqx/fqzucVVOfS3q+Lz6P6MUny57CoNIo7LsuDtSFCxejPVqWDIr01U5itVv9zTI9VD6QagkCeVbnwR2wkksxzpdFqJo1F3TO9pSdxRpUdT0wyfmPOMGSfXpQ1YTK/xtXS9/Sye/Leto4hjA9Ul0tmla8FZcldMstU+U4uXdnILj9ZMlusfZXaGmZ0nhPTksp8APFEaJJqN1jTPgnpNYTs/1dfFzcLxhGlJbd7I7zDNtuCqA65N+UpYnBS9V9TieWj/pEXEMYI/uHVVVUttzVU4T1DxRKvZ6V9wTSt3jrNdb41NrSU5X5UhSW8+jRIkxMpORTsp684GdcRTLrRNNjJEx5nLP0/l31LbPATeAf4fIBHAD5Tsmf4Srchqm3olSPig23qDler31Vef5eRWuypEktdRiFRvsi9NY3lK+1/7eEbGPmyOX8Feu7igxbQXAnvly05/jqpxmqHeilLfxBq2lo3v2uRKuygH27VpiOdXw8XylJ/kKn19i9Am4SQrP9m2abgpUOdOnOFZceaQ8B4eZ5Cy36uZyv7f8nkedTkf9YVwdM67KaZh6J0pWUGxvqsIjGa7KAfZtx7GcpsuGfraR7XwpUvkKk0n1MyDAjZVq+Gq7Z/uAjaZjDXo99SqPNzwHhxVnbzpq9wYaT4st+XQ61XjQU9vraGXtpRKuymmCeidKAK5V8mbZ0C9WdvSDSIkhScLhSoeP5wn/YqVI6wMAsCPp+WLC/FTj8VTyfQVhpCiaH2EgP5smP9WgXZ7kuCqnaUiUAOzUdNxTu9PXMKbGxeFJ477aiyzJD5WQJeFH+eFsQafKg02NsXBPvu/L930FUSIzmWh00lW3Oz9ORppMjJIwW5ZTg8fDkulzrsppFhIlAM50R7mGPklmPVRaTDVpq0P3FA5IOuyo3VtMuQsUTdjKAcD1ap2MNJlMNJlMyvc9nGud/KZljvNBn6zm1lU5TVPvRKl954qbuForgrgqB9i364zlVmvWQ2UiBfM/dDp4zFA+DkI67ORGkgJF9PADuNFa+mm52dtWzxWXc1VOPdQ7Ucr7er5h+DBVNn2ziqtygH27tljuavRysSPTVB+a3j2FGy5V3M8nSaGSCUkSgMPy9cp7ehS5KudQ1TtRah0pW914407q+T0y7qmwabGrcoB9cxTLcX+xnGi/ZFPlErmRrGnTu6dwg6UadtrqjWeB7weREqbbAUBj1TtRUlfHi45sjXVadUdXuUeGq3KAfXMdyz+wES1wk6Sx+p3FcvaSHyaajLokSQD2Jh0u9znqV7XXc0luV+x7ud5NV+U0Uc0TJam7vCvUuOKuMD5d7pHhlzyM4aocYN9cxPKyjKkGb9aXsZB++pDt32SXBexdOlSn3dNsIGm2ItSE9ewB7Fkrt+t7VXs9E2vZbBefK3ZVTiOZHEnGOlUDkQnmv5ckE0SJ/QFjoiB7XwpMZL9vjMNy1khC4y++G1zqmwenfjF2aFzEcrEMP4xMSSnGGGOSKBfb8k247oPYKa67ckkUEJ+OEGMV8m28H66tL1GteTFmt7XrIicxUbD83Op9pKty6m3xe+d58zckSZ7nLZKnfC51+OK+vGyJV8kPQj06PtKRznV++kGD+Xx0SQois34zQVflKFUaJ8XnQ85P9WownvW6+6Gil0e5N9tqd1u1mQLieV79YuzQuIjluK9Obx6z0qwnPnik4+N57J6f6vTDeN5LP/9ESE/9vnDdrSqsbCdfQfhSi/DdqN1Wt0Us5xFjFdKhOu1B1sbz7NvVNDLG7LbW9xU8eqTjo1lldX5+qg+L+0dptpVB2SqdrsqpsdI8KJ81lWVSdZGE/jJDXnOsz7CX3JRTzOw3H2U9+odLNY2xQ+MklpPQBP7q91YP3wSbysJOievOkphwq9hdczSsp3UbxFgFRpScaGyMbdvW+oEpmySScVVOTS1+/7zaP6O00DqZyCSRwsC39pHx5QehosRs1dPtqhxg35zEcutEo4lREoUKfLsczXYADyMlZqLRprIAAMCq1olGk2RNW+vL9wOFUSIzGaliL1l35TRIM6be4UZp5NA5sGdcd9g1Ygy7Roxhl8ryoMaMKAEAAADAtkiUAAAAAMBCogQAAAAAFhIlAAAAALCQKAEAAACAhUQJAAAAACwkSgAAAABgIVECAAAAAAuJEgAAAABYSJQAAAAAwOJdXFyYxYvbt28X3wUAAACAhri4uMh+9owxWaLkeZ4kKXcKcM7zPGIMuGZcd9g1Ygy7Roxhl8ryIKbeAQAAAICFRAkAAAAALCRKAAAAAGAhUQIAAAAAC4kSAAAAAFhIlAAAAADAQqIEAAAAABYSJQAAAACwkCgBAAAAgIVECQAAAAAsJEoAAAAAYCFRAgAAAAALiRIAAMAupUN1PE/epY6+YrscANeqWYlSGmvY71iVVUed/lBxan+4gqty8uL+sqw+VSOuiaNYTuOh+p2Scjp9DS9TELBHxDGAwxOrn6uvhttUVY7a/ibwjDEme+F5kqTcqdpIhx21B1P7dIEfJpqctOzTBa7KyUvjvh73xspKDSKZUbf4oRrxPK+WMXZonMRyGqv/uKdxdTGSHyj6baRuRVHYLa67CsSxE8RYhXSoTnswa+f9QOHLYx3Zn1nRVrvbEuG2RIytivueeuPFK19hMlFls+2i7a+psjyoGYlS3Je3jCL5QahHx0c60rnOTz9okGsdg8hobY7iqpxMqrj/WD27dSZRwq45ieVYfa+nXCkKgkc6Pp41/+enp/owznUAKFBkRiotCjvHdbcOcewKMVahkCiFSiYnJEBXQIxZrLZ8Y6LkpO2vr9I8yORIMtapGohMMP+9JJkgSuwPGBMF2ftSYCL7fWMclmOMSSITBr7xc+UVjmDtN2uhfjF2aNzEchQUY7akFGNMUvicH5Z/CrvHdVeOOHaHGKuQhMs23w/XxBk2Icbyim357PDN+urJTdtfZ4vfvXCu8KLkAwcv/59ekYBsbARdlVMS2H4QmiRfiVaUXwe1i7FD4ySW83G8qTLNfZYbhL3huitDHLtEjFUgUXKCGFtattGBCUN//nNFouSk7a+3xe+dV/vFHOLT5RBjcLx+DLF7HGQ/T8+SwntyWE6BHyiMEk1GDMHj+jiJ5fRcXxc/B8cbpiG1dcef/zg904arArg+xDGAA5QOO9lzSUE00k/2B0o4afsbqOaJUqxlXASqiAupe6wsNMan1pKcrsqRpLaeR4kSY2QmI53wVDCulaNYbp1oMhuRvtzzdP4dte1zwL4QxwAOTTrU48ViDEG05XNEjtr+Bqp3opTvLdzYsOV6C/VV5/nlEV2VI0lqqcUqNtgXp7G8pfSTPiyeD713ROzjMBHHAPYu1fDxfFEQBYq2y5L20/bXRL0TpbyNDVtLR/fscyVclQPs27XEcr5S9xU+37JSB24U4hgunelTHCuuPFI1/P4UJdLhYy0Hk664+ua1tP31Ue9EKTnLLel6GVMVpmW6KgfYtx3HcpouG/rZZnbteaW+YclS4AYhjrFT07EGvZ56lccbnoNDUW7KnR8mW065m9tx219n9U6UAFyr5M2yoR+Mp5pK8oNIieHmEoeDOAZws+RGtf1Qv1ERXRsSJQA7NR331O70NYyZSILDRRzDGT+cLehUeVxxWhVqKe7nRrV/Y6Xk60SiBMCZ7ijX0CeJojCQr8VUk7Y6Q24ycfMRxwBujLifLQXuh78xqn3N6p0ote/MGrdL83UnvySIq3KAfbvOWG611D0ZaWIiBfM/dDp4LO4xcVCIYwB7E6u/zJKuPuXuOtv+mql3opT39XzDCjKpzrO1Eyu4KgfYt2uL5a5GLxe7Mkz14VP1nwrcTMQxgOsV93uapUmBoomjKXfX1vbXQ70TpdaRshUON+6knugsWxLkno7y0eiqHGDfHMVy3PfkeZ48r7/dZnS53ix2+sZNQRwDuLHyU+6CO9LKEvLL49PZ8mtnn5bn00VG5Kjtb6J6J0rq6ni5vbBOq1rC+HSetUsKjq2HKF2VA+yb61hmMzrUAXEM4OaajgclS8gXV+ecf1LjwfL8mywjct32N0fNEyWpu4wMjSsiIz7NwkJ+yYRMV+UA++YilpdlTDV4s76MhfTTh2wPB7ssYF+IYwBN4aLtb6LaJ0rqHmuZRPfUL1vaNTe8KQV6WfawnKtygH1zEctWGZ1hvHbOcxovN8mTfD36iesCNwRxDOCm6o5Klo0vP5JwMSnYV5gszxc2pXXR9jeQZ4wx2QvPkyTlTtVD3Je3/J+XH4R6dHykI53r/PRDbshSCiIrsPJclaNUaZwU54ien+rVYJxtJha9PMq92Va723LzEN8N4Hle/WLs0LiI5bivTm8es5IkX0HwSMfH89g9P9Xph7FyRckPE02oePeC624N4tgZYqxCOlSnvdwwNHH1YH7DEGPl0mFH7cF0nihVbIztou2vsdI8yORIMtap2khCP/v91h1+mNhfW+GmnMgEJd9bfwQmsos4YKppjB0aJ7GchCbwV7+3evgm2FQWdkpcd+sRx04QYxWS0PiLOPJDQxRdDTFWbtme+2ZTFeWk7a+pxe+fV/+pd3Otk4lMEikMfGsteV9+ECpKzFY9hK7KAfbNSSy3TjSaGCVRqMC3y5F831cQRkrMRKNNZQH7QhwDaAgnbX+DNGPqHW4Uhs6B68d1h10jxrBrxBh2qSwPasyIEgAAAABsi0QJAAAAACwkSgAAAABgIVECAAAAAAuJEgAAAABYSJQAAAAAwEKiBAAAAAAWEiUAAAAAsJAoAQAAAICFRAkAAAAALN7FxYVZvLh9+3bxXQAAAABoiIuLi+xnzxiTJUqe50mScqcA5zzPI8aAa8Z1h10jxrBrxBh2qSwPYuodAAAAAFhIlAAAAADAQqIEAAAAABYSJQAAAACwkCgBAAAAgIVECQAAAAAsJEoAAAAAYCFRAgAAAAALiRIAAAAAWEiUAAAAAMBCogQAAAAAFhIlAAAAALCQKAEAAOxSOlTH8+Rd6ugrtssBcK2alSilsYb9jlVZddTpDxWn9ocruConL+4vy+pTNeKaOIrlNB6q3ykpp9PX8DIFATdOrH4upoeEM4Cb4EfuGx21/U3gGWNM9sLzJEm5U7WRDjtqD6b26QI/TDQ5admnC1yVk5fGfT3ujZWVGkQyo27xQzXieV4tY+zQOInlNFb/cU/j6mIkP1D020jdiqKwW1x3VxP3PfXGi1e+wmSiqkuiyYixCulQnfZg1s77gcKXxzqyP7OirXa3JcJtiRib+ZH7Ridtf02V5kEmR5KxTtVDFGS/myTjB6EJo8hEUWjCwC+8F0T2l3NclZNJTGR9T5LRdl8+WKpjjB0aJ7EcmaAQu74JgtBEUWSiKDJhEBi/8H5g1haFneO6uwLrOpF8Eyb2h7BAjFVIwmV96IeGMLoaYuwH7xudtP31tfjdC+cKL0o+cPiKN3NBVFI9FQJn3c2cq3KMMUlkwsC3biJzR82js34xdmjcxHIUFGO2pJR5pb78nM9d5t5w3V2W3REgEqUNiLEKJEpONDbGnNw3umn762zxuxfOFV6UfODg5f/TKwJp482cq3JKGl8/CE2Sr0Qryq+D2sXYoXESy/k43lSZ5j7LDcLecN1dzjL+AxOGi55WEqUqxFgFEiUnmhljju4bnbT99bb4vfNqv5hDfJpNLldwvH7+Zvc4yH6eniWF9+SwnAI/UBglmoxOmIOMa+MkltNzfV38HBxrfSmS1NYdf/7j9Ewbrgpg79JhJ3suKYhG+sn+AADsww/cNzpp+xuo5olSrGVcBKqIC6l7rCw0xqfWkpyuypGktp5HiRJjZCYjnfB0O66Vo1hunWgyG5He+gFSSZJ/R237HHCTpEM9XjzoHES6THgDgHsu7hsdtf0NVO9EKd/rvfEGLdfrra86zy+P6KocSVJLLVaxwb44jeUtpZ/0YbHAzr0jYh83WKrh4/nKZAoUkSUB2DsH9437aPtrot6JUt7GG7SWju7Z50q4KgfYt2uJ5fyNp6/wOTeeuLnS4WMtB5NGG6aUAld1pk9xrLjySNXw+1PsyrW0/fVR70QpOVuuMX8pUxWmZboqB9i3Hcdymi4b+tlmdu35jSf7z+CGy02588OEKXfYnelYg15PvcrjDc9zwp0dt/11Vu9ECcC1St4sG/rBeKqpJD+IlBiSJNxkuZFPP9RvBCsAgEQJwK5Nxz21O30NYyaS4GaK+7mRz98uv5oUcCl+OHswv/Jg6idwE5AoAXCmO8o19EmiKAzkazHVpK3OkGQJN0zcz5YC98PfGPkEAGTqnSi178xu0i7N1538kiCuygH27TpjudVS92SkiYkUzP/Q6eCxyJVwc8TqL7MkptwBqKfrbPtrpt6JUt7X8w0ryKQ6z9ZOrOCqHGDfri2Wuxq9XOzKMNWHT9V/KnBd4n5PszQpUDRhyh2ABri2tr8e6p0otY6UrXA4Pduwgkyis2xJkHs6yreYrsoB9s1RLMd9T57nyfP6221Gl+vNYqdv3Aj5KXfBHWlleebl8els+bWzT8vzafXdBgDcDI7a/iaqd6Kkro6X2wvrtOqOLj6d9yxKCo6thyhdlQPsm+tYZjM6HL7peFCyPHNxBcf5JzUeLM+/qb7bAIAbwnXb3xw1T5Sk7jIyNK6IjPg0Cwv5JRMyXZUD7JuLWF6WMdXgzfoyFtJPH7I9HOyyAADAbrlo+5uo9omSusdaJtE99cuWKM5NwZACvSx7oNdVOcC+uYhlq4zOMF475zmNlxt5Sr4e/cR1gRugOypZkrn8SMLFxFFfYbI8z6a0AA6Gi7a/gTxjjMleeJ4kKXeqHuK+vOX/vPwg1KPjIx3pXOenH3LTKqQgqmj8XJWjVGmcFOeInp/q1WCcbXgYvTzKvdlWu9uqzYPGnufVL8YOjYtYjvvq9OYxK0nyFQSPdHw8j93zU51+GCtXlPww0YSKdy+47q4uHXbUHkzniRKbJ69DjFVIh+q0l5saJyweciXNjTFH940u2v4aK82DTI4kY52qjST0s99v3eGHif21FW7KiUxQ8r31R2Aiu4gDpprG2KFxEstJaAJ/9Xurh2+CTWVhp8R1d2XLa8U3hPF6xFiFJDT+oj70Q0MYXU1zY8zdfaOTtr+mFr9/Xv2n3s21TiYySaQw8K215H35QagoMVv1dLsqB9g3J7HcOtFoYpREoQLfLkfyfV9BGCkxE402lQUAAHbKSdvfIM2YeocbpblD58D+cN1h14gx7Boxhl0qy4MaM6IEAAAAANsiUQIAAAAAC4kSAAAAAFhIlAAAAADAQqIEAAAAABYSJQAAAACwkCgBAAAAgIVECQAAAAAsJEoAAAAAYCFRAgAAAAALiRIAAAAAWDxjjMleeF7xXQAAAABoiFxqJO/i4iJ7dfv27ewNAAAAAGiSi4uL7OfCiJIk/fvf/9Yf/vCH/CnAKWIMuH5cd9g1Ygy7Roxh1+wY4xklAAAAALCQKAEAAACAhUQJAAAAACz/P7LYkm4dT94IAAAAAElFTkSuQmCC;" vertex="1" parent="1">
          <mxGeometry x="610" y="189.99999999999997" width="542" height="409.39" as="geometry" />
        </mxCell>
      </root>
    </mxGraphModel>
  </diagram>
</mxfile>
